<svg xmlns="http://www.w3.org/2000/svg" xmlns:xlink="http://www.w3.org/1999/xlink" viewBox="0 0 600 400"><defs><style>.cls-1{fill:none;}.cls-2{isolation:isolate;}.cls-3{fill:#0f054c;}.cls-25,.cls-4{mix-blend-mode:lighten;}.cls-4,.cls-8{opacity:0.9;}.cls-4{fill:url(#Áåçûìÿííûé_ãðàäèåíò_11);}.cls-24,.cls-5{opacity:0.8;}.cls-5{fill:url(#Áåçûìÿííûé_ãðàäèåíò_19);}.cls-10,.cls-6{fill:#42e8e0;}.cls-6{opacity:0.1;}.cls-7{opacity:0.67;}.cls-9{fill:#080344;}.cls-11{fill:url(#Áåçûìÿííûé_ãðàäèåíò_2);}.cls-12{fill:url(#Áåçûìÿííûé_ãðàäèåíò_24);}.cls-13{fill:#24126a;}.cls-14{opacity:0.51;}.cls-15{fill:#453c9e;}.cls-16{fill:url(#Áåçûìÿííûé_ãðàäèåíò_24-2);}.cls-17{fill:url(#Áåçûìÿííûé_ãðàäèåíò_2-2);}.cls-18{fill:#fff;}.cls-19{opacity:0.15;}.cls-20{clip-path:url(#clip-path);}.cls-21{fill:url(#Áåçûìÿííûé_ãðàäèåíò_24-3);}.cls-22{fill:url(#Áåçûìÿííûé_ãðàäèåíò_2-3);}.cls-23,.cls-25{opacity:0.5;}.cls-25{fill:url(#Áåçûìÿííûé_ãðàäèåíò_21);}</style><radialGradient id="Áåçûìÿííûé_ãðàäèåíò_11" cx="238.67" cy="215.33" r="317.88" gradientTransform="matrix(1, 0, 0, -1, 0, 400)" gradientUnits="userSpaceOnUse"><stop offset="0" stop-color="#5761d7"/><stop offset="0.03" stop-color="#525bce"/><stop offset="0.18" stop-color="#3e41a6"/><stop offset="0.33" stop-color="#2d2b85"/><stop offset="0.48" stop-color="#201a6c"/><stop offset="0.64" stop-color="#160e5a"/><stop offset="0.81" stop-color="#11074f"/><stop offset="1" stop-color="#0f054c"/></radialGradient><radialGradient id="Áåçûìÿííûé_ãðàäèåíò_19" cx="-13" cy="93.59" r="439.34" gradientTransform="matrix(-1, 0, 0, 1, 600, 0)" gradientUnits="userSpaceOnUse"><stop offset="0" stop-color="#ff2c9c"/><stop offset="0.03" stop-color="#f62f9f"/><stop offset="0.2" stop-color="#c63eb0"/><stop offset="0.37" stop-color="#9e4bbe"/><stop offset="0.54" stop-color="#7f54c9"/><stop offset="0.7" stop-color="#695bd1"/><stop offset="0.86" stop-color="#5c60d5"/><stop offset="1" stop-color="#5761d7"/></radialGradient><linearGradient id="Áåçûìÿííûé_ãðàäèåíò_2" x1="29.7" y1="175.19" x2="186.02" y2="175.19" gradientTransform="matrix(-1, 0, 0, 1, 560.71, 0)" gradientUnits="userSpaceOnUse"><stop offset="0" stop-color="#c0bff6"/><stop offset="0.29" stop-color="#c5c4f7"/><stop offset="0.64" stop-color="#d3d2f9"/><stop offset="1" stop-color="#e9e9fd"/></linearGradient><linearGradient id="Áåçûìÿííûé_ãðàäèåíò_24" x1="29.7" y1="215.28" x2="56.54" y2="215.28" gradientTransform="matrix(-1, 0, 0, 1, 560.71, 0)" gradientUnits="userSpaceOnUse"><stop offset="0" stop-color="#5761d7"/><stop offset="0.18" stop-color="#5c66d9"/><stop offset="0.39" stop-color="#6a73df"/><stop offset="0.61" stop-color="#8289e8"/><stop offset="0.85" stop-color="#a3a7f5"/><stop offset="1" stop-color="#bcbeff"/></linearGradient><linearGradient id="Áåçûìÿííûé_ãðàäèåíò_24-2" x1="50.64" y1="259.02" x2="271.42" y2="259.02" xlink:href="#Áåçûìÿííûé_ãðàäèåíò_24"/><linearGradient id="Áåçûìÿííûé_ãðàäèåíò_2-2" x1="-47.44" y1="252.98" x2="277.89" y2="252.98" xlink:href="#Áåçûìÿííûé_ãðàäèåíò_2"/><clipPath id="clip-path" transform="translate(0 0)"><polygon class="cls-1" points="527.29 164.39 391.33 85.93 374.25 187.5 510.12 265.9 527.29 164.39"/></clipPath><linearGradient id="Áåçûìÿííûé_ãðàäèåíò_24-3" x1="-34.26" y1="210.43" x2="186.52" y2="210.43" xlink:href="#Áåçûìÿííûé_ãðàäèåíò_24"/><linearGradient id="Áåçûìÿííûé_ãðàäèåíò_2-3" x1="39.93" y1="204.39" x2="260.83" y2="204.39" xlink:href="#Áåçûìÿííûé_ãðàäèåíò_2"/><linearGradient id="Áåçûìÿííûé_ãðàäèåíò_21" x1="612.91" y1="182.16" x2="659.54" y2="202.11" gradientTransform="translate(-148.43)" gradientUnits="userSpaceOnUse"><stop offset="0" stop-color="#42e8e0"/><stop offset="0.11" stop-color="#37b6bf"/><stop offset="0.22" stop-color="#2c87a1"/><stop offset="0.34" stop-color="#235f87"/><stop offset="0.46" stop-color="#1c3f72"/><stop offset="0.58" stop-color="#162561"/><stop offset="0.71" stop-color="#121355"/><stop offset="0.85" stop-color="#10084e"/><stop offset="1" stop-color="#0f054c"/></linearGradient></defs><g class="cls-2"><g id="Ñëîé_1" data-name="Ñëîé 1"><rect class="cls-3" width="600" height="400" transform="translate(600 400) rotate(180)"/><rect class="cls-4" width="600" height="400" transform="translate(600 400) rotate(180)"/><path class="cls-5" d="M583.37,39.73a4.94,4.94,0,0,0-4.49,0c-.94.53-1.17,1.32-.7,2L508.66,81.86v50.67l-16.94,9.77v55.12l-58,33.5-9-5.22,44.74-25.83V169.65l-.18-.1-50.87-29.37V129.94l28.77-16.61a5,5,0,0,0,4.1-.19c1.24-.71,1.24-1.87,0-2.59a4.94,4.94,0,0,0-4.49,0c-1.12.65-1.22,1.65-.32,2.37l-28.77,16.61v11.06l.18.11,50.87,29.36v29.39L434.88,219V206.38l15.5-8.94a5,5,0,0,0,4.1-.19c1.24-.71,1.24-1.87,0-2.59a4.94,4.94,0,0,0-4.49,0c-1.12.65-1.22,1.65-.32,2.37L434.17,206v13.41L424,225.29l-12.09-7V196.38l22.8-13.16V168.06l-.18-.1-48-27.71c.9-.72.8-1.73-.32-2.37a4.94,4.94,0,0,0-4.49,0c-1.24.72-1.24,1.88,0,2.59a5,5,0,0,0,4.1.19L434,168.48v14.33l-22.09,12.75V180.45l-.18-.1-29.37-17c.9-.71.8-1.72-.32-2.36a4.94,4.94,0,0,0-4.49,0c-1.24.71-1.24,1.87,0,2.59a5,5,0,0,0,4.1.19l29.55,17.05v37l-8.5-4.9-14,8.08L376,213.75V196l-.18-.1-33.5-19.34V159.77a4.42,4.42,0,0,0,1.89-.52c1.24-.71,1.24-1.87,0-2.59a4.94,4.94,0,0,0-4.49,0c-1.24.72-1.24,1.88,0,2.59a4.42,4.42,0,0,0,1.89.52v17.17l.18.1,33.5,19.34v17l-54.53-31.48V148.49l29.57-17.07h27.13l.09,0,46.56-26.88a5,5,0,0,0,4.1-.19c1.24-.71,1.24-1.87,0-2.59a5,5,0,0,0-4.49,0c-1.12.65-1.22,1.65-.32,2.37l-46.13,26.63H351.56L437.1,81.32a5,5,0,0,0,4.1-.18,1.37,1.37,0,0,0,0-2.6,5,5,0,0,0-4.49,0c-1.12.65-1.22,1.65-.32,2.37L320,148.08v34.19l.18.11L388,221.48l-13.63,7.87L258.68,162.59V122.75l-.18-.1L219.18,99.94c.9-.71.8-1.72-.32-2.36a4.94,4.94,0,0,0-4.49,0c-1.24.71-1.24,1.87,0,2.59a5,5,0,0,0,4.1.18L258,123.16V163l.18.1,115.46,66.66-13,7.49-114.36-66h-68.2l-42.62-24.61V108.8a3.66,3.66,0,0,0,1.23-.43c1.24-.72,1.24-1.88,0-2.59a4.94,4.94,0,0,0-4.49,0c-1.24.71-1.24,1.87,0,2.59a4.76,4.76,0,0,0,2.55.52V147l.18.1,43,24.81h68.2l96.54,55.74H323.2l-32.95-19H264.87l-.08,0L229.59,229a5,5,0,0,0-4.1.19c-1.24.71-1.24,1.87,0,2.59a5,5,0,0,0,4.5,0c1.11-.65,1.21-1.65.31-2.37l34.77-20.06h25l32.95,19h20.84l16.07,9.27-34.64,20L315.43,252V237.05l-25-14.45c.89-.71.79-1.72-.32-2.36a5,5,0,0,0-4.5,0c-1.24.71-1.24,1.87,0,2.59a5,5,0,0,0,4.1.18l25,14.45v14.11L288,236.16H275.39l-.08.05-15.06,8.7a5,5,0,0,0-4.1.18c-1.24.72-1.24,1.88,0,2.59a4.94,4.94,0,0,0,4.49,0c1.12-.64,1.22-1.65.32-2.36l14.63-8.45h12.25l36.73,21.21-6.67,3.85,21.29,12.29-10,5.76H314.14l-10.79-6.23c.86-.72.75-1.7-.36-2.34a4.94,4.94,0,0,0-4.49,0c-1.24.72-1.24,1.88,0,2.59a5,5,0,0,0,4.15.16l11.3,6.53h14l-25.43,14.68-59.82-34.54H199.69l-.08.05-24.23,14a5,5,0,0,0-4.1.18,1.37,1.37,0,0,0,0,2.6,5,5,0,0,0,4.49,0c1.11-.65,1.21-1.65.32-2.37l23.79-13.74h42.67l46.14,26.64H268.94L249.63,277c.9-.71.8-1.72-.32-2.36a4.94,4.94,0,0,0-4.49,0c-1.24.71-1.24,1.87,0,2.59a5,5,0,0,0,4.1.18l19.83,11.45h21.17l11.93,6.89-30.37,17.53H174.41L99,269.78c.89-.72.79-1.72-.32-2.37a5,5,0,0,0-4.5,0c-1.24.72-1.24,1.88,0,2.59a5,5,0,0,0,4.1.19L174.22,314h96l-12.05,7H186.35l-.08,0-35.44,20.46a5,5,0,0,0-4.1.18c-1.24.72-1.24,1.88,0,2.59a4.94,4.94,0,0,0,4.49,0c1.12-.64,1.22-1.65.32-2.36l35-20.21h71.85l.08-.05,81.43-47,9,5.22-85.61,49.43H200.72l-.08,0L125,373H20.25L0,361.29v.82L20.06,373.7H125.21l.08-.05,47.46-27.4v16.22l-31.28,18.06a5,5,0,0,0-4.1.18c-1.24.72-1.24,1.88,0,2.59a4.94,4.94,0,0,0,4.49,0c1.12-.64,1.22-1.65.32-2.36l31.28-18.06V345.93h-.16L200.92,330h62.6l.08-.05,86-49.68,10.27,5.93L193,382.58V400h.71V383l167-96.39,12.69,7.33-86.13,49.72v8.89l-15.27,8.81V381.8l-29.61,17.1a5,5,0,0,0-4.1.18,1.87,1.87,0,0,0-.86.92h6.2a1.53,1.53,0,0,0-.53-.69l29.61-17.1V361.76l14.56-8.4V386.1l8.6,5L280.3,400h1.42l14.78-8.53L311.27,400h1.42L287.9,385.69V344.06L374,294.34,385.58,301l-60.95,35.19a5,5,0,0,0-4.1.19c-1.24.71-1.24,1.87,0,2.59a5,5,0,0,0,4.49,0c1.12-.65,1.22-1.65.32-2.37l61-35.19,11.15,6.44-72.91,42.09H304.72a1.88,1.88,0,0,0-.87-.94,5,5,0,0,0-4.49,0,1.37,1.37,0,0,0,0,2.6,5,5,0,0,0,4.49,0,1.86,1.86,0,0,0,.87-1h20l.09,0,73.34-42.35,4.5,2.6,3.47-2L423.58,319v14l-14.43,8.33v0H386.51l-.09,0-24.85,14.35a5,5,0,0,0-4.09.18,1.37,1.37,0,0,0,0,2.6,5,5,0,0,0,4.49,0c1.11-.65,1.21-1.65.32-2.37L386.7,342H408l-42.43,24.49a5,5,0,0,0-4.19.14,1.37,1.37,0,0,0,0,2.6,5,5,0,0,0,4.49,0c1.09-.63,1.22-1.61.39-2.32l52.92-30.55v6.75l-31.48,18.18v12.83l-25.63,14.8a5,5,0,0,0-4.1.19c-1.24.71-1.24,1.87,0,2.59a4.94,4.94,0,0,0,4.49,0c1.11-.65,1.21-1.65.32-2.37l25.63-14.8V361.69l31.48-18.18v-7.57l4.41-2.55V318.54l-17.46-10.09,11.48-6.63,35.94,20.76v23.59l-24.41,14.09a5,5,0,0,0-4.19.14c-1.24.72-1.24,1.88,0,2.59a4.94,4.94,0,0,0,4.49,0c1.1-.63,1.22-1.6.4-2.31L454.25,347V366l-18.74,10.82V400h.72V377.27l18-10.4V400H455V322.16L419,301.41,431.91,294l47,27.12v64.6l22.58,13V400h.71v-1.68l-22.58-13v-64.6l-47-27.12,9.55-5.51,63.4,36.6v55.11L540.62,400H542l-35.76-20.65V324.24l-63.4-36.61,15.48-8.93,105.49,60.9V367L600,387.89v-.82l-35.44-20.46V339.19l-59.33-34.26h46.92L600,332.56v-.82l-47.66-27.52H504l-44.92-25.93,18-10.39,38.61,22.29h62L600,303.07v-.82l-4.89-2.82H600v-.71h-6.12l-16-9.24h-62l-10.8-6.24h26.36l.08-.05,13.22-7.63h55.09l.18.1v-.81H546l14.89-8.6a5,5,0,0,0,4.1-.18c1.24-.72,1.24-1.88,0-2.59a4.94,4.94,0,0,0-4.49,0c-1.12.64-1.22,1.65-.32,2.36l-28.9,16.69h-27.4l-26.06-15,9.63-5.56-6.2-3.58h18l23.54,13.59c-.9.72-.8,1.72.32,2.37a5,5,0,0,0,4.49,0c1.24-.72,1.24-1.88,0-2.59a5,5,0,0,0-4.1-.19l-24.06-13.89H480L466.81,250l8.1-4.68h14.37l12.64-7.29h9.43l21.3,12.29c-1,.72-.88,1.75.26,2.41a5,5,0,0,0,4.49,0c1.24-.72,1.24-1.88,0-2.59a5,5,0,0,0-4-.22l-21.83-12.61h-9.81l-12.64,7.3H476.14l25.91-15h14l29.16,16.84H600v-.71H545.38L516.23,229H501.86l-.09.05-35.67,20.6-9.37-5.4,40.32-23.28h28.44l23.45,13.54H600v-.71H549.14l-22.23-12.83H600v-.71H496.86l-.08.05L456,243.8l-10.63-6.14,56.22-32.45H600v-.71H528.3L600,163.1v-.82l-73.12,42.21H502.12l53.31-30.78v-6.78l25.5-14.73A5,5,0,0,0,585,152a1.37,1.37,0,0,0,0-2.6,5,5,0,0,0-4.49,0c-1.12.65-1.22,1.65-.32,2.37l-13.89,8V141.23L600,121.8V121l-34.38,19.85v19.41l-10.9,6.3v6.78l-53.74,31,.18.31-56.48,32.6-10.27-5.92,58-33.5V142.71L600,80.61v-.82l-90.63,52.33V82.27l69.36-40,.15.1a5,5,0,0,0,4.49,0C584.61,41.6,584.61,40.44,583.37,39.73ZM486,261.93,402.65,310l-83.33-48.11,83.33-48.12Z" transform="translate(0 0)"/><path class="cls-6" d="M600,125.94l-14.81,8.56v27.55L453.59,238l-10-5.77,67.88-39.19v-7l12-6.95V163l23.34-13.48a4,4,0,0,0,3.23-.14,1.09,1.09,0,0,0,0-2,3.94,3.94,0,0,0-3.54,0c-.88.51-1,1.3-.26,1.87L523,162.67v16.12l-11.48,6.62v-25.8l-.14-.08-6.63-3.83,39.79-23V106.88l28.27-16.32a4,4,0,0,0,3.23-.14,1.08,1.08,0,0,0,0-2,3.94,3.94,0,0,0-3.54,0c-.88.51-1,1.31-.25,1.87l-28.27,16.32V132.4l-39.79,23L439.44,118V89.12a3.5,3.5,0,0,0,1.49-.41,1.08,1.08,0,0,0,0-2,3.88,3.88,0,0,0-3.54,0,1.08,1.08,0,0,0,0,2,3.58,3.58,0,0,0,1.49.41v29.22l.14.09,38.92,22.46H449.58l-22.93-13.24c.71-.56.63-1.35-.26-1.86a3.86,3.86,0,0,0-3.53,0,1.08,1.08,0,0,0,0,2,4,4,0,0,0,3.23.15l23.34,13.47h29.46l32,18.49v32.81L443,231.93l-9.1-5.25,48-27.74a4,4,0,0,0,3.23-.14,1.08,1.08,0,0,0,0-2.05,3.92,3.92,0,0,0-3.53,0c-.89.51-1,1.3-.26,1.87l-48,27.73-8.78-5.07L482,188.1h15.62a1.42,1.42,0,0,0,.68.75,3.94,3.94,0,0,0,3.54,0,1.08,1.08,0,0,0,0-2,3.94,3.94,0,0,0-3.54,0,1.44,1.44,0,0,0-.68.74H481.89l-.07,0L424,221l-3.54-2.05-.14.08-2.59,1.49L404,212.54V201.47l11.37-6.56v0h17.85l19.65-11.35a4,4,0,0,0,3.24-.14,1.09,1.09,0,0,0,0-2,3.94,3.94,0,0,0-3.54,0c-.89.51-1,1.3-.26,1.87L433,194.38H416.26l33.44-19.31A4,4,0,0,0,453,175a1.08,1.08,0,0,0,0-2.05,3.94,3.94,0,0,0-3.54,0c-.86.5-1,1.27-.3,1.83l-41.71,24.08V193.5l24.81-14.33V169.05l20.21-11.66a4,4,0,0,0,3.23-.15,1.08,1.08,0,0,0,0-2,3.94,3.94,0,0,0-3.54,0c-.88.51-1,1.3-.25,1.87L431.7,168.73v10.12l-24.81,14.32v6l-3.48,2v11.71l13.77,7.95L408.13,226,379.8,209.67V191.08L399,180a3.92,3.92,0,0,0,3.3-.11,1.08,1.08,0,0,0,0-2,3.88,3.88,0,0,0-3.54,0c-.86.5-1,1.26-.31,1.82L379.8,190.43v-15l14.77-8.52V138.63a3.31,3.31,0,0,0,1.49-.41,1.08,1.08,0,0,0,0-2,3.94,3.94,0,0,0-3.54,0,1.08,1.08,0,0,0,0,2,3.24,3.24,0,0,0,1.49.41v27.94l-14.2,8.2V124.94h-.56V210l28.33,16.36-10.16,5.86-37-21.38V159.93l-17.79-10.28V130.5l-15.72-9.07c.71-.57.63-1.36-.25-1.87a3.94,3.94,0,0,0-3.54,0,1.08,1.08,0,0,0,0,2,4,4,0,0,0,3.23.14L342,130.83V150l17.8,10.27v50.92l37,21.37-7.53,4.35-50-28.85V164.6l-.14-.08L295,139c.71-.56.63-1.35-.25-1.86a3.88,3.88,0,0,0-3.54,0,1.08,1.08,0,0,0,0,2,4,4,0,0,0,3.23.15l44.38,25.61v43.44l.14.09,49.83,28.77-12.2,7-83.15-48V174.64l-.14-.08-69.6-40.18c.71-.57.63-1.36-.25-1.87a3.94,3.94,0,0,0-3.54,0,1.08,1.08,0,0,0,0,2,4,4,0,0,0,3.23.15L292.85,175v21.61l.14.08,46.63,26.92h-37l-42.81-24.72c.71-.56.63-1.35-.25-1.86a3.88,3.88,0,0,0-3.54,0,1.08,1.08,0,0,0,0,2,4,4,0,0,0,3.23.15l43.22,24.95h38.11L376,244.58l-14.18,8.19L331.38,235.2H282.51l-55.58-32.09H196.09l-12.57-7.25c.71-.57.63-1.36-.25-1.87a3.94,3.94,0,0,0-3.54,0,1.08,1.08,0,0,0,0,2,4,4,0,0,0,3.23.15l13,7.49h30.84l42,24.25H232.5L215,217.83c.71-.56.63-1.35-.25-1.86a3.88,3.88,0,0,0-3.54,0,1.08,1.08,0,0,0,0,2,4,4,0,0,0,3.23.15l17.88,10.32h37.4l12.61,7.28h48.87l8.51,4.92H319l-.07,0-10.42,6H265.06l-12.24-7.07H228.26a1.51,1.51,0,0,0-.69-.74,3.94,3.94,0,0,0-3.54,0,1.08,1.08,0,0,0,0,2.05,3.94,3.94,0,0,0,3.54,0,1.52,1.52,0,0,0,.69-.75h24.41l12.24,7.07h42.6l-11.73,6.78a4,4,0,0,0-3.23.14,1.08,1.08,0,0,0,0,2,3.94,3.94,0,0,0,3.54,0c.88-.51,1-1.3.25-1.87l22.78-13.15h21.59l20.54,11.86-7.59,4.38.42.24,4.46,2.58H344.35l-18.56-10.72c.71-.56.63-1.35-.25-1.86a3.88,3.88,0,0,0-3.54,0,1.08,1.08,0,0,0,0,2,4,4,0,0,0,3.23.15l19,11h15.31l10.39,6-6.39,3.68H352.19l-.07,0-9.9,5.71h-7.43L318,266.6c.75-.57.69-1.38-.21-1.9a3.94,3.94,0,0,0-3.54,0,1.08,1.08,0,0,0,0,2.05,4,4,0,0,0,3.17.17l17.21,9.93h7.74l.06,0,9.9-5.72h10.2l-20.41,11.79h-11l-23-13.27h-69.3l-43-24.81c.74-.57.68-1.38-.22-1.89a3.88,3.88,0,0,0-3.54,0,1.08,1.08,0,0,0,0,2,4,4,0,0,0,3.19.17l43.41,25.05H308l23,13.27h11.33l.06,0,28.12-16.23,7.38,4.26-31.78,18.35H323.65l-18.49-10.68H257.71a1.51,1.51,0,0,0-.69-.74,3.88,3.88,0,0,0-3.54,0,1.08,1.08,0,0,0,0,2,3.88,3.88,0,0,0,3.54,0,1.44,1.44,0,0,0,.68-.74H305l17.52,10.12H255.66l-.07,0-63.72,36.8a4,4,0,0,0-3.23.14,1.08,1.08,0,0,0,0,2,3.88,3.88,0,0,0,3.54,0c.88-.5,1-1.3.25-1.86l63.38-36.59h90.4l.07,0,32.12-18.55,8.38,4.84-44.31,25.59h-78l-.07,0-68.32,39.45H116.45L70,314.87c.71-.57.63-1.36-.25-1.87a3.94,3.94,0,0,0-3.54,0,1.08,1.08,0,0,0,0,2,4,4,0,0,0,3.23.15l46.84,27h79.91l.06,0,68.33-39.44h56.83L238,350.93v12.68l-33.29,19.22a4,4,0,0,0-3.23.15,1.08,1.08,0,0,0,0,2,3.94,3.94,0,0,0,3.54,0c.88-.51,1-1.3.25-1.87l33.29-19.21V351.25l84-48.5h19.51l-42,24.25v5.35L280,344a4,4,0,0,0-3.23.15,1.08,1.08,0,0,0,0,2,3.88,3.88,0,0,0,3.54,0c.88-.51,1-1.3.25-1.86L291.45,338v14.65l-63.23,36.51a4,4,0,0,0-3.23.14,1.08,1.08,0,0,0,0,2.05,3.94,3.94,0,0,0,3.54,0c.88-.51,1-1.3.25-1.87L292,352.93V337.64l8.6-5v-5.34L343,302.87l-.14-.24,44.51-25.7,8.1,4.67L349.71,308v43.44L265.6,400h1.12l69.64-40.2v39.28l-1.58.92h1.12l1-.59V359.47l13.35-7.71V308.32L396,281.92l7.12,4.11-35.26,20.36v23.82l.14.08,40.09,23.15v8.07L385.42,374.6a4,4,0,0,0-3.23.15,1.08,1.08,0,0,0,0,2,3.88,3.88,0,0,0,3.54,0c.88-.51,1-1.3.25-1.86l22.67-13.09v-8.73l-.14-.08-40.09-23.15V306.72l26.64-15.38v9.92l-12.21,7.05a4,4,0,0,0-3.23.14,1.08,1.08,0,0,0,0,2.05,3.94,3.94,0,0,0,3.54,0c.88-.51,1-1.3.25-1.87l12.21-7.05V291l8.06-4.65,9.53,5.5v17.28l-18,10.37v11.95l.14.08,37.83,21.85c-.7.56-.62,1.35.26,1.86a3.88,3.88,0,0,0,3.54,0,1.08,1.08,0,0,0,0-2,4,4,0,0,0-3.23-.15l-38-21.92v-11.3l17.41-10v11.9l23.29,13.45c-.71.57-.63,1.36.25,1.87a3.94,3.94,0,0,0,3.54,0,1.08,1.08,0,0,0,0-2.05,4,4,0,0,0-3.23-.14l-23.29-13.45V292.18l6.7,3.87.14-.08,10.88-6.29,10,5.77v14L468,324.79V338a3.27,3.27,0,0,0-1.49.41,1.08,1.08,0,0,0,0,2,3.94,3.94,0,0,0,3.54,0,1.08,1.08,0,0,0,0-2,3.31,3.31,0,0,0-1.49-.41V324.46L442,309.14V295.77l43,24.81v26.3l-23.31,13.46H440.32l-.06,0-36.71,21.19a4,4,0,0,0-3.23.15,1.08,1.08,0,0,0,0,2,3.94,3.94,0,0,0,3.54,0c.88-.51,1-1.3.25-1.87l36.36-21h20.27l-67.43,38.93a4,4,0,0,0-3.23.15l0,0h4.09l91.44-52.79V320.26l-.14-.08-53.39-30.82,10.75-6.21,91.14,52.63v31.4l31.14,18c-.71.57-.63,1.36.25,1.87a3.94,3.94,0,0,0,3.54,0,1.08,1.08,0,0,0,0-2,4,4,0,0,0-3.23-.14l-31.14-18v-31.4l-.14-.08-91-52.54,10.23-5.9,90.13,52h53.76l2.52,1.46v-.65l-2.37-1.37H543.87l-76.08-43.93h15.3l26,15h20l.07,0,27.74-16a4,4,0,0,0,3.23-.14,1.08,1.08,0,0,0,0-2,3.94,3.94,0,0,0-3.54,0c-.88.51-1,1.3-.25,1.87l-27.4,15.82h-19.7l-26-15H466.82l-12.67-7.31,27.3-15.76,7.77,4.48v11.77l19.72,11.38c-.71.57-.63,1.36.25,1.87a3.94,3.94,0,0,0,3.54,0,1.08,1.08,0,0,0,0-2,4,4,0,0,0-3.23-.14l-19.72-11.39V265.64l21,12.15h10l.07,0,11.87-6.86a4,4,0,0,0,3.23-.14,1.08,1.08,0,0,0,0-2.05,3.94,3.94,0,0,0-3.54,0c-.88.51-1,1.31-.25,1.87l-11.53,6.66H511L482,260.51l5.26-3-.42-.25-16.36-9.44,7.86-4.54h11.88l8.5,4.91c-.67.56-.58,1.34.29,1.84a3.88,3.88,0,0,0,3.54,0,1.08,1.08,0,0,0,0-2,4,4,0,0,0-3.27-.13l-8.91-5.14H479.32l20-11.57,47.15,27.22h33.93l.06,0,19.1-11c.13.05.27.07.4.11v-2.58a3.1,3.1,0,0,0-.7.28c-.89.51-1,1.3-.26,1.86l-18.75,10.83H546.66l-36.36-21h15.56l15.21,8.78c-.7.57-.63,1.36.26,1.87a3.94,3.94,0,0,0,3.54,0,1.09,1.09,0,0,0,0-2.05,4,4,0,0,0-3.23-.14l-15.63-9H509.32l-9.4-5.43L523.86,217H600v-.57H524.83l9.49-5.49H591l.06,0,9-5.19v-.65l-9.19,5.31H534.17l-.06,0-64.18,37.05-7.13-4.11,67.48-39h49.35l.06,0L600,192.63V192l-20.53,11.85H530.13l-.07,0L462.24,243l-8.09-4.68,131.6-76V134.82L600,126.59ZM486.15,257.48,420.47,295.4l-65.69-37.92,65.69-37.92Z" transform="translate(0 0)"/><g class="cls-7"><polygon class="cls-3" points="403.65 366.92 234.86 269.46 403.65 172.01 572.44 269.47 403.65 366.92"/></g><g class="cls-7"><polygon class="cls-3" points="403.65 351.8 261.04 269.46 403.65 187.13 546.26 269.47 403.65 351.8"/></g><g class="cls-8"><polygon class="cls-9" points="403.65 334.24 291.45 269.46 403.65 204.69 515.85 269.47 403.65 334.24"/></g><path class="cls-10" d="M426.74,336.34a6.18,6.18,0,0,1-3-.77L289.76,258.24a2.51,2.51,0,0,1-1.45-2,1.94,1.94,0,0,1,1.1-1.66l79.93-46.15a5.94,5.94,0,0,1,5.43.21l133.94,77.33a2.49,2.49,0,0,1,1.45,2,2,2,0,0,1-1.09,1.66l-79.93,46.15A5,5,0,0,1,426.74,336.34Zm-136.5-78.93,133.94,77.33a5.08,5.08,0,0,0,4.48.21l79.93-46.15a1.06,1.06,0,0,0,.62-.83c0-.4-.37-.85-1-1.2L374.29,209.44a5.08,5.08,0,0,0-4.48-.21l-79.93,46.15a1.06,1.06,0,0,0-.62.83c0,.4.37.85,1,1.2Z" transform="translate(0 0)"/><path class="cls-11" d="M374.72,184.91,391.65,84.46l-1.36-.58,2-1.17h0a1.48,1.48,0,0,1,1.58.11L529.23,161A3.81,3.81,0,0,1,531,164.4L513.92,265.65a1.26,1.26,0,0,1-.71,1h0l-2,1.16-.35-1.87.12,0L376.47,188.35A3.81,3.81,0,0,1,374.72,184.91Z" transform="translate(0 0)"/><path class="cls-12" d="M528.47,163.71l2.23-1a3,3,0,0,1,.28,1.68L513.92,265.65a1.26,1.26,0,0,1-.71,1h0l-2,1.16-.35-1.87.12,0-6.81-3.93Z" transform="translate(0 0)"/><path class="cls-13" d="M374.35,189.57l135.32,78.12c1.05.61,1.94.26,2.13-.82l17.06-101.26a3.78,3.78,0,0,0-1.76-3.43L391.78,84.05c-1-.6-1.94-.26-2.12.83L372.59,186.13A3.84,3.84,0,0,0,374.35,189.57Z" transform="translate(0 0)"/><g class="cls-14"><polygon class="cls-15" points="391.33 85.93 527.29 164.39 510.12 265.9 374.25 187.5 391.33 85.93"/></g><path class="cls-16" d="M289.29,237.5l7.38,3.86,74.05-42.75a5.36,5.36,0,0,1,4.84.2l127.71,73.74c1.23-.69,6.8-3.37,6.8-3.37l-2.7,4.4h0a1.71,1.71,0,0,1-.76.84l-78,45a5.34,5.34,0,0,1-4.83-.2l-130.7-75.45a2.33,2.33,0,0,1-1.1-1.17h0Z" transform="translate(0 0)"/><path class="cls-17" d="M290.43,238.72l133.94,77.33a5.52,5.52,0,0,0,5,.21l79.93-46.15c1.27-.73,1.11-2-.36-2.86L375,189.92a5.52,5.52,0,0,0-5-.21l-79.93,46.15C288.8,236.59,289,237.87,290.43,238.72Z" transform="translate(0 0)"/><path class="cls-18" d="M290.43,238.12l133.94,77.33a5.52,5.52,0,0,0,5,.21l79.93-46.15a1.58,1.58,0,0,0,.8-.94,1.36,1.36,0,0,1-.8,1.54l-79.93,46.15a5.52,5.52,0,0,1-5-.21L290.43,238.72c-.95-.55-1.34-1.28-1.16-1.92A2.3,2.3,0,0,0,290.43,238.12Z" transform="translate(0 0)"/><g class="cls-19"><g class="cls-20"><path class="cls-21" d="M374.19,188.92l7.38,3.85L455.62,150a5.34,5.34,0,0,1,4.83.2L588.17,224c1.22-.69,6.8-3.37,6.8-3.37l-2.71,4.4h0a1.64,1.64,0,0,1-.75.84l-78,45a5.36,5.36,0,0,1-4.84-.2L378,195.19a2.33,2.33,0,0,1-1.1-1.17h0Z" transform="translate(0 0)"/><path class="cls-22" d="M375.33,190.13l133.94,77.33a5.52,5.52,0,0,0,5,.21l79.93-46.15c1.27-.73,1.11-2-.36-2.86L459.86,141.33a5.52,5.52,0,0,0-5-.21L375,187.27C373.7,188,373.86,189.28,375.33,190.13Z" transform="translate(0 0)"/><path class="cls-18" d="M593.8,218.66,459.86,141.33a5.82,5.82,0,0,0-3.31-.68,5.64,5.64,0,0,1,2.32.68l133.94,77.33c1.47.85,1.63,2.13.36,2.86l-79.93,46.15a4.14,4.14,0,0,1-1.64.47,4.73,4.73,0,0,0,2.63-.47l79.93-46.15C595.43,220.79,595.27,219.51,593.8,218.66Z" transform="translate(0 0)"/><g class="cls-23"><path class="cls-13" d="M445.49,176.82l-4.3-2.48a1.42,1.42,0,0,0-1.3,0l-4.77,2.79c-.38.22-.4.56-.05.76l4.29,2.48a1.42,1.42,0,0,0,1.3,0l4.77-2.79C445.81,177.35,445.83,177,445.49,176.82Z" transform="translate(0 0)"/><path class="cls-13" d="M452.12,180.64l-4.3-2.47a1.42,1.42,0,0,0-1.3,0L441.75,181c-.37.22-.4.56-.05.76l4.29,2.48a1.45,1.45,0,0,0,1.3,0l4.77-2.79C452.44,181.18,452.46,180.84,452.12,180.64Z" transform="translate(0 0)"/><path class="cls-13" d="M458.75,184.47,454.46,182a1.44,1.44,0,0,0-1.31,0l-4.77,2.79c-.37.22-.4.56-.05.75l4.29,2.48a1.42,1.42,0,0,0,1.3,0l4.77-2.79C459.07,185,459.09,184.67,458.75,184.47Z" transform="translate(0 0)"/><path class="cls-13" d="M453.7,189.57l-4.29-2.48a1.47,1.47,0,0,0-1.31,0l-4,2.35c-.38.21-.4.55-.06.75l4.3,2.48a1.42,1.42,0,0,0,1.3,0l4-2.34C454,190.11,454.05,189.77,453.7,189.57Z" transform="translate(0 0)"/><path class="cls-13" d="M460.33,193.4,456,190.92a1.42,1.42,0,0,0-1.3,0l-4,2.34c-.38.22-.4.56-.06.76l4.3,2.48a1.42,1.42,0,0,0,1.3,0l4-2.34C460.65,193.93,460.68,193.59,460.33,193.4Z" transform="translate(0 0)"/><path class="cls-13" d="M467,197.22l-4.29-2.47a1.42,1.42,0,0,0-1.3,0l-4,2.34c-.37.22-.4.56-.05.76l4.29,2.48a1.42,1.42,0,0,0,1.3,0l4-2.34C467.28,197.76,467.31,197.42,467,197.22Z" transform="translate(0 0)"/><path class="cls-13" d="M473.59,201.05l-4.29-2.48a1.42,1.42,0,0,0-1.3,0L464,201c-.37.22-.4.56-.05.76l4.29,2.48a1.45,1.45,0,0,0,1.3,0l4-2.34C473.91,201.59,473.94,201.25,473.59,201.05Z" transform="translate(0 0)"/><path class="cls-13" d="M480.22,204.88l-4.29-2.48a1.42,1.42,0,0,0-1.3,0l-4,2.34c-.37.22-.4.56-.05.75l4.29,2.48a1.42,1.42,0,0,0,1.3,0l4-2.34C480.54,205.42,480.57,205.08,480.22,204.88Z" transform="translate(0 0)"/><path class="cls-13" d="M486.85,208.71l-4.29-2.48a1.42,1.42,0,0,0-1.3,0l-4,2.34c-.37.21-.4.55-.05.75l4.29,2.48a1.45,1.45,0,0,0,1.3,0l4-2.34C487.17,209.25,487.2,208.91,486.85,208.71Z" transform="translate(0 0)"/><path class="cls-13" d="M493.48,212.54l-4.29-2.48a1.42,1.42,0,0,0-1.3,0l-4,2.34c-.37.22-.4.56-.05.76l4.29,2.48a1.42,1.42,0,0,0,1.3,0l4-2.34C493.8,213.07,493.83,212.74,493.48,212.54Z" transform="translate(0 0)"/><path class="cls-13" d="M500.11,216.36l-4.29-2.47a1.42,1.42,0,0,0-1.3,0l-4,2.34c-.37.22-.4.56-.05.76l4.29,2.48a1.42,1.42,0,0,0,1.3,0l4-2.34C500.44,216.9,500.46,216.56,500.11,216.36Z" transform="translate(0 0)"/><path class="cls-13" d="M506.75,220.19l-4.3-2.48a1.42,1.42,0,0,0-1.3,0l-4,2.34c-.37.22-.4.56-.05.76l4.29,2.48a1.44,1.44,0,0,0,1.31,0l4-2.34C507.07,220.73,507.09,220.39,506.75,220.19Z" transform="translate(0 0)"/><path class="cls-13" d="M513.38,224l-4.3-2.48a1.42,1.42,0,0,0-1.3,0l-4,2.34c-.37.22-.4.56,0,.76l4.29,2.47a1.44,1.44,0,0,0,1.31,0l4-2.34C513.7,224.56,513.72,224.22,513.38,224Z" transform="translate(0 0)"/><path class="cls-13" d="M450.94,195l-4.29-2.48a1.44,1.44,0,0,0-1.31,0l-4,2.34c-.38.22-.4.56-.06.76l4.3,2.48a1.46,1.46,0,0,0,1.3,0l4-2.34C451.26,195.57,451.28,195.23,450.94,195Z" transform="translate(0 0)"/><path class="cls-13" d="M444.21,191.15l-4.29-2.48a1.47,1.47,0,0,0-1.31,0l-4,2.34c-.38.22-.4.56-.06.76l4.3,2.48a1.42,1.42,0,0,0,1.3,0l4-2.34C444.53,191.69,444.55,191.35,444.21,191.15Z" transform="translate(0 0)"/><path class="cls-13" d="M437.47,187.26l-9.25-5.34a1.42,1.42,0,0,0-1.3,0l-4,2.34c-.37.22-.4.56-.05.76l9.25,5.34a1.42,1.42,0,0,0,1.3,0l4-2.34C437.79,187.79,437.81,187.45,437.47,187.26Z" transform="translate(0 0)"/><path class="cls-13" d="M429.65,189.8l-7.51-4.33a1.42,1.42,0,0,0-1.3,0l-4,2.34c-.38.22-.4.56-.06.76l7.51,4.33a1.42,1.42,0,0,0,1.3,0l4-2.34C430,190.34,430,190,429.65,189.8Z" transform="translate(0 0)"/><path class="cls-13" d="M457.57,198.86l-4.29-2.48a1.44,1.44,0,0,0-1.31,0l-4,2.34c-.38.22-.4.56-.06.75l4.3,2.48a1.42,1.42,0,0,0,1.3,0l4-2.34C457.89,199.4,457.91,199.06,457.57,198.86Z" transform="translate(0 0)"/><path class="cls-13" d="M464.2,202.69l-4.29-2.48a1.44,1.44,0,0,0-1.31,0l-4,2.34c-.38.22-.4.55-.06.75l4.3,2.48a1.45,1.45,0,0,0,1.3,0l4-2.34C464.52,203.23,464.54,202.89,464.2,202.69Z" transform="translate(0 0)"/><path class="cls-13" d="M470.83,206.52,466.54,204a1.47,1.47,0,0,0-1.31,0l-4,2.34c-.38.22-.4.56-.06.76l4.3,2.48a1.42,1.42,0,0,0,1.3,0l4-2.34C471.15,207.05,471.18,206.72,470.83,206.52Z" transform="translate(0 0)"/><path class="cls-13" d="M477.46,210.34l-4.29-2.47a1.44,1.44,0,0,0-1.31,0l-4,2.34c-.38.22-.4.56-.06.76l4.3,2.48a1.42,1.42,0,0,0,1.3,0l4-2.34C477.78,210.88,477.81,210.54,477.46,210.34Z" transform="translate(0 0)"/><path class="cls-13" d="M484.09,214.17l-4.29-2.48a1.45,1.45,0,0,0-1.3,0l-4,2.34c-.38.22-.4.56-.06.76l4.3,2.48a1.42,1.42,0,0,0,1.3,0l4-2.34C484.41,214.71,484.44,214.37,484.09,214.17Z" transform="translate(0 0)"/><path class="cls-13" d="M490.72,218l-4.29-2.48a1.42,1.42,0,0,0-1.3,0l-4,2.34c-.37.22-.4.56-.05.76l4.29,2.47a1.42,1.42,0,0,0,1.3,0l4-2.34C491,218.54,491.07,218.2,490.72,218Z" transform="translate(0 0)"/><path class="cls-13" d="M497.35,221.83l-4.29-2.48a1.42,1.42,0,0,0-1.3,0l-4,2.34c-.37.22-.4.55-.05.75L492,225a1.42,1.42,0,0,0,1.3,0l4-2.34C497.67,222.37,497.7,222,497.35,221.83Z" transform="translate(0 0)"/><path class="cls-13" d="M504,225.66l-4.29-2.48a1.45,1.45,0,0,0-1.3,0l-4,2.35c-.37.21-.4.55-.05.75l4.29,2.48a1.42,1.42,0,0,0,1.3,0l4-2.34C504.3,226.2,504.33,225.86,504,225.66Z" transform="translate(0 0)"/><path class="cls-13" d="M510.61,229.49,506.32,227a1.42,1.42,0,0,0-1.3,0l-4,2.34c-.37.22-.4.56-.05.76l4.29,2.48a1.42,1.42,0,0,0,1.3,0l4-2.34C510.93,230,511,229.68,510.61,229.49Z" transform="translate(0 0)"/><path class="cls-13" d="M522.4,236.29,513,230.88a1.42,1.42,0,0,0-1.3,0l-4,2.34c-.37.22-.39.56-.05.76l9.37,5.4a1.42,1.42,0,0,0,1.3,0l4-2.34C522.72,236.83,522.75,236.49,522.4,236.29Z" transform="translate(0 0)"/><path class="cls-13" d="M510.25,243.39l-7.91-4.56a1.42,1.42,0,0,0-1.3,0l-4,2.34c-.37.22-.4.56,0,.76l7.9,4.57a1.48,1.48,0,0,0,1.31,0l4-2.34C510.57,243.93,510.59,243.59,510.25,243.39Z" transform="translate(0 0)"/><path class="cls-13" d="M456.65,205.39l-4.29-2.48a1.44,1.44,0,0,0-1.31,0l-4,2.34c-.38.22-.4.55-.06.75l4.3,2.48a1.45,1.45,0,0,0,1.3,0l4-2.34C457,205.93,457,205.59,456.65,205.39Z" transform="translate(0 0)"/><path class="cls-13" d="M449.85,201.47,445.56,199a1.42,1.42,0,0,0-1.3,0l-4,2.34c-.37.22-.4.56-.05.76l4.29,2.48a1.42,1.42,0,0,0,1.3,0l4-2.34C450.17,202,450.2,201.66,449.85,201.47Z" transform="translate(0 0)"/><path class="cls-13" d="M443.06,197.54l-4.3-2.48a1.42,1.42,0,0,0-1.3,0l-4,2.34c-.38.22-.4.56-.06.76l4.29,2.48a1.48,1.48,0,0,0,1.31,0l4-2.34C443.38,198.08,443.4,197.74,443.06,197.54Z" transform="translate(0 0)"/><path class="cls-13" d="M436.26,193.62,432,191.14a1.42,1.42,0,0,0-1.3,0l-4,2.34c-.37.22-.4.55-.05.75l4.29,2.48a1.45,1.45,0,0,0,1.3,0l4-2.34C436.58,194.16,436.61,193.82,436.26,193.62Z" transform="translate(0 0)"/><path class="cls-13" d="M463.28,209.22,459,206.74a1.47,1.47,0,0,0-1.31,0l-4,2.34c-.38.22-.4.56-.06.76l4.3,2.48a1.42,1.42,0,0,0,1.3,0l4-2.34C463.6,209.75,463.62,209.42,463.28,209.22Z" transform="translate(0 0)"/><path class="cls-13" d="M469.91,213l-4.29-2.47a1.44,1.44,0,0,0-1.31,0l-4,2.34c-.38.22-.4.56-.06.76l4.3,2.48a1.42,1.42,0,0,0,1.3,0l4-2.34C470.23,213.58,470.25,213.24,469.91,213Z" transform="translate(0 0)"/><path class="cls-13" d="M476.54,216.87l-4.29-2.48a1.48,1.48,0,0,0-1.31,0l-4,2.34c-.38.22-.4.56-.06.76l4.3,2.48a1.42,1.42,0,0,0,1.3,0l4-2.34C476.86,217.41,476.89,217.07,476.54,216.87Z" transform="translate(0 0)"/><path class="cls-13" d="M483.17,220.7l-4.29-2.48a1.44,1.44,0,0,0-1.31,0l-4,2.34c-.38.22-.4.56-.06.76l4.3,2.47a1.42,1.42,0,0,0,1.3,0l4-2.34C483.49,221.24,483.52,220.9,483.17,220.7Z" transform="translate(0 0)"/><path class="cls-13" d="M489.8,224.53l-4.29-2.48a1.42,1.42,0,0,0-1.3,0l-4,2.34c-.38.22-.4.55-.05.75l4.29,2.48a1.42,1.42,0,0,0,1.3,0l4-2.34C490.12,225.07,490.15,224.73,489.8,224.53Z" transform="translate(0 0)"/><path class="cls-13" d="M496.43,228.36l-4.29-2.48a1.45,1.45,0,0,0-1.3,0l-4,2.34c-.37.22-.4.56-.05.76l4.29,2.48a1.42,1.42,0,0,0,1.3,0l4-2.34C496.75,228.9,496.78,228.56,496.43,228.36Z" transform="translate(0 0)"/><path class="cls-13" d="M503.06,232.19l-4.29-2.48a1.42,1.42,0,0,0-1.3,0l-4,2.34c-.37.22-.4.56,0,.76l4.29,2.48a1.42,1.42,0,0,0,1.3,0l4-2.34C503.38,232.72,503.41,232.38,503.06,232.19Z" transform="translate(0 0)"/><path class="cls-13" d="M509.69,236l-4.29-2.48a1.45,1.45,0,0,0-1.3,0l-4,2.34c-.37.22-.4.56,0,.76l4.29,2.48a1.42,1.42,0,0,0,1.3,0l4-2.34C510,236.55,510,236.21,509.69,236Z" transform="translate(0 0)"/><path class="cls-13" d="M516.32,239.84,512,237.36a1.42,1.42,0,0,0-1.3,0l-4,2.34c-.37.22-.4.56-.05.76L511,243a1.45,1.45,0,0,0,1.3,0l4-2.34C516.64,240.38,516.67,240,516.32,239.84Z" transform="translate(0 0)"/><path class="cls-13" d="M440.63,203.2l-4.3-2.48a1.45,1.45,0,0,0-1.3,0l-4,2.34c-.37.22-.4.56,0,.76l4.29,2.48a1.44,1.44,0,0,0,1.31,0l4-2.34C441,203.73,441,203.4,440.63,203.2Z" transform="translate(0 0)"/><path class="cls-13" d="M434,199.39l-4.3-2.48a1.42,1.42,0,0,0-1.3,0l-4,2.34c-.38.21-.4.55-.06.75l4.3,2.48a1.45,1.45,0,0,0,1.3,0l4-2.35C434.35,199.93,434.37,199.59,434,199.39Z" transform="translate(0 0)"/><path class="cls-13" d="M427.43,195.58l-4.29-2.48a1.44,1.44,0,0,0-1.31,0l-4,2.34c-.38.22-.4.55-.06.75l4.3,2.48a1.45,1.45,0,0,0,1.3,0l4-2.34C427.75,196.12,427.78,195.78,427.43,195.58Z" transform="translate(0 0)"/><path class="cls-13" d="M420.83,191.77l-4.29-2.48a1.42,1.42,0,0,0-1.3,0l-4,2.34c-.37.22-.4.56-.05.75l4.29,2.48a1.42,1.42,0,0,0,1.3,0l4-2.34C421.15,192.31,421.18,192,420.83,191.77Z" transform="translate(0 0)"/><path class="cls-13" d="M414.45,195.5l-4.3-2.48a1.42,1.42,0,0,0-1.3,0l-1.33.77c-.37.22-.39.56,0,.76l4.29,2.48a1.44,1.44,0,0,0,1.31,0l1.32-.77C414.77,196,414.79,195.7,414.45,195.5Z" transform="translate(0 0)"/><path class="cls-13" d="M423.05,200.47,418.76,198a1.42,1.42,0,0,0-1.3,0l-1.33.77c-.37.22-.39.56-.05.76l4.29,2.48a1.44,1.44,0,0,0,1.31,0l1.32-.77C423.38,201,423.4,200.67,423.05,200.47Z" transform="translate(0 0)"/><path class="cls-13" d="M429.62,204.27l-4.29-2.48a1.42,1.42,0,0,0-1.3,0l-1.33.78c-.37.22-.39.55-.05.75l4.29,2.48a1.44,1.44,0,0,0,1.31,0l1.32-.78C430,204.8,430,204.47,429.62,204.27Z" transform="translate(0 0)"/><path class="cls-13" d="M436.19,208.06l-4.29-2.48a1.42,1.42,0,0,0-1.3,0l-1.33.77c-.37.22-.39.56,0,.76l4.29,2.48a1.48,1.48,0,0,0,1.31,0l1.32-.77C436.52,208.6,436.54,208.26,436.19,208.06Z" transform="translate(0 0)"/><path class="cls-13" d="M442.77,211.85l-4.3-2.48a1.42,1.42,0,0,0-1.3,0l-1.33.77c-.37.22-.39.56,0,.76l4.29,2.48a1.44,1.44,0,0,0,1.31,0l1.32-.77C443.09,212.39,443.11,212.05,442.77,211.85Z" transform="translate(0 0)"/><path class="cls-13" d="M479.44,233l-4.29-2.48a1.42,1.42,0,0,0-1.3,0l-1.33.77c-.37.22-.4.56,0,.76l4.29,2.48a1.44,1.44,0,0,0,1.31,0l1.32-.77C479.76,233.57,479.79,233.23,479.44,233Z" transform="translate(0 0)"/><path class="cls-13" d="M486,236.82l-4.29-2.48a1.42,1.42,0,0,0-1.3,0l-1.33.77c-.37.22-.4.56,0,.76l4.29,2.48a1.44,1.44,0,0,0,1.31,0l1.32-.77C486.33,237.36,486.36,237,486,236.82Z" transform="translate(0 0)"/><path class="cls-13" d="M492.58,240.62l-4.29-2.48a1.42,1.42,0,0,0-1.3,0l-1.33.78c-.37.22-.4.55-.05.75l4.29,2.48a1.44,1.44,0,0,0,1.31,0l1.32-.78C492.91,241.15,492.93,240.81,492.58,240.62Z" transform="translate(0 0)"/><path class="cls-13" d="M499.15,244.41l-4.29-2.48a1.42,1.42,0,0,0-1.3,0l-1.33.77c-.37.22-.4.56-.05.76l4.29,2.48a1.48,1.48,0,0,0,1.31,0l1.32-.77C499.48,245,499.5,244.61,499.15,244.41Z" transform="translate(0 0)"/><path class="cls-13" d="M447.26,207l-4.3-2.48a1.42,1.42,0,0,0-1.3,0l-4,2.34c-.37.22-.4.56,0,.76l4.29,2.48a1.44,1.44,0,0,0,1.31,0l4-2.34C447.58,207.56,447.6,207.22,447.26,207Z" transform="translate(0 0)"/><path class="cls-13" d="M453.89,210.85l-4.3-2.48a1.46,1.46,0,0,0-1.3,0l-4,2.34c-.37.22-.39.56,0,.76l4.29,2.48a1.44,1.44,0,0,0,1.31,0l4-2.34C454.21,211.39,454.23,211.05,453.89,210.85Z" transform="translate(0 0)"/><path class="cls-13" d="M460.52,214.68l-4.3-2.48a1.42,1.42,0,0,0-1.3,0l-4,2.34c-.38.22-.4.56-.06.76l4.29,2.47a1.44,1.44,0,0,0,1.31,0l4-2.34C460.84,215.22,460.86,214.88,460.52,214.68Z" transform="translate(0 0)"/><path class="cls-13" d="M467.15,218.51l-4.3-2.48a1.42,1.42,0,0,0-1.3,0l-4,2.34c-.38.22-.4.56-.06.75l4.29,2.48a1.44,1.44,0,0,0,1.31,0l4-2.34C467.47,219.05,467.49,218.71,467.15,218.51Z" transform="translate(0 0)"/><path class="cls-13" d="M473.78,222.34l-4.3-2.48a1.45,1.45,0,0,0-1.3,0l-4,2.35c-.38.21-.4.55-.06.75l4.3,2.48a1.42,1.42,0,0,0,1.3,0l4-2.34C474.1,222.88,474.12,222.54,473.78,222.34Z" transform="translate(0 0)"/><path class="cls-13" d="M480.41,226.17l-4.29-2.48a1.44,1.44,0,0,0-1.31,0l-4,2.34c-.38.22-.4.56-.06.76l4.3,2.48a1.42,1.42,0,0,0,1.3,0l4-2.34C480.73,226.7,480.75,226.36,480.41,226.17Z" transform="translate(0 0)"/><path class="cls-13" d="M487,230l-4.29-2.47a1.44,1.44,0,0,0-1.31,0l-4,2.34c-.38.22-.4.56-.06.76l4.3,2.48a1.42,1.42,0,0,0,1.3,0l4-2.34C487.36,230.53,487.38,230.19,487,230Z" transform="translate(0 0)"/><path class="cls-13" d="M493.67,233.82l-4.29-2.48a1.44,1.44,0,0,0-1.31,0l-4,2.34c-.38.22-.4.56-.06.76l4.3,2.48a1.46,1.46,0,0,0,1.3,0l4-2.34C494,234.36,494,234,493.67,233.82Z" transform="translate(0 0)"/><path class="cls-13" d="M500.3,237.65,496,235.17a1.44,1.44,0,0,0-1.31,0l-4,2.34c-.38.22-.4.56-.06.75l4.3,2.48a1.42,1.42,0,0,0,1.3,0l4-2.34C500.62,238.19,500.65,237.85,500.3,237.65Z" transform="translate(0 0)"/><path class="cls-13" d="M446.94,185.67l-12.64-7.3a1.42,1.42,0,0,0-1.3,0l-4,2.34c-.37.22-.4.56-.05.76l12.64,7.3a1.42,1.42,0,0,0,1.3,0l4-2.34C447.26,186.2,447.29,185.87,446.94,185.67Z" transform="translate(0 0)"/><path class="cls-13" d="M528.4,232.7l-12.64-7.3a1.44,1.44,0,0,0-1.31,0l-4,2.34c-.38.22-.4.56-.06.76l12.65,7.3a1.42,1.42,0,0,0,1.3,0l4-2.34C528.72,233.23,528.75,232.9,528.4,232.7Z" transform="translate(0 0)"/><path class="cls-13" d="M516.1,217.59l-4.29-2.48a1.42,1.42,0,0,0-1.3,0l-4.77,2.79c-.38.22-.4.56-.06.76l4.29,2.48a1.44,1.44,0,0,0,1.31,0l4.77-2.79C516.42,218.12,516.45,217.79,516.1,217.59Z" transform="translate(0 0)"/><path class="cls-13" d="M468,189.79l-6.86-4a1.44,1.44,0,0,0-1.31,0L455,188.65c-.37.21-.4.55-.05.75l6.86,4a1.44,1.44,0,0,0,1.31,0l4.77-2.79C468.27,190.32,468.3,190,468,189.79Z" transform="translate(0 0)"/><path class="cls-13" d="M509.72,213.9l-6.87-4a1.42,1.42,0,0,0-1.3,0l-4.78,2.79c-.37.22-.4.56,0,.75l6.87,4a1.42,1.42,0,0,0,1.3,0l4.77-2.79C510,214.44,510.06,214.1,509.72,213.9Z" transform="translate(0 0)"/><path class="cls-13" d="M477.52,195.31l-6.87-4a1.42,1.42,0,0,0-1.3,0l-4.77,2.79c-.38.22-.4.56-.06.76l6.87,4a1.42,1.42,0,0,0,1.3,0l4.77-2.78C477.84,195.85,477.86,195.51,477.52,195.31Z" transform="translate(0 0)"/><path class="cls-13" d="M464.57,195l29.85,17.24a1.47,1.47,0,0,0,1.31,0l4.86-2.85c.35-.2.33-.54,0-.75L470.7,191.37Z" transform="translate(0 0)"/><path class="cls-13" d="M528.32,228.2,533.1,231a1.19,1.19,0,0,0,1.07,0l2-1.14c.31-.18.33-.46,0-.62l-4.78-2.76a1.16,1.16,0,0,0-1.07,0l-1.95,1.14C528.05,227.76,528,228,528.32,228.2Z" transform="translate(0 0)"/><path class="cls-13" d="M521.63,224.34l4.78,2.76a1.19,1.19,0,0,0,1.07,0l1.95-1.14c.31-.18.33-.46.05-.62l-4.79-2.76a1.14,1.14,0,0,0-1.06,0l-2,1.14C521.37,223.9,521.35,224.17,521.63,224.34Z" transform="translate(0 0)"/><path class="cls-13" d="M515,220.51l4.78,2.76a1.19,1.19,0,0,0,1.07,0l1.95-1.14c.31-.18.33-.46.05-.62l-4.79-2.76a1.17,1.17,0,0,0-1.06,0l-2,1.14C514.74,220.07,514.72,220.35,515,220.51Z" transform="translate(0 0)"/><path class="cls-13" d="M518.18,226.35l4.78,2.76a1.16,1.16,0,0,0,1.07,0l2-1.14c.31-.18.33-.45,0-.62l-4.78-2.76a1.19,1.19,0,0,0-1.07,0l-1.95,1.14C517.92,225.91,517.9,226.19,518.18,226.35Z" transform="translate(0 0)"/></g></g></g><g class="cls-24"><path class="cls-13" d="M352,230.15l-4.25-2.45c-.34-.2-.3-.54.1-.77l5-2.9a1.49,1.49,0,0,1,1.33-.05l4.25,2.45c.34.2.3.54-.1.77l-5,2.9A1.48,1.48,0,0,1,352,230.15Z" transform="translate(0 0)"/><path class="cls-13" d="M358.61,234l-4.25-2.46c-.34-.2-.3-.54.09-.77l5-2.9a1.49,1.49,0,0,1,1.33,0l4.26,2.45c.34.2.29.55-.1.77l-5,2.9A1.49,1.49,0,0,1,358.61,234Z" transform="translate(0 0)"/><path class="cls-13" d="M365.18,237.74l-4.26-2.46c-.34-.19-.29-.54.1-.77l5-2.89a1.46,1.46,0,0,1,1.33-.06l4.25,2.46c.34.19.3.54-.09.76l-5,2.9A1.49,1.49,0,0,1,365.18,237.74Z" transform="translate(0 0)"/><path class="cls-13" d="M374.26,234.61,370,232.15c-.35-.2-.3-.54.09-.77l4.21-2.43a1.51,1.51,0,0,1,1.34-.06l4.25,2.46c.34.2.3.54-.1.77l-4.21,2.43A1.49,1.49,0,0,1,374.26,234.61Z" transform="translate(0 0)"/><path class="cls-13" d="M380.82,238.4l-4.25-2.46c-.34-.19-.3-.54.1-.77l4.21-2.43a1.46,1.46,0,0,1,1.33-.05l4.26,2.45c.34.2.29.54-.1.77l-4.21,2.43A1.51,1.51,0,0,1,380.82,238.4Z" transform="translate(0 0)"/><path class="cls-13" d="M387.39,242.19l-4.25-2.46c-.34-.19-.3-.54.09-.77l4.22-2.43a1.46,1.46,0,0,1,1.33-.05l4.25,2.45c.34.2.3.54-.09.77l-4.22,2.43A1.46,1.46,0,0,1,387.39,242.19Z" transform="translate(0 0)"/><path class="cls-13" d="M394,246l-4.25-2.45c-.35-.2-.3-.55.09-.77l4.21-2.44a1.51,1.51,0,0,1,1.34,0l4.25,2.45c.34.2.3.54-.1.77l-4.21,2.43A1.46,1.46,0,0,1,394,246Z" transform="translate(0 0)"/><path class="cls-13" d="M400.52,249.77l-4.25-2.45c-.34-.2-.3-.55.1-.77l4.21-2.44a1.49,1.49,0,0,1,1.33-.05l4.26,2.45c.34.2.29.55-.1.77l-4.21,2.44A1.51,1.51,0,0,1,400.52,249.77Z" transform="translate(0 0)"/><path class="cls-13" d="M407.09,253.56l-4.25-2.45c-.34-.2-.3-.54.09-.77l4.22-2.43a1.46,1.46,0,0,1,1.33-.06l4.25,2.46c.34.19.3.54-.09.76l-4.22,2.44A1.49,1.49,0,0,1,407.09,253.56Z" transform="translate(0 0)"/><path class="cls-13" d="M413.66,257.35l-4.25-2.45c-.35-.2-.3-.54.09-.77l4.21-2.43a1.48,1.48,0,0,1,1.34-.06l4.25,2.46c.34.19.3.54-.1.77L415,257.3A1.46,1.46,0,0,1,413.66,257.35Z" transform="translate(0 0)"/><path class="cls-13" d="M420.22,261.15,416,258.69c-.34-.2-.3-.54.1-.77l4.21-2.43a1.49,1.49,0,0,1,1.33-.06l4.26,2.46c.34.2.29.54-.1.77l-4.21,2.43A1.51,1.51,0,0,1,420.22,261.15Z" transform="translate(0 0)"/><path class="cls-13" d="M426.79,264.94l-4.25-2.46c-.34-.2-.3-.54.09-.77l4.22-2.43a1.49,1.49,0,0,1,1.33-.06l4.25,2.46c.34.2.3.54-.09.77l-4.22,2.43A1.49,1.49,0,0,1,426.79,264.94Z" transform="translate(0 0)"/><path class="cls-13" d="M433.36,268.73l-4.25-2.46c-.35-.19-.3-.54.09-.77l4.21-2.43a1.48,1.48,0,0,1,1.34-.05l4.25,2.45c.34.2.3.54-.1.77l-4.21,2.43A1.49,1.49,0,0,1,433.36,268.73Z" transform="translate(0 0)"/><path class="cls-13" d="M383.93,232.81l-4.25-2.45c-.34-.2-.3-.55.1-.77l4.21-2.44a1.49,1.49,0,0,1,1.33-.05l4.25,2.45c.35.2.3.55-.09.77l-4.21,2.44A1.51,1.51,0,0,1,383.93,232.81Z" transform="translate(0 0)"/><path class="cls-13" d="M377.27,229,373,226.51c-.34-.2-.3-.54.09-.77l4.22-2.43a1.46,1.46,0,0,1,1.33-.06l4.25,2.46c.34.19.3.54-.1.77l-4.21,2.43A1.46,1.46,0,0,1,377.27,229Z" transform="translate(0 0)"/><path class="cls-13" d="M370.59,225.11l-9.15-5.29c-.35-.2-.3-.54.09-.77l4.21-2.43a1.48,1.48,0,0,1,1.34-.05l9.15,5.28c.35.2.3.54-.09.77l-4.21,2.43A1.48,1.48,0,0,1,370.59,225.11Z" transform="translate(0 0)"/><path class="cls-13" d="M375.26,220.42l-7.43-4.29c-.34-.2-.3-.54.09-.77l4.22-2.43a1.49,1.49,0,0,1,1.33-.06l7.43,4.3c.34.19.3.54-.1.76l-4.21,2.44A1.49,1.49,0,0,1,375.26,220.42Z" transform="translate(0 0)"/><path class="cls-13" d="M390.5,236.6l-4.25-2.45c-.34-.2-.3-.54.09-.77l4.22-2.43a1.46,1.46,0,0,1,1.33-.06l4.25,2.46c.34.19.3.54-.09.76l-4.22,2.44A1.46,1.46,0,0,1,390.5,236.6Z" transform="translate(0 0)"/><path class="cls-13" d="M397.07,240.39l-4.26-2.45c-.34-.2-.29-.54.1-.77l4.21-2.43a1.51,1.51,0,0,1,1.34-.06l4.25,2.46c.34.19.3.54-.1.77l-4.21,2.43A1.46,1.46,0,0,1,397.07,240.39Z" transform="translate(0 0)"/><path class="cls-13" d="M403.63,244.19l-4.25-2.46c-.34-.2-.3-.54.1-.77l4.21-2.43a1.49,1.49,0,0,1,1.33-.06l4.25,2.46c.35.2.3.54-.09.77L405,244.13A1.51,1.51,0,0,1,403.63,244.19Z" transform="translate(0 0)"/><path class="cls-13" d="M410.2,248,406,245.52c-.34-.2-.3-.54.09-.77l4.22-2.43a1.49,1.49,0,0,1,1.33-.06l4.25,2.46c.34.2.3.54-.09.77l-4.22,2.43A1.49,1.49,0,0,1,410.2,248Z" transform="translate(0 0)"/><path class="cls-13" d="M416.77,251.77l-4.26-2.46c-.34-.19-.29-.54.1-.77l4.21-2.43a1.48,1.48,0,0,1,1.34-.05l4.25,2.45c.34.2.3.54-.1.77l-4.21,2.43A1.49,1.49,0,0,1,416.77,251.77Z" transform="translate(0 0)"/><path class="cls-13" d="M423.33,255.56l-4.25-2.46c-.34-.19-.3-.54.1-.77l4.21-2.43a1.46,1.46,0,0,1,1.33-.05L429,252.3c.35.2.3.54-.09.77l-4.21,2.43A1.48,1.48,0,0,1,423.33,255.56Z" transform="translate(0 0)"/><path class="cls-13" d="M429.9,259.35l-4.25-2.45c-.34-.2-.3-.55.09-.77l4.22-2.44a1.49,1.49,0,0,1,1.33-.05l4.25,2.45c.34.2.3.54-.09.77l-4.22,2.43A1.46,1.46,0,0,1,429.9,259.35Z" transform="translate(0 0)"/><path class="cls-13" d="M436.47,263.14l-4.26-2.45c-.34-.2-.29-.55.1-.77l4.21-2.44a1.51,1.51,0,0,1,1.34-.05l4.25,2.45c.34.2.3.55-.1.77l-4.21,2.44A1.49,1.49,0,0,1,436.47,263.14Z" transform="translate(0 0)"/><path class="cls-13" d="M443,266.93l-4.25-2.45c-.34-.2-.3-.54.1-.77l4.21-2.43a1.46,1.46,0,0,1,1.33-.06l4.25,2.46c.35.19.3.54-.09.76l-4.21,2.44A1.51,1.51,0,0,1,443,266.93Z" transform="translate(0 0)"/><path class="cls-13" d="M454.71,273.67l-9.28-5.35c-.34-.2-.3-.55.1-.77l4.21-2.44a1.49,1.49,0,0,1,1.33-.05l9.28,5.36c.34.19.3.54-.1.76L456,273.62A1.49,1.49,0,0,1,454.71,273.67Z" transform="translate(0 0)"/><path class="cls-13" d="M467.49,266.29l-7.83-4.52c-.34-.2-.3-.54.1-.77l4.21-2.43a1.49,1.49,0,0,1,1.33-.06l7.83,4.52c.34.2.3.55-.09.77l-4.22,2.44A1.49,1.49,0,0,1,467.49,266.29Z" transform="translate(0 0)"/><path class="cls-13" d="M402,235.86l-4.25-2.45c-.34-.2-.3-.55.09-.77l4.22-2.44a1.49,1.49,0,0,1,1.33,0l4.25,2.45c.34.2.3.55-.09.77l-4.22,2.44A1.49,1.49,0,0,1,402,235.86Z" transform="translate(0 0)"/><path class="cls-13" d="M395.27,232,391,229.52c-.34-.2-.3-.54.09-.77l4.22-2.43a1.49,1.49,0,0,1,1.33-.06l4.25,2.46c.34.2.3.54-.09.77l-4.22,2.43A1.49,1.49,0,0,1,395.27,232Z" transform="translate(0 0)"/><path class="cls-13" d="M388.54,228.09l-4.25-2.46c-.34-.19-.3-.54.09-.76l4.22-2.44a1.49,1.49,0,0,1,1.33-.05l4.25,2.45c.34.2.3.54-.09.77L389.87,228A1.46,1.46,0,0,1,388.54,228.09Z" transform="translate(0 0)"/><path class="cls-13" d="M381.81,224.2l-4.25-2.45c-.34-.2-.3-.54.09-.77l4.22-2.43a1.49,1.49,0,0,1,1.33-.06l4.25,2.46c.34.19.3.54-.09.77l-4.22,2.43A1.46,1.46,0,0,1,381.81,224.2Z" transform="translate(0 0)"/><path class="cls-13" d="M408.57,239.65l-4.26-2.45c-.34-.2-.29-.54.1-.77l4.21-2.43a1.48,1.48,0,0,1,1.34-.06l4.25,2.46c.34.19.3.54-.1.76l-4.21,2.44A1.49,1.49,0,0,1,408.57,239.65Z" transform="translate(0 0)"/><path class="cls-13" d="M415.13,243.44,410.88,241c-.34-.2-.3-.54.1-.77l4.21-2.43a1.46,1.46,0,0,1,1.33-.06l4.25,2.46c.35.19.3.54-.09.77l-4.21,2.43A1.48,1.48,0,0,1,415.13,243.44Z" transform="translate(0 0)"/><path class="cls-13" d="M421.7,247.23l-4.25-2.45c-.34-.2-.3-.54.09-.77l4.22-2.43a1.49,1.49,0,0,1,1.33-.06l4.25,2.46c.34.19.3.54-.1.77L423,247.18A1.46,1.46,0,0,1,421.7,247.23Z" transform="translate(0 0)"/><path class="cls-13" d="M428.27,251,424,248.57c-.34-.2-.29-.54.1-.77l4.21-2.43a1.51,1.51,0,0,1,1.34-.06l4.25,2.46c.34.2.3.54-.1.77L429.6,251A1.49,1.49,0,0,1,428.27,251Z" transform="translate(0 0)"/><path class="cls-13" d="M434.83,254.82l-4.25-2.46c-.34-.2-.3-.54.1-.77l4.21-2.43a1.46,1.46,0,0,1,1.33,0l4.25,2.45c.35.2.3.54-.09.77l-4.21,2.43A1.51,1.51,0,0,1,434.83,254.82Z" transform="translate(0 0)"/><path class="cls-13" d="M441.4,258.61l-4.25-2.46c-.34-.19-.3-.54.09-.77l4.22-2.43a1.46,1.46,0,0,1,1.33,0l4.25,2.45c.34.2.3.54-.1.77l-4.21,2.43A1.46,1.46,0,0,1,441.4,258.61Z" transform="translate(0 0)"/><path class="cls-13" d="M448,262.4l-4.26-2.46c-.34-.19-.29-.54.1-.76l4.21-2.44a1.49,1.49,0,0,1,1.33-.05l4.26,2.45c.34.2.3.54-.1.77l-4.21,2.43A1.46,1.46,0,0,1,448,262.4Z" transform="translate(0 0)"/><path class="cls-13" d="M454.53,266.19l-4.25-2.45c-.34-.2-.3-.55.1-.77l4.21-2.44a1.49,1.49,0,0,1,1.33,0l4.25,2.45c.35.2.3.55-.09.77l-4.22,2.44A1.49,1.49,0,0,1,454.53,266.19Z" transform="translate(0 0)"/><path class="cls-13" d="M461.1,270l-4.25-2.45c-.34-.2-.3-.54.09-.77l4.22-2.43a1.46,1.46,0,0,1,1.33-.06l4.25,2.46c.34.19.3.54-.1.76l-4.21,2.44A1.49,1.49,0,0,1,461.1,270Z" transform="translate(0 0)"/><path class="cls-13" d="M398.54,226.48,394.29,224c-.34-.2-.3-.54.1-.77l4.21-2.43a1.46,1.46,0,0,1,1.33-.06l4.25,2.46c.34.19.3.54-.09.77l-4.22,2.43A1.46,1.46,0,0,1,398.54,226.48Z" transform="translate(0 0)"/><path class="cls-13" d="M392,222.71l-4.25-2.45c-.35-.2-.3-.55.09-.77l4.21-2.44a1.51,1.51,0,0,1,1.34-.05l4.25,2.45c.34.2.3.55-.1.77l-4.21,2.44A1.49,1.49,0,0,1,392,222.71Z" transform="translate(0 0)"/><path class="cls-13" d="M385.47,218.94l-4.25-2.46c-.34-.19-.3-.54.1-.77l4.21-2.43a1.46,1.46,0,0,1,1.33-.05l4.26,2.45c.34.2.29.54-.1.77l-4.21,2.43A1.48,1.48,0,0,1,385.47,218.94Z" transform="translate(0 0)"/><path class="cls-13" d="M378.94,215.17l-4.25-2.46c-.34-.2-.3-.54.09-.77l4.22-2.43a1.49,1.49,0,0,1,1.33-.06l4.25,2.46c.34.2.3.54-.09.77l-4.22,2.43A1.49,1.49,0,0,1,378.94,215.17Z" transform="translate(0 0)"/><path class="cls-13" d="M385.66,211.29l-4.25-2.46c-.34-.19-.3-.54.09-.77l1.4-.8a1.49,1.49,0,0,1,1.33-.06l4.25,2.46c.34.2.3.54-.1.77l-1.39.8A1.49,1.49,0,0,1,385.66,211.29Z" transform="translate(0 0)"/><path class="cls-13" d="M394.19,216.21l-4.26-2.45c-.34-.2-.29-.55.1-.77l1.39-.81a1.46,1.46,0,0,1,1.33-.05l4.26,2.45c.34.2.3.54-.1.77l-1.39.8A1.46,1.46,0,0,1,394.19,216.21Z" transform="translate(0 0)"/><path class="cls-13" d="M400.69,220l-4.25-2.46c-.34-.2-.3-.54.1-.77l1.39-.8a1.49,1.49,0,0,1,1.33-.06l4.25,2.46c.34.2.3.54-.09.77l-1.4.8A1.49,1.49,0,0,1,400.69,220Z" transform="translate(0 0)"/><path class="cls-13" d="M407.2,223.72,403,221.27c-.34-.2-.3-.54.09-.77l1.4-.8a1.46,1.46,0,0,1,1.33-.06L410,222.1c.34.19.3.54-.1.76l-1.39.81A1.46,1.46,0,0,1,407.2,223.72Z" transform="translate(0 0)"/><path class="cls-13" d="M413.71,227.48,409.45,225c-.34-.2-.29-.55.1-.77l1.39-.81a1.46,1.46,0,0,1,1.33,0l4.26,2.45c.34.2.3.54-.1.77l-1.39.8A1.46,1.46,0,0,1,413.71,227.48Z" transform="translate(0 0)"/><path class="cls-13" d="M450,248.45,445.78,246c-.34-.2-.3-.54.1-.77l1.39-.81a1.49,1.49,0,0,1,1.33,0l4.25,2.45c.34.2.3.55-.09.77l-1.4.81A1.46,1.46,0,0,1,450,248.45Z" transform="translate(0 0)"/><path class="cls-13" d="M456.54,252.21l-4.25-2.46c-.34-.19-.3-.54.09-.76l1.4-.81a1.46,1.46,0,0,1,1.33-.05l4.25,2.45c.34.2.3.54-.1.77l-1.39.8A1.46,1.46,0,0,1,456.54,252.21Z" transform="translate(0 0)"/><path class="cls-13" d="M463.05,256l-4.26-2.46c-.34-.2-.3-.54.1-.77l1.39-.8a1.49,1.49,0,0,1,1.33-.06l4.26,2.46c.34.19.29.54-.1.77l-1.39.8A1.49,1.49,0,0,1,463.05,256Z" transform="translate(0 0)"/><path class="cls-13" d="M469.55,259.72l-4.25-2.45c-.34-.2-.3-.54.1-.77l1.39-.81a1.49,1.49,0,0,1,1.33-.05l4.25,2.45c.34.2.3.55-.09.77l-1.4.81A1.46,1.46,0,0,1,469.55,259.72Z" transform="translate(0 0)"/><path class="cls-13" d="M405.11,230.27l-4.25-2.45c-.34-.2-.3-.54.09-.77l4.22-2.43a1.49,1.49,0,0,1,1.33-.06l4.25,2.46c.34.2.3.54-.1.77l-4.21,2.43A1.46,1.46,0,0,1,405.11,230.27Z" transform="translate(0 0)"/><path class="cls-13" d="M411.68,234.07l-4.26-2.46c-.34-.2-.3-.54.1-.77l4.21-2.43a1.49,1.49,0,0,1,1.33-.06l4.26,2.46c.34.2.29.54-.1.77L413,234A1.49,1.49,0,0,1,411.68,234.07Z" transform="translate(0 0)"/><path class="cls-13" d="M418.24,237.86,414,235.4c-.34-.19-.3-.54.1-.77l4.21-2.43a1.46,1.46,0,0,1,1.33,0l4.25,2.45c.34.2.3.54-.09.77l-4.22,2.43A1.49,1.49,0,0,1,418.24,237.86Z" transform="translate(0 0)"/><path class="cls-13" d="M424.81,241.65l-4.25-2.46c-.34-.19-.3-.54.09-.77l4.22-2.43a1.46,1.46,0,0,1,1.33-.05l4.25,2.45c.34.2.3.54-.1.77l-4.21,2.43A1.46,1.46,0,0,1,424.81,241.65Z" transform="translate(0 0)"/><path class="cls-13" d="M431.38,245.44,427.12,243c-.34-.19-.3-.54.1-.76l4.21-2.44a1.49,1.49,0,0,1,1.33-.05l4.26,2.45c.34.2.29.54-.1.77l-4.21,2.43A1.46,1.46,0,0,1,431.38,245.44Z" transform="translate(0 0)"/><path class="cls-13" d="M437.94,249.23l-4.25-2.45c-.34-.2-.3-.55.1-.77l4.21-2.44a1.49,1.49,0,0,1,1.33,0l4.25,2.45c.34.2.3.55-.09.77l-4.22,2.44A1.49,1.49,0,0,1,437.94,249.23Z" transform="translate(0 0)"/><path class="cls-13" d="M444.51,253l-4.25-2.45c-.35-.2-.3-.54.09-.77l4.22-2.43a1.46,1.46,0,0,1,1.33-.06l4.25,2.46c.34.19.3.54-.1.76L445.84,253A1.49,1.49,0,0,1,444.51,253Z" transform="translate(0 0)"/><path class="cls-13" d="M451.08,256.81l-4.26-2.45c-.34-.2-.3-.54.1-.77l4.21-2.43a1.46,1.46,0,0,1,1.33-.06l4.26,2.46c.34.19.29.54-.1.77l-4.21,2.43A1.46,1.46,0,0,1,451.08,256.81Z" transform="translate(0 0)"/><path class="cls-13" d="M457.64,260.6l-4.25-2.45c-.34-.2-.3-.54.1-.77L457.7,255a1.49,1.49,0,0,1,1.33-.06l4.25,2.46c.34.19.3.54-.09.77L459,260.55A1.46,1.46,0,0,1,457.64,260.6Z" transform="translate(0 0)"/><path class="cls-13" d="M367.57,230.74,355,223.51c-.34-.19-.3-.54.1-.77l4.21-2.43a1.46,1.46,0,0,1,1.33-.05l12.53,7.23c.34.19.3.54-.1.77l-4.21,2.43A1.46,1.46,0,0,1,367.57,230.74Z" transform="translate(0 0)"/><path class="cls-13" d="M448.24,277.32l-12.52-7.23c-.35-.2-.3-.54.09-.77l4.21-2.43a1.48,1.48,0,0,1,1.34-.06l12.52,7.23c.34.2.3.54-.1.77l-4.21,2.43A1.46,1.46,0,0,1,448.24,277.32Z" transform="translate(0 0)"/><path class="cls-13" d="M422,270.53l-4.25-2.45c-.35-.2-.3-.54.09-.77l5-2.9a1.49,1.49,0,0,1,1.33-.06l4.25,2.46c.35.2.3.54-.09.77l-5,2.9A1.49,1.49,0,0,1,422,270.53Z" transform="translate(0 0)"/><path class="cls-13" d="M374.29,243l-6.8-3.93c-.34-.19-.3-.54.1-.77l5-2.89a1.46,1.46,0,0,1,1.33-.06l6.8,3.93c.34.19.3.54-.1.77l-5,2.89A1.46,1.46,0,0,1,374.29,243Z" transform="translate(0 0)"/><path class="cls-13" d="M415.65,266.88l-6.8-3.93c-.34-.19-.3-.54.1-.77l5-2.89a1.46,1.46,0,0,1,1.33-.06l6.8,3.93c.34.19.3.54-.1.77l-5,2.89A1.46,1.46,0,0,1,415.65,266.88Z" transform="translate(0 0)"/><path class="cls-13" d="M383.77,248.47,377,244.54c-.34-.19-.29-.54.1-.77l5-2.89a1.46,1.46,0,0,1,1.33-.06l6.8,3.93c.34.19.3.54-.09.77l-5,2.89A1.46,1.46,0,0,1,383.77,248.47Z" transform="translate(0 0)"/><path class="cls-13" d="M383.46,240.85,413,257.92c.37.21.37.55,0,.77l-5.11,2.95a1.48,1.48,0,0,1-1.33,0L377,244.57Z" transform="translate(0 0)"/><path class="cls-13" d="M440.33,277.41l4.74,2.73c.28.16.24.44-.08.63L442.94,282a1.26,1.26,0,0,1-1.1,0l-4.73-2.73c-.28-.16-.25-.45.08-.63l2.05-1.19A1.17,1.17,0,0,1,440.33,277.41Z" transform="translate(0 0)"/><path class="cls-13" d="M433.71,273.58l4.74,2.74c.28.16.24.44-.08.63l-2.06,1.18a1.2,1.2,0,0,1-1.09.05l-4.73-2.74c-.28-.16-.25-.44.07-.63l2.06-1.18A1.2,1.2,0,0,1,433.71,273.58Z" transform="translate(0 0)"/><path class="cls-13" d="M427.14,269.79l4.74,2.74c.28.16.24.44-.08.63l-2.05,1.18a1.21,1.21,0,0,1-1.09.05l-4.74-2.74c-.28-.16-.25-.44.08-.63l2.05-1.18A1.2,1.2,0,0,1,427.14,269.79Z" transform="translate(0 0)"/><path class="cls-13" d="M437.34,271.49l4.73,2.73c.28.17.25.45-.08.63L439.94,276a1.17,1.17,0,0,1-1.09,0l-4.74-2.73c-.28-.16-.24-.44.08-.63l2.05-1.19A1.26,1.26,0,0,1,437.34,271.49Z" transform="translate(0 0)"/></g><path class="cls-10" d="M504.33,169.32a2,2,0,0,1-1-.28,2.9,2.9,0,0,1-1.39-2.93,1.45,1.45,0,0,1,.83-1.06,1.8,1.8,0,0,1,1.58.16,3,3,0,0,1,1.39,2.94,1.46,1.46,0,0,1-.84,1A1.43,1.43,0,0,1,504.33,169.32Zm-1-3.93a.94.94,0,0,0-.41.08,1,1,0,0,0-.57.74,2.43,2.43,0,0,0,1.18,2.43,1.3,1.3,0,0,0,1.16.15,1,1,0,0,0,.57-.75,2.42,2.42,0,0,0-1.17-2.43A1.53,1.53,0,0,0,503.37,165.39Z" transform="translate(0 0)"/><path class="cls-10" d="M509.74,172.45a2,2,0,0,1-1-.29,2.91,2.91,0,0,1-1.39-2.93,1.48,1.48,0,0,1,.84-1.06,1.75,1.75,0,0,1,1.57.17,2.9,2.9,0,0,1,1.39,2.93,1.47,1.47,0,0,1-.83,1.06A1.45,1.45,0,0,1,509.74,172.45Zm-1-3.94a1.06,1.06,0,0,0-.4.08,1,1,0,0,0-.57.75,2.4,2.4,0,0,0,1.17,2.43,1.32,1.32,0,0,0,1.17.14,1.05,1.05,0,0,0,.57-.74,2.41,2.41,0,0,0-1.18-2.43A1.52,1.52,0,0,0,508.78,168.51Z" transform="translate(0 0)"/><path class="cls-10" d="M516.35,174.35a1.29,1.29,0,0,1-2.07.74,2.64,2.64,0,0,1-1.28-2.68,1.3,1.3,0,0,1,2.07-.75A2.66,2.66,0,0,1,516.35,174.35Z" transform="translate(0 0)"/><polygon class="cls-10" points="412.54 114.6 409.64 112.93 409.87 111.59 412.76 113.26 412.54 114.6"/><polygon class="cls-10" points="416.75 117.03 413.85 115.36 414.07 114.02 416.97 115.69 416.75 117.03"/><polygon class="cls-10" points="408.37 112.2 402.02 108.53 402.25 107.19 408.6 110.86 408.37 112.2"/><polygon class="cls-10" points="409.17 137.46 404.32 134.66 404.51 133.54 409.36 136.34 409.17 137.46"/><polygon class="cls-10" points="413.31 139.85 410.88 138.45 411.07 137.33 413.49 138.73 413.31 139.85"/><polygon class="cls-10" points="410.16 140.91 408.1 139.72 408.28 138.6 410.35 139.79 410.16 140.91"/><polygon class="cls-10" points="413.62 142.91 411.2 141.51 411.38 140.39 413.81 141.79 413.62 142.91"/><polygon class="cls-10" points="417.18 147.85 407.65 142.35 407.84 141.23 417.37 146.73 417.18 147.85"/><polygon class="cls-10" points="408.92 169.84 399.4 164.34 399.59 163.22 409.11 168.72 408.92 169.84"/><polygon class="cls-10" points="412.58 171.95 410.16 170.55 410.35 169.43 412.77 170.83 412.58 171.95"/><polygon class="cls-10" points="409.28 146.17 407.21 144.97 407.4 143.85 409.47 145.05 409.28 146.17"/><polygon class="cls-10" points="412.74 148.16 410.31 146.77 410.5 145.65 412.93 147.04 412.74 148.16"/><polygon class="cls-10" points="412.01 150.63 406.77 147.6 406.96 146.48 412.2 149.5 412.01 150.63"/><polygon class="cls-10" points="415.51 152.65 413.09 151.25 413.28 150.13 415.7 151.53 415.51 152.65"/><polygon class="cls-10" points="419.04 154.68 416.61 153.28 416.8 152.16 419.22 153.56 419.04 154.68"/><polygon class="cls-10" points="424.72 157.96 420.14 155.32 420.32 154.2 424.91 156.84 424.72 157.96"/><polygon class="cls-10" points="421.09 161.63 418.67 160.23 418.86 159.11 421.28 160.51 421.09 161.63"/><polygon class="cls-10" points="426.78 164.91 422.19 162.27 422.38 161.15 426.96 163.79 426.78 164.91"/><polygon class="cls-10" points="408.32 154.25 405.89 152.86 406.08 151.74 408.5 153.13 408.32 154.25"/><polygon class="cls-10" points="411.84 156.29 409.42 154.89 409.6 153.77 412.03 155.17 411.84 156.29"/><polygon class="cls-10" points="417.52 159.57 412.94 156.92 413.13 155.8 417.71 158.45 417.52 159.57"/><polygon class="cls-10" points="424.97 160.99 422.55 159.59 422.74 158.47 425.16 159.87 424.97 160.99"/><polygon class="cls-10" points="428.5 163.03 426.07 161.63 426.26 160.5 428.68 161.9 428.5 163.03"/><polygon class="cls-10" points="434.18 166.31 429.6 163.66 429.78 162.54 434.37 165.19 434.18 166.31"/><polygon class="cls-10" points="416.38 174.14 413.95 172.74 414.14 171.62 416.56 173.02 416.38 174.14"/><polygon class="cls-10" points="422.06 177.42 417.48 174.78 417.66 173.66 422.25 176.3 422.06 177.42"/><polygon class="cls-10" points="407.44 159.51 405.01 158.11 405.2 156.99 407.62 158.39 407.44 159.51"/><polygon class="cls-10" points="413.12 162.79 408.54 160.14 408.72 159.02 413.31 161.67 413.12 162.79"/><polygon class="cls-10" points="419.02 178.55 416.59 177.15 416.78 176.03 419.2 177.43 419.02 178.55"/><polygon class="cls-10" points="424.7 181.83 420.12 179.18 420.3 178.06 424.89 180.71 424.7 181.83"/><polygon class="cls-10" points="424.42 152.03 422 150.63 422.19 149.51 424.61 150.91 424.42 152.03"/><polygon class="cls-10" points="420.76 149.91 418.33 148.51 418.52 147.4 420.95 148.79 420.76 149.91"/><polygon class="cls-10" points="430.11 155.31 425.52 152.66 425.71 151.54 430.3 154.19 430.11 155.31"/><polygon class="cls-10" points="408.52 151.49 406.33 150.23 406.52 149.11 408.71 150.37 408.52 151.49"/><polygon class="cls-10" points="415 155.24 409.69 152.17 409.88 151.05 415.19 154.12 415 155.24"/><polygon class="cls-10" points="421.49 158.98 416.17 155.91 416.36 154.79 421.67 157.86 421.49 158.98"/><polygon class="cls-10" points="433.48 157.26 431.29 155.99 431.48 154.87 433.66 156.14 433.48 157.26"/><polygon class="cls-10" points="439.96 161 434.64 157.93 434.83 156.81 440.15 159.88 439.96 161"/><polygon class="cls-10" points="446.44 164.74 441.13 161.67 441.31 160.55 446.63 163.62 446.44 164.74"/><polygon class="cls-10" points="410.81 158.58 405.5 155.51 405.69 154.39 411 157.46 410.81 158.58"/><polygon class="cls-10" points="413.62 160.2 411.98 159.25 412.17 158.13 413.8 159.07 413.62 160.2"/><polygon class="cls-10" points="416.42 161.82 414.79 160.87 414.98 159.75 416.61 160.7 416.42 161.82"/><polygon class="cls-10" points="421.61 164.81 417.6 162.5 417.79 161.38 421.8 163.69 421.61 164.81"/><polygon class="cls-10" points="427.43 159.53 425.8 158.59 425.99 157.47 427.62 158.41 427.43 159.53"/><polygon class="cls-10" points="432.62 162.53 428.61 160.21 428.79 159.09 432.81 161.41 432.62 162.53"/><polygon class="cls-10" points="433.71 163.16 429.7 160.84 429.88 159.72 433.9 162.03 433.71 163.16"/><polygon class="cls-10" points="412.34 177.57 407.1 174.55 407.29 173.43 412.52 176.45 412.34 177.57"/><polygon class="cls-10" points="415.84 179.59 413.42 178.19 413.61 177.07 416.03 178.47 415.84 179.59"/><polygon class="cls-10" points="419.36 181.63 416.94 180.23 417.13 179.11 419.55 180.51 419.36 181.63"/><polygon class="cls-10" points="425.05 184.91 420.46 182.26 420.65 181.14 425.24 183.79 425.05 184.91"/><polygon class="cls-10" points="428.68 187.01 426.26 185.61 426.45 184.49 428.87 185.89 428.68 187.01"/><polygon class="cls-10" points="434.37 190.29 429.78 187.64 429.97 186.52 434.56 189.17 434.37 190.29"/><polygon class="cls-10" points="416.93 185.99 414.51 184.59 414.69 183.47 417.12 184.87 416.93 185.99"/><polygon class="cls-10" points="422.62 189.27 418.03 186.62 418.22 185.5 422.8 188.15 422.62 189.27"/><polygon class="cls-10" points="404.27 178.68 401.85 177.28 402.04 176.16 404.46 177.56 404.27 178.68"/><polygon class="cls-10" points="407.8 180.71 405.37 179.31 405.56 178.19 407.98 179.59 407.8 180.71"/><polygon class="cls-10" points="413.48 183.99 408.89 181.35 409.08 180.23 413.67 182.87 413.48 183.99"/><polygon class="cls-10" points="408.85 178.44 406.66 177.18 406.85 176.05 409.03 177.32 408.85 178.44"/><polygon class="cls-10" points="415.33 182.18 410.02 179.11 410.2 177.99 415.52 181.06 415.33 182.18"/><polygon class="cls-10" points="421.81 185.92 416.5 182.85 416.69 181.74 422 184.8 421.81 185.92"/><polygon class="cls-10" points="402.48 180.53 397.17 177.46 397.36 176.34 402.67 179.41 402.48 180.53"/><polygon class="cls-10" points="405.29 182.14 403.65 181.2 403.84 180.08 405.47 181.02 405.29 182.14"/><polygon class="cls-10" points="408.09 183.76 406.46 182.82 406.65 181.7 408.28 182.64 408.09 183.76"/><polygon class="cls-10" points="413.28 186.76 409.27 184.44 409.46 183.32 413.47 185.64 413.28 186.76"/><polygon class="cls-10" points="414.37 187.39 410.36 185.07 410.55 183.95 414.56 186.27 414.37 187.39"/><polygon class="cls-10" points="404.88 170.38 403.25 169.44 403.43 168.32 405.06 169.26 404.88 170.38"/><polygon class="cls-10" points="410.07 173.38 406.05 171.06 406.24 169.94 410.26 172.26 410.07 173.38"/><polygon class="cls-10" points="415.37 176.44 411.36 174.12 411.54 173 415.56 175.32 415.37 176.44"/><polygon class="cls-10" points="435.81 194 433.38 192.6 433.57 191.48 435.99 192.88 435.81 194"/><polygon class="cls-10" points="441.49 197.28 436.91 194.64 437.09 193.52 441.68 196.16 441.49 197.28"/><polygon class="cls-10" points="426.86 188.84 422.84 186.52 423.03 185.4 427.05 187.72 426.86 188.84"/><polygon class="cls-10" points="432.16 191.9 428.15 189.58 428.33 188.46 432.35 190.78 432.16 191.9"/><polygon class="cls-10" points="402.04 159.27 400.41 158.33 400.59 157.21 402.23 158.15 402.04 159.27"/><polygon class="cls-10" points="407.23 162.27 403.21 159.95 403.4 158.83 407.42 161.15 407.23 162.27"/><polygon class="cls-10" points="412.53 165.33 408.52 163.01 408.7 161.89 412.72 164.21 412.53 165.33"/><path class="cls-10" d="M492.65,206.17a2.19,2.19,0,0,1-1.12-.33l-32.46-18.73a4.47,4.47,0,0,1-1.91-4.32l2.08-12.38a2.29,2.29,0,0,1,1.19-1.78,2,2,0,0,1,1.87.16l32.46,18.73a4.47,4.47,0,0,1,1.91,4.32l-2.08,12.38A2.29,2.29,0,0,1,493.4,206,1.75,1.75,0,0,1,492.65,206.17Zm-31.47-37.25a1.31,1.31,0,0,0-.56.12,1.84,1.84,0,0,0-.93,1.45l-2.08,12.38a4,4,0,0,0,1.69,3.84l32.45,18.74a1.58,1.58,0,0,0,1.46.14,1.84,1.84,0,0,0,.93-1.45l2.08-12.38a4,4,0,0,0-1.69-3.84l-32.45-18.74A1.88,1.88,0,0,0,461.18,168.92Z" transform="translate(0 0)"/><path class="cls-10" d="M489.08,227.45a2.19,2.19,0,0,1-1.12-.33L455.5,208.39a4.47,4.47,0,0,1-1.91-4.32l2.08-12.38a2.29,2.29,0,0,1,1.19-1.78,2,2,0,0,1,1.88.16l32.45,18.73a4.47,4.47,0,0,1,1.91,4.32L491,225.5a2.29,2.29,0,0,1-1.19,1.78A1.75,1.75,0,0,1,489.08,227.45Zm-.89-.72a1.56,1.56,0,0,0,1.45.14,1.88,1.88,0,0,0,.94-1.45L492.65,213A4,4,0,0,0,491,209.2l-32.45-18.74a1.58,1.58,0,0,0-1.46-.14,1.84,1.84,0,0,0-.93,1.44L454,204.15a4,4,0,0,0,1.69,3.84Z" transform="translate(0 0)"/><path class="cls-25" d="M462,185.77c.57.33,1.08.21,1.27-.31l3.79-10.34c.43-1.18,2.2-.11,2.57,1.56l2.33,10.4a3.08,3.08,0,0,0,1.29,1.87l.56.32c.54.31,1,.22,1.24-.23l.77-1.63c.48-1,2.08-.06,2.51,1.5h0a3,3,0,0,0,1.26,1.73l.49.28c.59.34,1.11.2,1.29-.35l.7-2.15c.4-1.22,2.17-.21,2.57,1.47l2.34,9.63a3,3,0,0,0,1.3,1.84Z" transform="translate(0 0)"/><path class="cls-10" d="M484.16,222.55a3.26,3.26,0,0,1-1.41-2l-2.33-9.63c-.25-1-1.08-1.82-1.66-1.84a.47.47,0,0,0-.48.38l-.7,2.16a1,1,0,0,1-.56.63,1.26,1.26,0,0,1-1.06-.16l-.49-.28A3.22,3.22,0,0,1,474.1,210a2.35,2.35,0,0,0-1.6-1.75.45.45,0,0,0-.48.29l-.77,1.63a.88.88,0,0,1-.55.5,1.23,1.23,0,0,1-1-.17l-.56-.32a3.3,3.3,0,0,1-1.4-2l-2.33-10.41a2.39,2.39,0,0,0-1.65-1.88.47.47,0,0,0-.49.35l-3.78,10.35a.92.92,0,0,1-.56.58,1.19,1.19,0,0,1-1-.16l.22-.39a.87.87,0,0,0,.67.13.5.5,0,0,0,.28-.32L462.84,196a.9.9,0,0,1,.94-.65,2.77,2.77,0,0,1,2.06,2.23L468.18,208a2.8,2.8,0,0,0,1.18,1.72l.56.32a.85.85,0,0,0,.64.13.48.48,0,0,0,.28-.26l.77-1.63a.9.9,0,0,1,.93-.55,2.75,2.75,0,0,1,2,2.08,2.82,2.82,0,0,0,1.16,1.6l.49.28a.77.77,0,0,0,.66.12.48.48,0,0,0,.29-.34l.71-2.16a.9.9,0,0,1,.88-.69h0a2.75,2.75,0,0,1,2.09,2.18l2.33,9.64a2.79,2.79,0,0,0,1.2,1.68Z" transform="translate(0 0)"/><path class="cls-10" d="M471.14,158.37a2.84,2.84,0,0,1-1.42-.4l-25.37-14.65a4.51,4.51,0,0,1-2-4.86,2.72,2.72,0,0,1,1.55-1.87,2.58,2.58,0,0,1,2.32.23l25.37,14.65a4.51,4.51,0,0,1,2,4.86A2.72,2.72,0,0,1,472,158.2,2.32,2.32,0,0,1,471.14,158.37Zm-26.3-21.5a2,2,0,0,0-.73.14,2.28,2.28,0,0,0-1.28,1.57,4.07,4.07,0,0,0,1.74,4.35L470,157.58a2.17,2.17,0,0,0,1.92.2,2.3,2.3,0,0,0,1.28-1.57,4.05,4.05,0,0,0-1.74-4.35L446,137.21A2.45,2.45,0,0,0,444.84,136.87Z" transform="translate(0 0)"/></g></g></svg>