<svg id="OBJECTS" xmlns="http://www.w3.org/2000/svg" xmlns:xlink="http://www.w3.org/1999/xlink" viewBox="0 0 235.38 236.19"><defs><style>.cls-1{fill:url(#linear-gradient);}.cls-2,.cls-66{fill:#fff;}.cls-3{fill:url(#linear-gradient-2);}.cls-4{fill:url(#linear-gradient-3);}.cls-5{fill:url(#linear-gradient-4);}.cls-6{fill:url(#linear-gradient-5);}.cls-7{fill:#133058;}.cls-8{fill:none;stroke:#fff;stroke-linecap:round;stroke-linejoin:round;stroke-width:0.85px;}.cls-9{fill:#5dc6f0;}.cls-10{fill:url(#linear-gradient-6);}.cls-11{fill:url(#linear-gradient-7);}.cls-12{fill:url(#linear-gradient-8);}.cls-13{fill:url(#linear-gradient-9);}.cls-14{fill:#ff5c98;}.cls-15{fill:url(#linear-gradient-10);}.cls-16{fill:url(#linear-gradient-11);}.cls-17{fill:url(#linear-gradient-12);}.cls-18{fill:url(#linear-gradient-13);}.cls-19{fill:url(#linear-gradient-14);}.cls-20{fill:url(#linear-gradient-15);}.cls-21{fill:url(#linear-gradient-16);}.cls-22{fill:url(#linear-gradient-17);}.cls-23{fill:url(#linear-gradient-18);}.cls-24{fill:#f2f2f2;}.cls-25{fill:url(#linear-gradient-19);}.cls-26{fill:url(#linear-gradient-20);}.cls-27{fill:url(#linear-gradient-21);}.cls-28{isolation:isolate;}.cls-29{fill:url(#linear-gradient-22);}.cls-30{fill:url(#linear-gradient-23);}.cls-31{fill:url(#linear-gradient-24);}.cls-32{fill:url(#linear-gradient-25);}.cls-33{fill:url(#linear-gradient-26);}.cls-34{fill:url(#linear-gradient-27);}.cls-35{fill:url(#linear-gradient-28);}.cls-36{fill:url(#linear-gradient-29);}.cls-37{fill:url(#linear-gradient-30);}.cls-38{fill:url(#linear-gradient-31);}.cls-39{fill:url(#linear-gradient-32);}.cls-40{fill:url(#linear-gradient-33);}.cls-41{fill:url(#linear-gradient-34);}.cls-42{fill:url(#linear-gradient-35);}.cls-43{fill:url(#linear-gradient-36);}.cls-44{fill:url(#linear-gradient-37);}.cls-45{fill:url(#linear-gradient-38);}.cls-46{fill:url(#linear-gradient-39);}.cls-47{fill:url(#linear-gradient-40);}.cls-48{fill:url(#linear-gradient-41);}.cls-49{fill:url(#linear-gradient-42);}.cls-50{fill:url(#linear-gradient-43);}.cls-51{fill:url(#linear-gradient-44);}.cls-52{fill:url(#linear-gradient-45);}.cls-53{fill:url(#linear-gradient-46);}.cls-54{fill:url(#linear-gradient-47);}.cls-55{fill:url(#linear-gradient-48);}.cls-56{fill:url(#linear-gradient-49);}.cls-57{fill:url(#linear-gradient-50);}.cls-58{fill:url(#linear-gradient-51);}.cls-59{fill:url(#linear-gradient-52);}.cls-60{fill:url(#linear-gradient-53);}.cls-61{fill:url(#linear-gradient-54);}.cls-62{fill:url(#linear-gradient-55);}.cls-63{fill:url(#linear-gradient-56);}.cls-64{fill:#8ed7dd;}.cls-65{fill:#0ca8c7;}.cls-66{font-size:15.73px;font-family:Montserrat-Bold, Montserrat Bold;font-weight:700;}.cls-67{fill:#5986ff;}.cls-68{fill:#335ed4;}.cls-69{fill:#b8426d;}.cls-70{fill:#822769;}.cls-71{fill:#591b48;}</style><linearGradient id="linear-gradient" x1="321.61" y1="237.5" x2="368.9" y2="237.5" gradientUnits="userSpaceOnUse"><stop offset="0" stop-color="#ff5a72" stop-opacity="0.7"/><stop offset="0.06" stop-color="#ff6072" stop-opacity="0.68"/><stop offset="0.69" stop-color="#ff9a6e" stop-opacity="0.48"/><stop offset="1" stop-color="#ffb06d" stop-opacity="0.4"/></linearGradient><linearGradient id="linear-gradient-2" x1="246.93" y1="178.48" x2="310.08" y2="178.48" xlink:href="#linear-gradient"/><linearGradient id="linear-gradient-3" x1="166.21" y1="139.91" x2="222.09" y2="139.91" xlink:href="#linear-gradient"/><linearGradient id="linear-gradient-4" x1="300.72" y1="153.41" x2="356.6" y2="153.41" xlink:href="#linear-gradient"/><linearGradient id="linear-gradient-5" x1="176.72" y1="247.71" x2="200.35" y2="247.71" gradientUnits="userSpaceOnUse"><stop offset="0" stop-color="#fff"/><stop offset="1" stop-color="#a4d4ed"/></linearGradient><linearGradient id="linear-gradient-6" x1="214.85" y1="274.95" x2="268.2" y2="274.95" xlink:href="#linear-gradient-5"/><linearGradient id="linear-gradient-7" x1="219.07" y1="233.58" x2="260.88" y2="258.3" xlink:href="#linear-gradient-5"/><linearGradient id="linear-gradient-8" x1="195.74" y1="212.19" x2="293.8" y2="212.19" gradientUnits="userSpaceOnUse"><stop offset="0" stop-color="#fff"/><stop offset="1" stop-color="#2d4483"/></linearGradient><linearGradient id="linear-gradient-9" x1="195.38" y1="243.85" x2="291.6" y2="243.85" xlink:href="#linear-gradient-5"/><linearGradient id="linear-gradient-10" x1="174.51" y1="170.44" x2="264.66" y2="221.05" xlink:href="#linear-gradient"/><linearGradient id="linear-gradient-11" x1="172.47" y1="174.07" x2="262.63" y2="224.68" xlink:href="#linear-gradient"/><linearGradient id="linear-gradient-12" x1="172.39" y1="174.22" x2="262.55" y2="224.83" xlink:href="#linear-gradient"/><linearGradient id="linear-gradient-13" x1="170.41" y1="177.75" x2="260.56" y2="228.36" xlink:href="#linear-gradient"/><linearGradient id="linear-gradient-14" x1="168.28" y1="181.54" x2="258.43" y2="232.15" xlink:href="#linear-gradient"/><linearGradient id="linear-gradient-15" x1="166.23" y1="185.19" x2="256.39" y2="235.8" xlink:href="#linear-gradient"/><linearGradient id="linear-gradient-16" x1="164.2" y1="188.81" x2="254.35" y2="239.42" xlink:href="#linear-gradient"/><linearGradient id="linear-gradient-17" x1="164.14" y1="188.91" x2="254.3" y2="239.52" xlink:href="#linear-gradient"/><linearGradient id="linear-gradient-18" x1="164.07" y1="189.04" x2="254.23" y2="239.65" xlink:href="#linear-gradient"/><linearGradient id="linear-gradient-19" x1="133.52" y1="300.33" x2="256.61" y2="300.33" xlink:href="#linear-gradient-8"/><linearGradient id="linear-gradient-20" x1="-1.5" y1="153.09" x2="126.48" y2="226.9" xlink:href="#linear-gradient-8"/><linearGradient id="linear-gradient-21" x1="-4.08" y1="157.57" x2="123.9" y2="231.37" xlink:href="#linear-gradient-8"/><linearGradient id="linear-gradient-22" x1="-1.5" y1="153.09" x2="126.48" y2="226.9" xlink:href="#linear-gradient-8"/><linearGradient id="linear-gradient-23" x1="-4.07" y1="157.55" x2="123.91" y2="231.35" xlink:href="#linear-gradient-8"/><linearGradient id="linear-gradient-24" x1="-1.5" y1="153.1" x2="126.48" y2="226.9" xlink:href="#linear-gradient-8"/><linearGradient id="linear-gradient-25" x1="-6.63" y1="162" x2="121.35" y2="235.81" xlink:href="#linear-gradient-8"/><linearGradient id="linear-gradient-26" x1="-4.07" y1="157.55" x2="123.91" y2="231.36" xlink:href="#linear-gradient-8"/><linearGradient id="linear-gradient-27" x1="-9.2" y1="166.45" x2="118.78" y2="240.26" xlink:href="#linear-gradient-8"/><linearGradient id="linear-gradient-28" x1="-1.5" y1="153.1" x2="126.48" y2="226.91" xlink:href="#linear-gradient-8"/><linearGradient id="linear-gradient-29" x1="-6.64" y1="162" x2="121.34" y2="235.81" xlink:href="#linear-gradient-8"/><linearGradient id="linear-gradient-30" x1="-4.07" y1="157.56" x2="123.91" y2="231.36" xlink:href="#linear-gradient-8"/><linearGradient id="linear-gradient-31" x1="-1.51" y1="153.11" x2="126.47" y2="226.91" xlink:href="#linear-gradient-8"/><linearGradient id="linear-gradient-32" x1="-6.64" y1="162.01" x2="121.34" y2="235.82" xlink:href="#linear-gradient-8"/><linearGradient id="linear-gradient-33" x1="-4.07" y1="157.56" x2="123.91" y2="231.37" xlink:href="#linear-gradient-8"/><linearGradient id="linear-gradient-34" x1="-1.51" y1="153.11" x2="126.47" y2="226.92" xlink:href="#linear-gradient-8"/><linearGradient id="linear-gradient-35" x1="-6.64" y1="162.01" x2="121.34" y2="235.82" xlink:href="#linear-gradient-8"/><linearGradient id="linear-gradient-36" x1="-1.51" y1="153.12" x2="126.47" y2="226.92" xlink:href="#linear-gradient-8"/><linearGradient id="linear-gradient-37" x1="-6.65" y1="162.02" x2="121.34" y2="235.82" xlink:href="#linear-gradient-8"/><linearGradient id="linear-gradient-38" x1="-9.21" y1="166.46" x2="118.77" y2="240.27" xlink:href="#linear-gradient-8"/><linearGradient id="linear-gradient-39" x1="-4.08" y1="157.57" x2="123.9" y2="231.38" xlink:href="#linear-gradient-8"/><linearGradient id="linear-gradient-40" x1="-9.22" y1="166.47" x2="118.77" y2="240.28" xlink:href="#linear-gradient-8"/><linearGradient id="linear-gradient-41" x1="-6.65" y1="162.02" x2="121.33" y2="235.83" xlink:href="#linear-gradient-8"/><linearGradient id="linear-gradient-42" x1="-2.8" y1="155.35" x2="125.18" y2="229.16" xlink:href="#linear-gradient-8"/><linearGradient id="linear-gradient-43" x1="-9.22" y1="166.48" x2="118.76" y2="240.28" xlink:href="#linear-gradient-8"/><linearGradient id="linear-gradient-44" x1="-6.65" y1="162.03" x2="121.33" y2="235.84" xlink:href="#linear-gradient-8"/><linearGradient id="linear-gradient-45" x1="-9.22" y1="166.48" x2="118.76" y2="240.29" xlink:href="#linear-gradient-8"/><linearGradient id="linear-gradient-46" x1="-4.06" y1="157.54" x2="123.92" y2="231.35" xlink:href="#linear-gradient-8"/><linearGradient id="linear-gradient-47" x1="-6.63" y1="161.99" x2="121.35" y2="235.8" xlink:href="#linear-gradient-8"/><linearGradient id="linear-gradient-48" x1="-9.2" y1="166.44" x2="118.78" y2="240.25" xlink:href="#linear-gradient-8"/><linearGradient id="linear-gradient-49" x1="-4.06" y1="157.54" x2="123.92" y2="231.34" xlink:href="#linear-gradient-8"/><linearGradient id="linear-gradient-50" x1="-1.49" y1="153.09" x2="126.49" y2="226.89" xlink:href="#linear-gradient-8"/><linearGradient id="linear-gradient-51" x1="-4.08" y1="157.56" x2="123.9" y2="231.37" xlink:href="#linear-gradient-8"/><linearGradient id="linear-gradient-52" x1="-9.2" y1="166.45" x2="118.78" y2="240.25" xlink:href="#linear-gradient-8"/><linearGradient id="linear-gradient-53" x1="-6.63" y1="162" x2="121.35" y2="235.8" xlink:href="#linear-gradient-8"/><linearGradient id="linear-gradient-54" x1="295.73" y1="324.05" x2="243" y2="294" xlink:href="#linear-gradient-5"/><linearGradient id="linear-gradient-55" x1="263.05" y1="315.15" x2="298.28" y2="315.15" xlink:href="#linear-gradient-5"/><linearGradient id="linear-gradient-56" x1="266.25" y1="301.9" x2="285.91" y2="309.63" gradientUnits="userSpaceOnUse"><stop offset="0" stop-color="#fff"/><stop offset="1" stop-color="#e02066"/></linearGradient></defs><path class="cls-1" d="M366.8,277.24l-43.09-24.88a5,5,0,0,1-2.1-4v-49c0-1.54.94-2.25,2.1-1.58l43.09,24.88a5,5,0,0,1,2.1,4v49C368.9,277.2,368,277.91,366.8,277.24Z" transform="translate(-133.52 -92.65)"/><path class="cls-2" d="M342,219.21l-11.85-6.85a3.47,3.47,0,0,1-1.46-2.78h0c0-1.07.65-1.56,1.46-1.1L342,215.33a3.45,3.45,0,0,1,1.46,2.78h0C343.43,219.18,342.78,219.67,342,219.21Z" transform="translate(-133.52 -92.65)"/><path class="cls-2" d="M360.91,237.47l-30.79-17.78a3.45,3.45,0,0,1-1.46-2.77h0c0-1.08.65-1.57,1.46-1.1l30.79,17.77a3.5,3.5,0,0,1,1.45,2.78h0C362.36,237.44,361.71,237.94,360.91,237.47Z" transform="translate(-133.52 -92.65)"/><path class="cls-2" d="M342,233.88,330.12,227a3.47,3.47,0,0,1-1.46-2.78h0c0-1.07.65-1.56,1.46-1.1L342,230a3.47,3.47,0,0,1,1.46,2.78h0C343.43,233.85,342.78,234.34,342,233.88Z" transform="translate(-133.52 -92.65)"/><path class="cls-2" d="M360.2,244.4l-11.85-6.84a3.48,3.48,0,0,1-1.46-2.78h0c0-1.07.65-1.57,1.46-1.1l11.85,6.84a3.48,3.48,0,0,1,1.46,2.78h0C361.66,244.37,361,244.87,360.2,244.4Z" transform="translate(-133.52 -92.65)"/><path class="cls-2" d="M336.08,237.81l-6-3.44a3.48,3.48,0,0,1-1.46-2.78h0c0-1.07.65-1.57,1.46-1.1l6,3.44a3.49,3.49,0,0,1,1.46,2.78h0C337.54,237.78,336.88,238.27,336.08,237.81Z" transform="translate(-133.52 -92.65)"/><path class="cls-2" d="M358.06,257.84,330.12,241.7a3.47,3.47,0,0,1-1.46-2.78h0c0-1.07.65-1.56,1.46-1.1L358.06,254a3.47,3.47,0,0,1,1.46,2.78h0C359.52,257.81,358.87,258.3,358.06,257.84Z" transform="translate(-133.52 -92.65)"/><path class="cls-2" d="M344.06,257.09l-13.94-8a3.48,3.48,0,0,1-1.46-2.78h0c0-1.07.65-1.57,1.46-1.1l13.94,8.05a3.49,3.49,0,0,1,1.45,2.78h0C345.51,257.06,344.86,257.55,344.06,257.09Z" transform="translate(-133.52 -92.65)"/><path class="cls-3" d="M307.28,231.55l-57.55-33.22a6.71,6.71,0,0,1-2.8-5.35V127.52c0-2.06,1.25-3,2.8-2.11l57.55,33.22a6.74,6.74,0,0,1,2.8,5.35v65.46C310.08,231.5,308.82,232.45,307.28,231.55Z" transform="translate(-133.52 -92.65)"/><path class="cls-2" d="M267.29,146.45l-11.86-6.85a3.49,3.49,0,0,1-1.45-2.78h0c0-1.07.65-1.56,1.45-1.1l11.86,6.85a3.49,3.49,0,0,1,1.45,2.78h0C268.74,146.42,268.09,146.91,267.29,146.45Z" transform="translate(-133.52 -92.65)"/><path class="cls-2" d="M286.22,164.72l-30.79-17.78a3.5,3.5,0,0,1-1.45-2.78h0c0-1.07.65-1.57,1.45-1.1l30.79,17.78a3.45,3.45,0,0,1,1.46,2.78h0C287.68,164.69,287,165.18,286.22,164.72Z" transform="translate(-133.52 -92.65)"/><path class="cls-2" d="M267.29,161.12l-11.86-6.85a3.49,3.49,0,0,1-1.45-2.78h0c0-1.07.65-1.56,1.45-1.1l11.86,6.85a3.49,3.49,0,0,1,1.45,2.78h0C268.74,161.09,268.09,161.58,267.29,161.12Z" transform="translate(-133.52 -92.65)"/><path class="cls-2" d="M285.52,171.64l-11.86-6.84a3.5,3.5,0,0,1-1.45-2.78h0c0-1.07.65-1.56,1.45-1.1l11.86,6.85a3.47,3.47,0,0,1,1.45,2.77h0C287,171.62,286.32,172.11,285.52,171.64Z" transform="translate(-133.52 -92.65)"/><path class="cls-2" d="M301,180.56l-9.13-5.27a3.5,3.5,0,0,1-1.45-2.78h0c0-1.07.65-1.56,1.45-1.1l9.13,5.27a3.49,3.49,0,0,1,1.45,2.78h0C302.41,180.53,301.76,181,301,180.56Z" transform="translate(-133.52 -92.65)"/><path class="cls-2" d="M283.07,155.56l-9.13-5.27a3.51,3.51,0,0,1-1.46-2.78h0c0-1.07.66-1.57,1.46-1.1l9.13,5.27a3.49,3.49,0,0,1,1.45,2.78h0C284.52,155.53,283.87,156,283.07,155.56Z" transform="translate(-133.52 -92.65)"/><path class="cls-2" d="M298.78,164.63l-9.13-5.27a3.5,3.5,0,0,1-1.45-2.78h0c0-1.07.65-1.56,1.45-1.1l9.13,5.27a3.49,3.49,0,0,1,1.45,2.78h0C300.23,164.6,299.58,165.09,298.78,164.63Z" transform="translate(-133.52 -92.65)"/><path class="cls-2" d="M298.78,215.68l-9.13-5.27a3.49,3.49,0,0,1-1.45-2.78h0c0-1.07.65-1.56,1.45-1.1l9.13,5.27a3.5,3.5,0,0,1,1.45,2.78h0C300.23,215.65,299.58,216.14,298.78,215.68Z" transform="translate(-133.52 -92.65)"/><path class="cls-2" d="M261.4,165.05l-6-3.44a3.5,3.5,0,0,1-1.45-2.78h0c0-1.07.65-1.56,1.45-1.1l6,3.44a3.5,3.5,0,0,1,1.45,2.78h0C262.85,165,262.2,165.52,261.4,165.05Z" transform="translate(-133.52 -92.65)"/><path class="cls-2" d="M283.38,185.08l-27.95-16.14a3.47,3.47,0,0,1-1.45-2.77h0c0-1.08.65-1.57,1.45-1.1l27.95,16.13a3.49,3.49,0,0,1,1.45,2.78h0C284.83,185.05,284.18,185.54,283.38,185.08Z" transform="translate(-133.52 -92.65)"/><path class="cls-2" d="M283.38,200l-27.95-16.14a3.49,3.49,0,0,1-1.45-2.78h0c0-1.07.65-1.56,1.45-1.1l27.95,16.14a3.47,3.47,0,0,1,1.45,2.78h0C284.83,200,284.18,200.45,283.38,200Z" transform="translate(-133.52 -92.65)"/><path class="cls-2" d="M283.38,206.79l-27.95-16.14a3.47,3.47,0,0,1-1.45-2.78h0c0-1.07.65-1.56,1.45-1.09l27.95,16.13a3.49,3.49,0,0,1,1.45,2.78h0C284.83,206.76,284.18,207.25,283.38,206.79Z" transform="translate(-133.52 -92.65)"/><path class="cls-2" d="M269.37,184.33l-13.94-8.05A3.49,3.49,0,0,1,254,173.5h0c0-1.07.65-1.56,1.45-1.1l13.94,8a3.47,3.47,0,0,1,1.46,2.78h0C270.83,184.3,270.18,184.79,269.37,184.33Z" transform="translate(-133.52 -92.65)"/><path class="cls-2" d="M290.73,196.66l-13.94-8a3.49,3.49,0,0,1-1.45-2.78h0c0-1.07.65-1.56,1.45-1.1l13.94,8.05a3.48,3.48,0,0,1,1.46,2.78h0C292.19,196.63,291.54,197.13,290.73,196.66Z" transform="translate(-133.52 -92.65)"/><path class="cls-4" d="M219.61,186.87l-50.92-29.4a5.93,5.93,0,0,1-2.48-4.73V94.82c0-1.82,1.11-2.66,2.48-1.87l50.92,29.4a5.93,5.93,0,0,1,2.48,4.74V185C222.09,186.82,221,187.66,219.61,186.87Z" transform="translate(-133.52 -92.65)"/><path class="cls-2" d="M186.57,114.18l-11.86-6.85a3.49,3.49,0,0,1-1.45-2.78h0c0-1.07.65-1.56,1.45-1.1l11.86,6.85a3.49,3.49,0,0,1,1.45,2.78h0C188,114.15,187.37,114.64,186.57,114.18Z" transform="translate(-133.52 -92.65)"/><path class="cls-2" d="M190.37,123.71l-15.66-9a3.5,3.5,0,0,1-1.45-2.78h0c0-1.07.65-1.56,1.45-1.1l15.66,9a3.47,3.47,0,0,1,1.45,2.78h0C191.82,123.68,191.17,124.17,190.37,123.71Z" transform="translate(-133.52 -92.65)"/><path class="cls-2" d="M214.45,137.61l-18.16-10.49a3.45,3.45,0,0,1-1.46-2.77h0c0-1.08.65-1.57,1.46-1.1l18.16,10.48a3.51,3.51,0,0,1,1.46,2.78h0C215.91,137.58,215.25,138.08,214.45,137.61Z" transform="translate(-133.52 -92.65)"/><path class="cls-2" d="M186.57,128.85,174.71,122a3.47,3.47,0,0,1-1.45-2.78h0c0-1.07.65-1.56,1.45-1.09L186.57,125a3.5,3.5,0,0,1,1.45,2.78h0C188,128.82,187.37,129.31,186.57,128.85Z" transform="translate(-133.52 -92.65)"/><path class="cls-2" d="M204.8,139.38l-11.86-6.85a3.49,3.49,0,0,1-1.45-2.78h0c0-1.07.65-1.56,1.45-1.1l11.86,6.85a3.48,3.48,0,0,1,1.46,2.78h0C206.26,139.35,205.6,139.84,204.8,139.38Z" transform="translate(-133.52 -92.65)"/><path class="cls-2" d="M180.68,132.78l-6-3.44a3.49,3.49,0,0,1-1.45-2.78h0c0-1.07.65-1.56,1.45-1.1l6,3.44a3.5,3.5,0,0,1,1.45,2.78h0C182.13,132.76,181.48,133.25,180.68,132.78Z" transform="translate(-133.52 -92.65)"/><path class="cls-2" d="M202.66,152.81l-27.95-16.13a3.5,3.5,0,0,1-1.45-2.78h0c0-1.07.65-1.57,1.45-1.1l27.95,16.13a3.5,3.5,0,0,1,1.45,2.78h0C204.11,152.78,203.46,153.27,202.66,152.81Z" transform="translate(-133.52 -92.65)"/><path class="cls-2" d="M202.66,167.72l-27.95-16.14a3.49,3.49,0,0,1-1.45-2.78h0c0-1.07.65-1.56,1.45-1.1l27.95,16.14a3.49,3.49,0,0,1,1.45,2.78h0C204.11,167.69,203.46,168.18,202.66,167.72Z" transform="translate(-133.52 -92.65)"/><path class="cls-2" d="M214.45,174.52l-6.34-3.66a3.47,3.47,0,0,1-1.45-2.77h0c0-1.08.65-1.57,1.45-1.1l6.34,3.66a3.48,3.48,0,0,1,1.46,2.77h0C215.91,174.5,215.25,175,214.45,174.52Z" transform="translate(-133.52 -92.65)"/><path class="cls-2" d="M188.65,152.06,174.71,144a3.49,3.49,0,0,1-1.45-2.78h0c0-1.07.65-1.56,1.45-1.1l13.94,8.05a3.48,3.48,0,0,1,1.46,2.78h0C190.11,152,189.46,152.52,188.65,152.06Z" transform="translate(-133.52 -92.65)"/><path class="cls-5" d="M354.12,200.37,303.2,171a5.93,5.93,0,0,1-2.48-4.74V108.32c0-1.82,1.11-2.66,2.48-1.87l50.92,29.4a5.93,5.93,0,0,1,2.48,4.73v57.91C356.6,200.32,355.49,201.16,354.12,200.37Z" transform="translate(-133.52 -92.65)"/><path class="cls-2" d="M321.09,127.67l-11.86-6.84a3.48,3.48,0,0,1-1.46-2.78h0c0-1.07.65-1.56,1.46-1.1l11.86,6.85a3.47,3.47,0,0,1,1.45,2.77h0C322.54,127.65,321.89,128.14,321.09,127.67Z" transform="translate(-133.52 -92.65)"/><path class="cls-2" d="M348.06,143.25,336.2,136.4a3.49,3.49,0,0,1-1.45-2.78h0c0-1.07.65-1.56,1.45-1.1l11.86,6.85a3.49,3.49,0,0,1,1.46,2.78h0C349.52,143.22,348.86,143.71,348.06,143.25Z" transform="translate(-133.52 -92.65)"/><path class="cls-2" d="M330.87,133.32l-4.47-2.58a3.47,3.47,0,0,1-1.46-2.78h0c0-1.07.65-1.56,1.46-1.1l4.47,2.59a3.48,3.48,0,0,1,1.46,2.77h0C332.33,133.3,331.67,133.79,330.87,133.32Z" transform="translate(-133.52 -92.65)"/><path class="cls-2" d="M340,145.94l-30.79-17.78a3.45,3.45,0,0,1-1.46-2.78h0c0-1.07.65-1.56,1.46-1.09L340,142.06a3.51,3.51,0,0,1,1.46,2.78h0C341.48,145.91,340.82,146.41,340,145.94Z" transform="translate(-133.52 -92.65)"/><path class="cls-2" d="M321.09,142.35l-11.86-6.85a3.47,3.47,0,0,1-1.46-2.78h0c0-1.07.65-1.56,1.46-1.1l11.86,6.85a3.49,3.49,0,0,1,1.45,2.78h0C322.54,142.32,321.89,142.81,321.09,142.35Z" transform="translate(-133.52 -92.65)"/><path class="cls-2" d="M339.32,152.87,327.46,146a3.48,3.48,0,0,1-1.46-2.78h0c0-1.08.65-1.57,1.46-1.1L339.32,149a3.5,3.5,0,0,1,1.45,2.78h0C340.77,152.84,340.12,153.34,339.32,152.87Z" transform="translate(-133.52 -92.65)"/><path class="cls-2" d="M315.19,146.28l-6-3.44a3.48,3.48,0,0,1-1.46-2.78h0c0-1.07.65-1.57,1.46-1.1l6,3.44a3.47,3.47,0,0,1,1.46,2.78h0C316.65,146.25,316,146.74,315.19,146.28Z" transform="translate(-133.52 -92.65)"/><path class="cls-2" d="M337.17,166.31l-27.94-16.14a3.47,3.47,0,0,1-1.46-2.78h0c0-1.07.65-1.56,1.46-1.1l27.94,16.14a3.47,3.47,0,0,1,1.46,2.78h0C338.63,166.28,338,166.77,337.17,166.31Z" transform="translate(-133.52 -92.65)"/><path class="cls-2" d="M323.17,165.56l-13.94-8.05a3.48,3.48,0,0,1-1.46-2.78h0c0-1.07.65-1.57,1.46-1.1l13.94,8.05a3.49,3.49,0,0,1,1.45,2.78h0C324.62,165.53,324,166,323.17,165.56Z" transform="translate(-133.52 -92.65)"/><path class="cls-2" d="M316,168.65l-6.77-3.91a3.48,3.48,0,0,1-1.46-2.78h0c0-1.07.65-1.57,1.46-1.1l6.77,3.91a3.49,3.49,0,0,1,1.45,2.78h0C317.45,168.62,316.8,169.11,316,168.65Z" transform="translate(-133.52 -92.65)"/><path class="cls-2" d="M328.52,175.88,321.75,172a3.51,3.51,0,0,1-1.46-2.78h0c0-1.07.66-1.57,1.46-1.1l6.77,3.91a3.48,3.48,0,0,1,1.46,2.78h0C330,175.85,329.32,176.34,328.52,175.88Z" transform="translate(-133.52 -92.65)"/><path class="cls-2" d="M348.06,187.16l-14.28-8.25a3.49,3.49,0,0,1-1.45-2.78h0c0-1.07.65-1.56,1.45-1.1l14.28,8.25a3.49,3.49,0,0,1,1.46,2.78h0C349.52,187.13,348.86,187.62,348.06,187.16Z" transform="translate(-133.52 -92.65)"/><path class="cls-6" d="M200.35,240.35l-11.82,2.29-11.81-2.29s0,1.38,4.43,11.17a3.1,3.1,0,0,0,.24.53l0,0h0a4.87,4.87,0,0,0,1.81,1.68,11.78,11.78,0,0,0,10.69,0,4,4,0,0,0,2.16-2.63C200.39,241.69,200.35,240.35,200.35,240.35Z" transform="translate(-133.52 -92.65)"/><ellipse class="cls-2" cx="55.05" cy="147.1" rx="11.9" ry="6.87"/><path class="cls-7" d="M188.57,245.85a15.7,15.7,0,0,1-8.2-2.1c-1.82-1.13-2.87-2.59-2.87-4s1.05-2.87,2.87-4a16,16,0,0,1,8.2-2.09,15.76,15.76,0,0,1,8.2,2.09c1.83,1.14,2.87,2.6,2.87,4s-1,2.87-2.87,4A16,16,0,0,1,188.57,245.85Z" transform="translate(-133.52 -92.65)"/><path class="cls-8" d="M198.13,244.85s1.51-3.16,4.19-2.8,2.54,4.46-1.14,6.21c-2.15,1-3.61,0-5.89,3" transform="translate(-133.52 -92.65)"/><polygon class="cls-9" points="107.25 200.62 81.62 185.72 81.62 185.13 107.24 200.02 107.25 200.62"/><path class="cls-10" d="M267.44,272.12l-25.62-14.89c.74.42,1,1.52.55,2.86a5.48,5.48,0,0,1-2.34,3.16l-25.18,14.53,25.63,14.9,25.18-14.54A5.58,5.58,0,0,0,268,275C268.4,273.64,268.18,272.54,267.44,272.12Z" transform="translate(-133.52 -92.65)"/><path class="cls-11" d="M254.47,261.14l-.05-17-25.62-14.9,0,17c0,2.28.79,4,2.19,4.79l25.63,14.89C255.25,265.12,254.48,263.42,254.47,261.14Z" transform="translate(-133.52 -92.65)"/><path class="cls-9" d="M255.22,243.81l.05,17c0,2.12.73,3.71,2,4.46l10.78,6.19c.89.51,1.15,1.83.67,3.45a6.64,6.64,0,0,1-2.82,3.79l-25.18,14.54v-.59l25.18-14.54a5.54,5.54,0,0,0,2.34-3.15c.4-1.35.19-2.45-.55-2.87l-10.79-6.19c-1.4-.81-2.18-2.51-2.19-4.79l-.05-17Z" transform="translate(-133.52 -92.65)"/><path class="cls-12" d="M292.25,203l-93.09-53.74a1.09,1.09,0,0,0-1.11-.11l-2.31,1.34a1.09,1.09,0,0,1,1.11.11l93.09,53.74a3.41,3.41,0,0,1,1.55,2.69l-.19,67.24a1.08,1.08,0,0,1-.45,1l2.31-1.34a1.11,1.11,0,0,0,.45-1l.19-67.24A3.43,3.43,0,0,0,292.25,203Z" transform="translate(-133.52 -92.65)"/><path class="cls-7" d="M290.22,204.39a3.21,3.21,0,0,1,1.56,2.56l-.18,60.88-96.2-55.55.17-60.87c0-1,.7-1.26,1.56-.76Z" transform="translate(-133.52 -92.65)"/><path class="cls-13" d="M291.6,267.83v6.36c0,1-.71,1.53-1.57,1l-93.09-53.75a3.71,3.71,0,0,1-1.55-2.83l0-6.37Z" transform="translate(-133.52 -92.65)"/><path class="cls-14" d="M277.94,262.28a1.25,1.25,0,0,1,.56,1c0,.36-.25.5-.57.32a1.26,1.26,0,0,1-.57-1C277.36,262.24,277.62,262.09,277.94,262.28Z" transform="translate(-133.52 -92.65)"/><path class="cls-14" d="M285.2,266.47a1.26,1.26,0,0,1,.57,1c0,.36-.26.51-.57.33a1.25,1.25,0,0,1-.57-1C284.63,266.43,284.89,266.29,285.2,266.47Z" transform="translate(-133.52 -92.65)"/><path class="cls-15" d="M220.81,197.88l-20.45-11.8a2.31,2.31,0,0,1-1-1.84h0c0-.72.43-1,1-.73l20.45,11.8a2.31,2.31,0,0,1,1,1.84h0C221.77,197.87,221.34,198.19,220.81,197.88Z" transform="translate(-133.52 -92.65)"/><path class="cls-16" d="M208.23,195.5,200.36,191a2.31,2.31,0,0,1-1-1.84h0c0-.72.43-1,1-.73l7.87,4.54a2.31,2.31,0,0,1,1,1.85h0C209.2,195.48,208.77,195.8,208.23,195.5Z" transform="translate(-133.52 -92.65)"/><path class="cls-17" d="M220.34,202.48l-7.87-4.54a2.3,2.3,0,0,1-1-1.85h0c0-.71.43-1,1-.73l7.87,4.55a2.31,2.31,0,0,1,1,1.84h0C221.3,202.47,220.87,202.79,220.34,202.48Z" transform="translate(-133.52 -92.65)"/><path class="cls-18" d="M204.32,198.11l-4-2.29a2.31,2.31,0,0,1-1-1.84h0c0-.71.43-1,1-.73l4,2.28a2.31,2.31,0,0,1,1,1.85h0C205.29,198.09,204.86,198.42,204.32,198.11Z" transform="translate(-133.52 -92.65)"/><path class="cls-19" d="M218.92,211.4l-18.56-10.71a2.31,2.31,0,0,1-1-1.84h0c0-.71.43-1,1-.73l18.56,10.71a2.31,2.31,0,0,1,1,1.84h0C219.88,211.39,219.45,211.71,218.92,211.4Z" transform="translate(-133.52 -92.65)"/><path class="cls-20" d="M209.62,210.91l-9.26-5.35a2.31,2.31,0,0,1-1-1.84h0c0-.71.43-1,1-.73l9.26,5.34a2.33,2.33,0,0,1,1,1.85h0C210.58,210.89,210.15,211.22,209.62,210.91Z" transform="translate(-133.52 -92.65)"/><path class="cls-21" d="M204.86,213l-4.5-2.6a2.31,2.31,0,0,1-1-1.84h0c0-.71.43-1,1-.73l4.5,2.59a2.33,2.33,0,0,1,1,1.85h0C205.82,212.94,205.39,213.27,204.86,213Z" transform="translate(-133.52 -92.65)"/><path class="cls-22" d="M213.17,217.76l-4.49-2.6a2.29,2.29,0,0,1-1-1.84h0c0-.71.43-1,1-.73l4.49,2.59a2.34,2.34,0,0,1,1,1.85h0C214.14,217.74,213.7,218.07,213.17,217.76Z" transform="translate(-133.52 -92.65)"/><path class="cls-23" d="M226.14,225.25l-9.48-5.48a2.3,2.3,0,0,1-1-1.84h0c0-.71.43-1,1-.73l9.48,5.47a2.31,2.31,0,0,1,1,1.85h0C227.11,225.23,226.68,225.56,226.14,225.25Z" transform="translate(-133.52 -92.65)"/><path class="cls-24" d="M255.9,309.75c.86.5,1,1.24.13,1.73l-25.59,14.88a3.72,3.72,0,0,1-3.24.07l-93.09-53.75c-.86-.49-.73-1.37.12-1.87l25.59-14.87a3.17,3.17,0,0,1,3,.07Z" transform="translate(-133.52 -92.65)"/><path class="cls-25" d="M256,311.48l-25.59,14.88a3.72,3.72,0,0,1-3.24.07l-93.09-53.75a1,1,0,0,1-.58-.86v2.07a1,1,0,0,0,.59.87L227.2,328.5a3.67,3.67,0,0,0,3.23-.07L256,313.56a1,1,0,0,0,.59-.8v-2.07A1,1,0,0,1,256,311.48Z" transform="translate(-133.52 -92.65)"/><polygon class="cls-26" points="44.31 177.19 40.3 179.52 32.73 175.15 36.75 172.82 44.31 177.19"/><polygon class="cls-27" points="92.32 210.84 88.31 213.17 80.74 208.8 84.75 206.47 92.32 210.84"/><g class="cls-28"><polygon class="cls-29" points="53.17 182.3 49.15 184.63 41.59 180.26 45.6 177.93 53.17 182.3"/><polygon class="cls-30" points="48.04 185.28 44.03 187.61 36.46 183.24 40.48 180.91 48.04 185.28"/><polygon class="cls-31" points="62.02 187.41 58.01 189.74 50.44 185.38 54.46 183.04 62.02 187.41"/><polygon class="cls-32" points="42.92 188.26 38.9 190.59 31.34 186.22 35.35 183.89 42.92 188.26"/><polygon class="cls-33" points="56.9 190.39 52.88 192.72 45.32 188.35 49.33 186.02 56.9 190.39"/><polygon class="cls-34" points="37.79 191.23 33.78 193.57 26.21 189.2 30.23 186.87 37.79 191.23"/><polygon class="cls-35" points="70.88 192.52 66.86 194.86 59.3 190.49 63.31 188.16 70.88 192.52"/><polygon class="cls-36" points="51.77 193.37 47.76 195.7 40.19 191.33 44.2 189 51.77 193.37"/><polygon class="cls-37" points="65.75 195.5 61.74 197.84 54.17 193.47 58.19 191.13 65.75 195.5"/><polygon class="cls-38" points="79.73 197.64 75.72 199.97 68.15 195.6 72.17 193.27 79.73 197.64"/><polygon class="cls-39" points="60.63 198.48 56.61 200.81 49.05 196.44 53.06 194.11 60.63 198.48"/><polygon class="cls-40" points="74.61 200.61 70.59 202.95 63.03 198.58 67.04 196.25 74.61 200.61"/><polygon class="cls-41" points="88.59 202.75 84.57 205.08 77.01 200.72 81.02 198.38 88.59 202.75"/><polygon class="cls-42" points="69.48 203.59 65.47 205.93 57.9 201.56 61.92 199.23 69.48 203.59"/><polygon class="cls-43" points="97.44 207.86 93.43 210.19 85.86 205.83 89.88 203.49 97.44 207.86"/><polygon class="cls-44" points="78.34 208.71 74.33 211.04 66.76 206.67 70.77 204.34 78.34 208.71"/><polygon class="cls-45" points="73.21 211.78 69.37 214.02 42.72 198.63 39.45 196.74 35.07 194.21 38.91 191.98 43.29 194.51 46.56 196.4 73.21 211.78"/><polygon class="cls-46" points="101.17 215.95 97.16 218.28 89.59 213.92 93.61 211.58 101.17 215.95"/><polygon class="cls-47" points="82.07 216.8 78.06 219.13 70.49 214.76 74.5 212.43 82.07 216.8"/><polygon class="cls-48" points="95.88 218.93 92.03 221.16 85.93 217.64 84.56 216.85 75.78 211.78 79.63 209.55 88.4 214.61 89.77 215.41 95.88 218.93"/><polygon class="cls-49" points="115.16 218.19 110.12 221.11 109.17 221.66 106.19 223.4 98.45 218.93 101.44 217.19 102.38 216.65 103.57 215.95 94.8 210.89 98.65 208.66 107.5 213.77 109.48 214.91 115.16 218.19"/><polygon class="cls-50" points="90.92 221.91 86.91 224.24 79.34 219.87 83.36 217.54 90.92 221.91"/><polygon class="cls-51" points="104.9 224.04 100.89 226.38 93.33 222.01 97.34 219.68 104.9 224.04"/><polygon class="cls-52" points="99.78 227.02 95.77 229.35 88.2 224.99 92.21 222.65 99.78 227.02"/></g><polygon class="cls-53" points="39.19 180.16 35.17 182.5 27.61 178.13 31.62 175.8 39.19 180.16"/><polygon class="cls-54" points="25.2 178.03 21.19 180.36 13.63 176 17.64 173.66 25.2 178.03"/><polygon class="cls-55" points="20.08 181.01 16.07 183.34 8.5 178.97 12.52 176.64 20.08 181.01"/><polygon class="cls-56" points="30.33 175.05 26.32 177.38 18.75 173.02 22.77 170.68 30.33 175.05"/><polygon class="cls-57" points="35.46 172.07 31.44 174.41 23.88 170.04 27.89 167.71 35.46 172.07"/><polygon class="cls-58" points="83.47 205.73 79.45 208.06 71.88 203.69 75.9 201.36 83.47 205.73"/><polygon class="cls-59" points="28.94 186.12 24.92 188.45 17.36 184.09 21.37 181.75 28.94 186.12"/><polygon class="cls-60" points="34.06 183.14 30.05 185.47 22.48 181.11 26.5 178.78 34.06 183.14"/><path class="cls-61" d="M291,312.56c.48-.27,1-.52,1.41-.73,6.35-2.9,7.29,1.26,7.34,1.48L276,327C277.45,324.75,284.86,316.13,291,312.56Z" transform="translate(-133.52 -92.65)"/><path class="cls-62" d="M285.32,303.75c-1.06-.62-2.85-.82-5.84.55a15.87,15.87,0,0,0-1.41.73c-6.18,3.56-13.58,12.18-15,14.47L276,327c1.43-2.28,8.84-10.9,15-14.47.48-.27,1-.52,1.41-.73,3-1.37,4.78-1.17,5.84-.55Z" transform="translate(-133.52 -92.65)"/><path class="cls-14" d="M283.55,309.78a23.3,23.3,0,0,1,2.88-1.43,1.53,1.53,0,0,0-2-1.31c-1.13.25-2.19,2.2-2.27,3.55l.75.19.91-.56-.38-.4Z" transform="translate(-133.52 -92.65)"/><path class="cls-63" d="M283,310.78a26.59,26.59,0,0,1,3.84-2s-.45-1.8-1.57-1.51S283,309.43,283,310.78Z" transform="translate(-133.52 -92.65)"/><path class="cls-64" d="M221.43,151.22a4.34,4.34,0,0,1,1.94,3.37l-.1,37.51c0,1.24-.89,1.74-2,1.11l-32.64-18.84a4.29,4.29,0,0,1-1.95-3.37l.11-37.5c0-1.24.88-1.74,2-1.12Z" transform="translate(-133.52 -92.65)"/><path class="cls-65" d="M224.14,149.48,191.5,130.64a1.38,1.38,0,0,0-1.39-.14l-3,1.74a1.42,1.42,0,0,1,1.4.14l32.63,18.84a4.32,4.32,0,0,1,2,3.37L223,192.1a1.36,1.36,0,0,1-.57,1.25l3-1.74a1.37,1.37,0,0,0,.57-1.26l.11-37.5A4.29,4.29,0,0,0,224.14,149.48Z" transform="translate(-133.52 -92.65)"/><text class="cls-66" transform="matrix(0.87, 0.5, 0, 1, 64.65, 70.76)">JS</text><path class="cls-67" d="M273.31,120.6a4.28,4.28,0,0,1,1.94,3.37l-.1,37.51c0,1.24-.88,1.74-2,1.12l-32.64-18.85a4.29,4.29,0,0,1-2-3.37l.11-37.5c0-1.24.88-1.74,2-1.12Z" transform="translate(-133.52 -92.65)"/><path class="cls-68" d="M276,118.86,243.39,100a1.42,1.42,0,0,0-1.4-.14l-3,1.74a1.41,1.41,0,0,1,1.39.14L273,120.6a4.32,4.32,0,0,1,2,3.37l-.11,37.51a1.36,1.36,0,0,1-.57,1.25l3-1.74a1.37,1.37,0,0,0,.57-1.26l.11-37.5A4.31,4.31,0,0,0,276,118.86Z" transform="translate(-133.52 -92.65)"/><text class="cls-66" transform="matrix(0.87, 0.5, 0, 1, 112.75, 38.97)">CSS</text><path class="cls-14" d="M279.69,208.63a4.31,4.31,0,0,1,1.94,3.37l-.1,37.51c0,1.24-.88,1.74-2,1.12l-32.64-18.85a4.29,4.29,0,0,1-2-3.37l.11-37.5c0-1.24.88-1.74,2-1.12Z" transform="translate(-133.52 -92.65)"/><path class="cls-69" d="M282.4,206.89l-32.64-18.84a1.4,1.4,0,0,0-1.39-.14l-3,1.74a1.41,1.41,0,0,1,1.39.14l32.63,18.84a4.32,4.32,0,0,1,2,3.37l-.11,37.51a1.36,1.36,0,0,1-.57,1.25l3-1.74a1.37,1.37,0,0,0,.57-1.26l.11-37.5A4.31,4.31,0,0,0,282.4,206.89Z" transform="translate(-133.52 -92.65)"/><text class="cls-66" transform="matrix(0.87, 0.5, 0, 1, 118.14, 127.25)">PHP</text><path class="cls-70" d="M348.15,244.78a4.29,4.29,0,0,1,2,3.37l-.11,37.5c0,1.25-.88,1.75-1.95,1.12L315.4,267.93a4.29,4.29,0,0,1-1.95-3.37l.11-37.51c0-1.23.88-1.73,2-1.11Z" transform="translate(-133.52 -92.65)"/><path class="cls-71" d="M350.87,243,318.23,224.2a1.36,1.36,0,0,0-1.39-.14l-3,1.74a1.42,1.42,0,0,1,1.4.14l32.63,18.84a4.29,4.29,0,0,1,1.95,3.37l-.11,37.5a1.37,1.37,0,0,1-.57,1.26l3-1.74a1.38,1.38,0,0,0,.57-1.26l.1-37.5A4.25,4.25,0,0,0,350.87,243Z" transform="translate(-133.52 -92.65)"/><text class="cls-66" transform="matrix(0.87, 0.5, 0, 1, 186.22, 161.58)">C++</text></svg>