<svg id="OBJECTS" xmlns="http://www.w3.org/2000/svg" xmlns:xlink="http://www.w3.org/1999/xlink" viewBox="0 0 376.2 399.76"><defs><style>.cls-1{fill:url(#linear-gradient);}.cls-2{fill:url(#linear-gradient-2);}.cls-3,.cls-80{fill:#fff;}.cls-4{fill:url(#linear-gradient-3);}.cls-5{fill:url(#linear-gradient-4);}.cls-6{fill:url(#linear-gradient-5);}.cls-7{fill:#133058;}.cls-8{fill:url(#linear-gradient-6);}.cls-9{fill:url(#linear-gradient-7);}.cls-10,.cls-78{fill:none;stroke-linecap:round;stroke-linejoin:round;}.cls-10{stroke:#fff;stroke-width:0.85px;}.cls-11{fill:#5dc6f0;}.cls-12{fill:url(#linear-gradient-8);}.cls-13{fill:url(#linear-gradient-9);}.cls-14{fill:url(#linear-gradient-10);}.cls-15{fill:url(#linear-gradient-11);}.cls-16{fill:#ff5c98;}.cls-17{fill:url(#linear-gradient-12);}.cls-18{fill:url(#linear-gradient-13);}.cls-19{fill:url(#linear-gradient-14);}.cls-20{fill:url(#linear-gradient-15);}.cls-21{fill:url(#linear-gradient-16);}.cls-22{fill:url(#linear-gradient-17);}.cls-23{fill:url(#linear-gradient-18);}.cls-24{fill:url(#linear-gradient-19);}.cls-25{fill:url(#linear-gradient-20);}.cls-26{fill:#f2f2f2;}.cls-27{fill:url(#linear-gradient-21);}.cls-28{fill:url(#linear-gradient-22);}.cls-29{fill:url(#linear-gradient-23);}.cls-30{isolation:isolate;}.cls-31{fill:url(#linear-gradient-24);}.cls-32{fill:url(#linear-gradient-25);}.cls-33{fill:url(#linear-gradient-26);}.cls-34{fill:url(#linear-gradient-27);}.cls-35{fill:url(#linear-gradient-28);}.cls-36{fill:url(#linear-gradient-29);}.cls-37{fill:url(#linear-gradient-30);}.cls-38{fill:url(#linear-gradient-31);}.cls-39{fill:url(#linear-gradient-32);}.cls-40{fill:url(#linear-gradient-33);}.cls-41{fill:url(#linear-gradient-34);}.cls-42{fill:url(#linear-gradient-35);}.cls-43{fill:url(#linear-gradient-36);}.cls-44{fill:url(#linear-gradient-37);}.cls-45{fill:url(#linear-gradient-38);}.cls-46{fill:url(#linear-gradient-39);}.cls-47{fill:url(#linear-gradient-40);}.cls-48{fill:url(#linear-gradient-41);}.cls-49{fill:url(#linear-gradient-42);}.cls-50{fill:url(#linear-gradient-43);}.cls-51{fill:url(#linear-gradient-44);}.cls-52{fill:url(#linear-gradient-45);}.cls-53{fill:url(#linear-gradient-46);}.cls-54{fill:url(#linear-gradient-47);}.cls-55{fill:url(#linear-gradient-48);}.cls-56{fill:url(#linear-gradient-49);}.cls-57{fill:url(#linear-gradient-50);}.cls-58{fill:url(#linear-gradient-51);}.cls-59{fill:url(#linear-gradient-52);}.cls-60{fill:url(#linear-gradient-53);}.cls-61{fill:url(#linear-gradient-54);}.cls-62{fill:url(#linear-gradient-55);}.cls-63{fill:url(#linear-gradient-56);}.cls-64{fill:url(#linear-gradient-57);}.cls-65{fill:url(#linear-gradient-58);}.cls-66{fill:url(#linear-gradient-59);}.cls-67{fill:#ffb0d2;}.cls-68{fill:#1d2c54;}.cls-69{fill:#0ca8c7;}.cls-70{fill:url(#linear-gradient-60);}.cls-71{fill:url(#linear-gradient-61);}.cls-72{fill:url(#linear-gradient-62);}.cls-73{fill:url(#linear-gradient-63);}.cls-74{fill:#822769;}.cls-75{fill:#ffb79e;}.cls-76{fill:url(#linear-gradient-64);}.cls-77{fill:url(#linear-gradient-65);}.cls-78{stroke:#ffb79e;stroke-width:12.71px;}.cls-79{fill:#8ed7dd;}.cls-80{font-size:15.73px;font-family:Montserrat-Bold, Montserrat Bold;font-weight:700;}.cls-81{fill:#5986ff;}.cls-82{fill:#335ed4;}.cls-83{fill:#b8426d;}.cls-84{fill:#591b48;}</style><linearGradient id="linear-gradient" x1="-21.59" y1="168.49" x2="334.97" y2="377.07" gradientUnits="userSpaceOnUse"><stop offset="0" stop-color="#ff5a72" stop-opacity="0.7"/><stop offset="0.06" stop-color="#ff6072" stop-opacity="0.68"/><stop offset="0.69" stop-color="#ff9a6e" stop-opacity="0.48"/><stop offset="1" stop-color="#ffb06d" stop-opacity="0.4"/></linearGradient><linearGradient id="linear-gradient-2" x1="348.38" y1="167.44" x2="395.67" y2="167.44" xlink:href="#linear-gradient"/><linearGradient id="linear-gradient-3" x1="273.69" y1="108.42" x2="336.85" y2="108.42" xlink:href="#linear-gradient"/><linearGradient id="linear-gradient-4" x1="192.97" y1="69.85" x2="248.85" y2="69.85" xlink:href="#linear-gradient"/><linearGradient id="linear-gradient-5" x1="327.49" y1="83.35" x2="383.37" y2="83.35" xlink:href="#linear-gradient"/><linearGradient id="linear-gradient-6" x1="105.57" y1="211.21" x2="394.44" y2="211.21" gradientUnits="userSpaceOnUse"><stop offset="0" stop-color="#fff"/><stop offset="1" stop-color="#2d4483"/></linearGradient><linearGradient id="linear-gradient-7" x1="203.49" y1="177.65" x2="227.11" y2="177.65" gradientUnits="userSpaceOnUse"><stop offset="0" stop-color="#fff"/><stop offset="1" stop-color="#a4d4ed"/></linearGradient><linearGradient id="linear-gradient-8" x1="241.62" y1="204.89" x2="294.96" y2="204.89" xlink:href="#linear-gradient-7"/><linearGradient id="linear-gradient-9" x1="245.83" y1="163.52" x2="287.64" y2="188.24" xlink:href="#linear-gradient-7"/><linearGradient id="linear-gradient-10" x1="222.51" y1="142.12" x2="320.57" y2="142.12" xlink:href="#linear-gradient-6"/><linearGradient id="linear-gradient-11" x1="222.15" y1="173.79" x2="318.37" y2="173.79" xlink:href="#linear-gradient-7"/><linearGradient id="linear-gradient-12" x1="201.27" y1="100.38" x2="291.43" y2="150.99" xlink:href="#linear-gradient"/><linearGradient id="linear-gradient-13" x1="199.24" y1="104.01" x2="289.4" y2="154.62" xlink:href="#linear-gradient"/><linearGradient id="linear-gradient-14" x1="199.16" y1="104.16" x2="289.31" y2="154.76" xlink:href="#linear-gradient"/><linearGradient id="linear-gradient-15" x1="197.17" y1="107.69" x2="287.33" y2="158.3" xlink:href="#linear-gradient"/><linearGradient id="linear-gradient-16" x1="195.04" y1="111.48" x2="285.2" y2="162.09" xlink:href="#linear-gradient"/><linearGradient id="linear-gradient-17" x1="193" y1="115.13" x2="283.15" y2="165.74" xlink:href="#linear-gradient"/><linearGradient id="linear-gradient-18" x1="190.96" y1="118.75" x2="281.12" y2="169.36" xlink:href="#linear-gradient"/><linearGradient id="linear-gradient-19" x1="190.91" y1="118.85" x2="281.06" y2="169.46" xlink:href="#linear-gradient"/><linearGradient id="linear-gradient-20" x1="190.84" y1="118.98" x2="280.99" y2="169.59" xlink:href="#linear-gradient"/><linearGradient id="linear-gradient-21" x1="160.29" y1="230.27" x2="283.38" y2="230.27" xlink:href="#linear-gradient-6"/><linearGradient id="linear-gradient-22" x1="96.89" y1="153.09" x2="224.87" y2="226.9" xlink:href="#linear-gradient-6"/><linearGradient id="linear-gradient-23" x1="94.31" y1="157.57" x2="222.29" y2="231.37" xlink:href="#linear-gradient-6"/><linearGradient id="linear-gradient-24" x1="96.89" y1="153.09" x2="224.87" y2="226.9" xlink:href="#linear-gradient-6"/><linearGradient id="linear-gradient-25" x1="94.32" y1="157.55" x2="222.3" y2="231.35" xlink:href="#linear-gradient-6"/><linearGradient id="linear-gradient-26" x1="96.89" y1="153.1" x2="224.87" y2="226.9" xlink:href="#linear-gradient-6"/><linearGradient id="linear-gradient-27" x1="91.75" y1="162" x2="219.73" y2="235.81" xlink:href="#linear-gradient-6"/><linearGradient id="linear-gradient-28" x1="94.32" y1="157.55" x2="222.3" y2="231.36" xlink:href="#linear-gradient-6"/><linearGradient id="linear-gradient-29" x1="89.19" y1="166.45" x2="217.17" y2="240.26" xlink:href="#linear-gradient-6"/><linearGradient id="linear-gradient-30" x1="96.89" y1="153.1" x2="224.87" y2="226.91" xlink:href="#linear-gradient-6"/><linearGradient id="linear-gradient-31" x1="91.75" y1="162" x2="219.73" y2="235.81" xlink:href="#linear-gradient-6"/><linearGradient id="linear-gradient-32" x1="94.32" y1="157.56" x2="222.3" y2="231.36" xlink:href="#linear-gradient-6"/><linearGradient id="linear-gradient-33" x1="96.88" y1="153.11" x2="224.86" y2="226.91" xlink:href="#linear-gradient-6"/><linearGradient id="linear-gradient-34" x1="91.75" y1="162.01" x2="219.73" y2="235.82" xlink:href="#linear-gradient-6"/><linearGradient id="linear-gradient-35" x1="94.32" y1="157.56" x2="222.3" y2="231.37" xlink:href="#linear-gradient-6"/><linearGradient id="linear-gradient-36" x1="96.88" y1="153.11" x2="224.86" y2="226.92" xlink:href="#linear-gradient-6"/><linearGradient id="linear-gradient-37" x1="91.75" y1="162.01" x2="219.73" y2="235.82" xlink:href="#linear-gradient-6"/><linearGradient id="linear-gradient-38" x1="96.88" y1="153.12" x2="224.86" y2="226.92" xlink:href="#linear-gradient-6"/><linearGradient id="linear-gradient-39" x1="91.74" y1="162.02" x2="219.72" y2="235.82" xlink:href="#linear-gradient-6"/><linearGradient id="linear-gradient-40" x1="89.18" y1="166.46" x2="217.16" y2="240.27" xlink:href="#linear-gradient-6"/><linearGradient id="linear-gradient-41" x1="94.31" y1="157.57" x2="222.29" y2="231.38" xlink:href="#linear-gradient-6"/><linearGradient id="linear-gradient-42" x1="89.17" y1="166.47" x2="217.15" y2="240.28" xlink:href="#linear-gradient-6"/><linearGradient id="linear-gradient-43" x1="91.74" y1="162.02" x2="219.72" y2="235.83" xlink:href="#linear-gradient-6"/><linearGradient id="linear-gradient-44" x1="95.59" y1="155.35" x2="223.57" y2="229.16" xlink:href="#linear-gradient-6"/><linearGradient id="linear-gradient-45" x1="89.17" y1="166.48" x2="217.15" y2="240.28" xlink:href="#linear-gradient-6"/><linearGradient id="linear-gradient-46" x1="91.74" y1="162.03" x2="219.72" y2="235.84" xlink:href="#linear-gradient-6"/><linearGradient id="linear-gradient-47" x1="89.17" y1="166.48" x2="217.15" y2="240.29" xlink:href="#linear-gradient-6"/><linearGradient id="linear-gradient-48" x1="94.33" y1="157.54" x2="222.31" y2="231.35" xlink:href="#linear-gradient-6"/><linearGradient id="linear-gradient-49" x1="91.76" y1="161.99" x2="219.74" y2="235.8" xlink:href="#linear-gradient-6"/><linearGradient id="linear-gradient-50" x1="89.19" y1="166.44" x2="217.17" y2="240.25" xlink:href="#linear-gradient-6"/><linearGradient id="linear-gradient-51" x1="94.33" y1="157.54" x2="222.31" y2="231.34" xlink:href="#linear-gradient-6"/><linearGradient id="linear-gradient-52" x1="96.9" y1="153.09" x2="224.88" y2="226.89" xlink:href="#linear-gradient-6"/><linearGradient id="linear-gradient-53" x1="94.31" y1="157.56" x2="222.29" y2="231.37" xlink:href="#linear-gradient-6"/><linearGradient id="linear-gradient-54" x1="89.19" y1="166.45" x2="217.17" y2="240.25" xlink:href="#linear-gradient-6"/><linearGradient id="linear-gradient-55" x1="91.76" y1="162" x2="219.74" y2="235.8" xlink:href="#linear-gradient-6"/><linearGradient id="linear-gradient-56" x1="322.5" y1="253.99" x2="269.77" y2="223.93" xlink:href="#linear-gradient-7"/><linearGradient id="linear-gradient-57" x1="289.82" y1="245.09" x2="325.05" y2="245.09" xlink:href="#linear-gradient-7"/><linearGradient id="linear-gradient-58" x1="293.02" y1="231.84" x2="312.67" y2="239.56" gradientUnits="userSpaceOnUse"><stop offset="0" stop-color="#fff"/><stop offset="1" stop-color="#e02066"/></linearGradient><linearGradient id="linear-gradient-59" x1="174.11" y1="145.61" x2="205.69" y2="145.61" xlink:href="#linear-gradient"/><linearGradient id="linear-gradient-60" x1="143.98" y1="313.63" x2="226.65" y2="313.63" gradientUnits="userSpaceOnUse"><stop offset="0" stop-color="#496dd1"/><stop offset="1" stop-color="#2d4483"/></linearGradient><linearGradient id="linear-gradient-61" x1="192.88" y1="283.32" x2="127.26" y2="367.84" xlink:href="#linear-gradient-6"/><linearGradient id="linear-gradient-62" x1="179.71" y1="296.7" x2="245.67" y2="330.71" gradientUnits="userSpaceOnUse"><stop offset="0" stop-color="#5986ff"/><stop offset="1" stop-color="#2d4483"/></linearGradient><linearGradient id="linear-gradient-63" x1="144.53" y1="209.36" x2="221.83" y2="341.29" gradientUnits="userSpaceOnUse"><stop offset="0" stop-color="#ff5a72"/><stop offset="0.23" stop-color="#ca5c80"/><stop offset="0.6" stop-color="#785e95"/><stop offset="0.87" stop-color="#445fa3"/><stop offset="1" stop-color="#3060a8"/></linearGradient><linearGradient id="linear-gradient-64" x1="165.7" y1="288.84" x2="214.03" y2="288.84" xlink:href="#linear-gradient-6"/><linearGradient id="linear-gradient-65" x1="112.97" y1="190.02" x2="175.68" y2="352.54" gradientUnits="userSpaceOnUse"><stop offset="0" stop-color="#fff"/><stop offset="0.23" stop-color="#cad6e9"/><stop offset="0.6" stop-color="#7897c6"/><stop offset="0.87" stop-color="#446fb0"/><stop offset="1" stop-color="#3060a8"/></linearGradient></defs><ellipse class="cls-1" cx="188.1" cy="291.16" rx="188.1" ry="108.6"/><path class="cls-2" d="M393.57,207.18,350.48,182.3a5,5,0,0,1-2.1-4v-49c0-1.54.94-2.25,2.1-1.58l43.09,24.88a5,5,0,0,1,2.1,4v49C395.67,207.14,394.73,207.85,393.57,207.18Z" transform="translate(-61.9 -22.59)"/><path class="cls-3" d="M368.74,149.14l-11.86-6.84a3.5,3.5,0,0,1-1.45-2.78h0c0-1.07.65-1.57,1.45-1.1l11.86,6.84A3.51,3.51,0,0,1,370.2,148h0C370.2,149.12,369.54,149.61,368.74,149.14Z" transform="translate(-61.9 -22.59)"/><path class="cls-3" d="M387.68,167.41l-30.8-17.78a3.47,3.47,0,0,1-1.45-2.78h0c0-1.07.65-1.56,1.45-1.1l30.8,17.78a3.5,3.5,0,0,1,1.45,2.78h0C389.13,167.38,388.48,167.88,387.68,167.41Z" transform="translate(-61.9 -22.59)"/><path class="cls-3" d="M368.74,163.82,356.88,157a3.49,3.49,0,0,1-1.45-2.78h0c0-1.07.65-1.56,1.45-1.1l11.86,6.85a3.48,3.48,0,0,1,1.46,2.78h0C370.2,163.79,369.54,164.28,368.74,163.82Z" transform="translate(-61.9 -22.59)"/><path class="cls-3" d="M387,174.34l-11.86-6.85a3.47,3.47,0,0,1-1.45-2.78h0c0-1.07.65-1.56,1.45-1.09L387,170.46a3.51,3.51,0,0,1,1.46,2.78h0C388.43,174.31,387.77,174.8,387,174.34Z" transform="translate(-61.9 -22.59)"/><path class="cls-3" d="M362.85,167.75l-6-3.45a3.47,3.47,0,0,1-1.45-2.77h0c0-1.08.65-1.57,1.45-1.1l6,3.44a3.49,3.49,0,0,1,1.45,2.78h0C364.3,167.72,363.65,168.21,362.85,167.75Z" transform="translate(-61.9 -22.59)"/><path class="cls-3" d="M384.83,187.78l-27.95-16.14a3.49,3.49,0,0,1-1.45-2.78h0c0-1.07.65-1.56,1.45-1.1l27.95,16.14a3.47,3.47,0,0,1,1.45,2.78h0C386.28,187.75,385.63,188.24,384.83,187.78Z" transform="translate(-61.9 -22.59)"/><path class="cls-3" d="M370.83,187,356.88,179a3.5,3.5,0,0,1-1.45-2.78h0c0-1.07.65-1.57,1.45-1.1l13.95,8.05a3.47,3.47,0,0,1,1.45,2.78h0C372.28,187,371.63,187.49,370.83,187Z" transform="translate(-61.9 -22.59)"/><path class="cls-4" d="M334,161.49l-57.55-33.22a6.74,6.74,0,0,1-2.8-5.36V57.46c0-2.06,1.26-3,2.8-2.12L334,88.57a6.7,6.7,0,0,1,2.81,5.35v65.46C336.85,161.44,335.59,162.39,334,161.49Z" transform="translate(-61.9 -22.59)"/><path class="cls-3" d="M294.06,76.39,282.2,69.54a3.49,3.49,0,0,1-1.46-2.78h0c0-1.07.66-1.56,1.46-1.1l11.86,6.85a3.49,3.49,0,0,1,1.45,2.78h0C295.51,76.36,294.86,76.85,294.06,76.39Z" transform="translate(-61.9 -22.59)"/><path class="cls-3" d="M313,94.65,282.2,76.88a3.51,3.51,0,0,1-1.46-2.78h0c0-1.07.66-1.57,1.46-1.1L313,90.78a3.45,3.45,0,0,1,1.46,2.77h0C314.45,94.63,313.8,95.12,313,94.65Z" transform="translate(-61.9 -22.59)"/><path class="cls-3" d="M294.06,91.06,282.2,84.21a3.49,3.49,0,0,1-1.46-2.78h0c0-1.07.66-1.56,1.46-1.1l11.86,6.85A3.49,3.49,0,0,1,295.51,90h0C295.51,91,294.86,91.52,294.06,91.06Z" transform="translate(-61.9 -22.59)"/><path class="cls-3" d="M312.29,101.58l-11.86-6.84A3.51,3.51,0,0,1,299,92h0c0-1.07.66-1.57,1.46-1.1l11.86,6.84a3.5,3.5,0,0,1,1.45,2.78h0C313.74,101.55,313.09,102.05,312.29,101.58Z" transform="translate(-61.9 -22.59)"/><path class="cls-3" d="M327.72,110.5l-9.12-5.27a3.48,3.48,0,0,1-1.46-2.78h0c0-1.07.65-1.57,1.46-1.1l9.12,5.27a3.47,3.47,0,0,1,1.46,2.78h0C329.18,110.47,328.53,111,327.72,110.5Z" transform="translate(-61.9 -22.59)"/><path class="cls-3" d="M309.83,85.49l-9.12-5.26a3.48,3.48,0,0,1-1.46-2.78h0c0-1.08.65-1.57,1.46-1.1l9.12,5.27a3.45,3.45,0,0,1,1.46,2.78h0C311.29,85.47,310.64,86,309.83,85.49Z" transform="translate(-61.9 -22.59)"/><path class="cls-3" d="M325.55,94.57l-9.13-5.27A3.51,3.51,0,0,1,315,86.52h0c0-1.07.66-1.57,1.46-1.1l9.13,5.27A3.49,3.49,0,0,1,327,93.47h0C327,94.54,326.35,95,325.55,94.57Z" transform="translate(-61.9 -22.59)"/><path class="cls-3" d="M325.55,145.62l-9.13-5.27a3.49,3.49,0,0,1-1.46-2.78h0c0-1.07.66-1.56,1.46-1.1l9.13,5.27a3.49,3.49,0,0,1,1.45,2.78h0C327,145.59,326.35,146.08,325.55,145.62Z" transform="translate(-61.9 -22.59)"/><path class="cls-3" d="M288.16,95l-6-3.44a3.51,3.51,0,0,1-1.46-2.78h0c0-1.07.66-1.57,1.46-1.1l6,3.44a3.48,3.48,0,0,1,1.46,2.78h0C289.62,95,289,95.46,288.16,95Z" transform="translate(-61.9 -22.59)"/><path class="cls-3" d="M310.15,115,282.2,98.88a3.48,3.48,0,0,1-1.46-2.78h0c0-1.07.66-1.56,1.46-1.1l27.95,16.14a3.49,3.49,0,0,1,1.45,2.78h0C311.6,115,311,115.48,310.15,115Z" transform="translate(-61.9 -22.59)"/><path class="cls-3" d="M310.15,129.92,282.2,113.79a3.49,3.49,0,0,1-1.46-2.78h0c0-1.07.66-1.56,1.46-1.1L310.15,126a3.5,3.5,0,0,1,1.45,2.78h0C311.6,129.9,311,130.39,310.15,129.92Z" transform="translate(-61.9 -22.59)"/><path class="cls-3" d="M310.15,136.73,282.2,120.59a3.49,3.49,0,0,1-1.46-2.78h0c0-1.07.66-1.56,1.46-1.1l27.95,16.14a3.49,3.49,0,0,1,1.45,2.78h0C311.6,136.7,311,137.19,310.15,136.73Z" transform="translate(-61.9 -22.59)"/><path class="cls-3" d="M296.14,114.27l-13.94-8a3.49,3.49,0,0,1-1.46-2.78h0c0-1.07.66-1.56,1.46-1.1l13.94,8a3.49,3.49,0,0,1,1.46,2.78h0C297.6,114.24,296.94,114.73,296.14,114.27Z" transform="translate(-61.9 -22.59)"/><path class="cls-3" d="M317.5,126.6l-13.94-8a3.49,3.49,0,0,1-1.46-2.78h0c0-1.07.66-1.56,1.46-1.1l13.94,8A3.51,3.51,0,0,1,319,125.5h0C319,126.57,318.3,127.07,317.5,126.6Z" transform="translate(-61.9 -22.59)"/><path class="cls-5" d="M246.37,116.81l-50.92-29.4A5.93,5.93,0,0,1,193,82.68V24.76c0-1.82,1.11-2.66,2.48-1.87l50.92,29.4A5.93,5.93,0,0,1,248.85,57v57.92C248.85,116.76,247.74,117.6,246.37,116.81Z" transform="translate(-61.9 -22.59)"/><path class="cls-3" d="M213.34,44.12l-11.86-6.85A3.49,3.49,0,0,1,200,34.49h0c0-1.07.66-1.56,1.46-1.1l11.86,6.85A3.49,3.49,0,0,1,214.79,43h0C214.79,44.09,214.14,44.58,213.34,44.12Z" transform="translate(-61.9 -22.59)"/><path class="cls-3" d="M217.13,53.64l-15.65-9A3.51,3.51,0,0,1,200,41.83h0c0-1.07.66-1.57,1.46-1.1l15.65,9a3.45,3.45,0,0,1,1.46,2.77h0C218.59,53.62,217.94,54.11,217.13,53.64Z" transform="translate(-61.9 -22.59)"/><path class="cls-3" d="M241.22,67.55,223.05,57.06a3.47,3.47,0,0,1-1.45-2.78h0c0-1.07.65-1.56,1.45-1.1l18.17,10.49a3.5,3.5,0,0,1,1.45,2.78h0C242.67,67.52,242,68,241.22,67.55Z" transform="translate(-61.9 -22.59)"/><path class="cls-3" d="M213.34,58.79l-11.86-6.85A3.49,3.49,0,0,1,200,49.16h0c0-1.07.66-1.56,1.46-1.1l11.86,6.85a3.49,3.49,0,0,1,1.45,2.78h0C214.79,58.76,214.14,59.25,213.34,58.79Z" transform="translate(-61.9 -22.59)"/><path class="cls-3" d="M231.57,69.31l-11.86-6.84a3.51,3.51,0,0,1-1.46-2.78h0c0-1.07.66-1.56,1.46-1.1l11.86,6.85A3.47,3.47,0,0,1,233,68.21h0C233,69.29,232.37,69.78,231.57,69.31Z" transform="translate(-61.9 -22.59)"/><path class="cls-3" d="M207.44,62.72l-6-3.44A3.51,3.51,0,0,1,200,56.5h0c0-1.07.66-1.56,1.46-1.1l6,3.44a3.48,3.48,0,0,1,1.46,2.78h0C208.9,62.69,208.25,63.19,207.44,62.72Z" transform="translate(-61.9 -22.59)"/><path class="cls-3" d="M229.43,82.75l-28-16.14A3.48,3.48,0,0,1,200,63.84h0c0-1.08.66-1.57,1.46-1.1l28,16.13a3.49,3.49,0,0,1,1.45,2.78h0C230.88,82.72,230.23,83.21,229.43,82.75Z" transform="translate(-61.9 -22.59)"/><path class="cls-3" d="M229.43,97.66l-28-16.14A3.49,3.49,0,0,1,200,78.74h0c0-1.07.66-1.56,1.46-1.1l28,16.14a3.47,3.47,0,0,1,1.45,2.78h0C230.88,97.63,230.23,98.12,229.43,97.66Z" transform="translate(-61.9 -22.59)"/><path class="cls-3" d="M241.22,104.46l-6.34-3.66A3.48,3.48,0,0,1,233.42,98h0c0-1.07.66-1.56,1.46-1.1l6.34,3.66a3.5,3.5,0,0,1,1.45,2.78h0C242.67,104.43,242,104.93,241.22,104.46Z" transform="translate(-61.9 -22.59)"/><path class="cls-3" d="M215.42,82l-13.94-8A3.49,3.49,0,0,1,200,71.17h0c0-1.07.66-1.56,1.46-1.1l13.94,8.05a3.49,3.49,0,0,1,1.46,2.78h0C216.88,82,216.22,82.46,215.42,82Z" transform="translate(-61.9 -22.59)"/><path class="cls-6" d="M380.89,130.31,330,100.91a5.93,5.93,0,0,1-2.48-4.74V38.26c0-1.83,1.11-2.66,2.48-1.87l50.92,29.4a5.93,5.93,0,0,1,2.48,4.73v57.91C383.37,130.26,382.26,131.1,380.89,130.31Z" transform="translate(-61.9 -22.59)"/><path class="cls-3" d="M347.85,57.61,336,50.77A3.5,3.5,0,0,1,334.54,48h0c0-1.07.65-1.57,1.45-1.1l11.86,6.84a3.48,3.48,0,0,1,1.46,2.78h0C349.31,57.58,348.66,58.08,347.85,57.61Z" transform="translate(-61.9 -22.59)"/><path class="cls-3" d="M374.83,73.19,363,66.34a3.49,3.49,0,0,1-1.46-2.78h0c0-1.07.66-1.56,1.46-1.1l11.86,6.85a3.49,3.49,0,0,1,1.45,2.78h0C376.28,73.16,375.63,73.65,374.83,73.19Z" transform="translate(-61.9 -22.59)"/><path class="cls-3" d="M357.64,63.26l-4.48-2.58a3.49,3.49,0,0,1-1.45-2.78h0c0-1.07.65-1.56,1.45-1.1l4.48,2.58a3.5,3.5,0,0,1,1.45,2.78h0C359.09,63.23,358.44,63.73,357.64,63.26Z" transform="translate(-61.9 -22.59)"/><path class="cls-3" d="M366.79,75.88,336,58.1a3.49,3.49,0,0,1-1.45-2.78h0c0-1.07.65-1.56,1.45-1.1L366.79,72a3.5,3.5,0,0,1,1.45,2.78h0C368.24,75.85,367.59,76.35,366.79,75.88Z" transform="translate(-61.9 -22.59)"/><path class="cls-3" d="M347.85,72.28,336,65.44a3.5,3.5,0,0,1-1.45-2.78h0c0-1.07.65-1.56,1.45-1.1l11.86,6.85a3.45,3.45,0,0,1,1.46,2.78h0C349.31,72.26,348.66,72.75,347.85,72.28Z" transform="translate(-61.9 -22.59)"/><path class="cls-3" d="M366.08,82.81,354.22,76a3.47,3.47,0,0,1-1.45-2.78h0c0-1.07.65-1.56,1.45-1.1l11.86,6.85a3.47,3.47,0,0,1,1.46,2.78h0C367.54,82.78,366.89,83.27,366.08,82.81Z" transform="translate(-61.9 -22.59)"/><path class="cls-3" d="M342,76.22l-6-3.45A3.47,3.47,0,0,1,334.54,70h0c0-1.08.65-1.57,1.45-1.1l6,3.44a3.49,3.49,0,0,1,1.45,2.78h0C343.41,76.19,342.76,76.68,342,76.22Z" transform="translate(-61.9 -22.59)"/><path class="cls-3" d="M363.94,96.25,336,80.11a3.49,3.49,0,0,1-1.45-2.78h0c0-1.07.65-1.56,1.45-1.1l27.95,16.14a3.48,3.48,0,0,1,1.46,2.78h0C365.4,96.22,364.74,96.71,363.94,96.25Z" transform="translate(-61.9 -22.59)"/><path class="cls-3" d="M349.94,95.5l-13.95-8a3.5,3.5,0,0,1-1.45-2.78h0c0-1.07.65-1.57,1.45-1.1l13.95,8.05a3.47,3.47,0,0,1,1.45,2.78h0C351.39,95.47,350.74,96,349.94,95.5Z" transform="translate(-61.9 -22.59)"/><path class="cls-3" d="M342.77,98.59,336,94.68a3.5,3.5,0,0,1-1.45-2.78h0c0-1.08.65-1.57,1.45-1.1l6.78,3.91a3.47,3.47,0,0,1,1.45,2.78h0C344.22,98.56,343.57,99.05,342.77,98.59Z" transform="translate(-61.9 -22.59)"/><path class="cls-3" d="M355.29,105.81l-6.77-3.9a3.48,3.48,0,0,1-1.46-2.78h0c0-1.08.65-1.57,1.46-1.1l6.77,3.91a3.47,3.47,0,0,1,1.45,2.77h0C356.74,105.79,356.09,106.28,355.29,105.81Z" transform="translate(-61.9 -22.59)"/><path class="cls-3" d="M374.83,117.1l-14.28-8.25a3.47,3.47,0,0,1-1.46-2.78h0c0-1.07.65-1.56,1.46-1.1l14.28,8.25a3.49,3.49,0,0,1,1.45,2.78h0C376.28,117.07,375.63,117.56,374.83,117.1Z" transform="translate(-61.9 -22.59)"/><path class="cls-7" d="M293.45,403.77h0a2,2,0,0,1-2-1.95V290a2,2,0,0,1,2-1.95h0A2,2,0,0,1,295.4,290V401.82A2,2,0,0,1,293.45,403.77Z" transform="translate(-61.9 -22.59)"/><path class="cls-7" d="M389,350.42h0a2,2,0,0,1-2-1.95V236.64a2,2,0,0,1,2-1.95h0a2,2,0,0,1,1.95,1.95V348.47A2,2,0,0,1,389,350.42Z" transform="translate(-61.9 -22.59)"/><path class="cls-7" d="M112.91,299.76h0a2,2,0,0,1-2-2V186a2,2,0,0,1,2-1.95h0a2,2,0,0,1,2,1.95V297.8A2,2,0,0,1,112.91,299.76Z" transform="translate(-61.9 -22.59)"/><path class="cls-8" d="M393.72,235.62a1.07,1.07,0,0,1,0,2l-97.62,56.73a3.84,3.84,0,0,1-3.49,0L106.3,186.8a1.07,1.07,0,0,1,0-2L203.9,128a3.84,3.84,0,0,1,3.49,0Z" transform="translate(-61.9 -22.59)"/><path class="cls-7" d="M393.44,237.64l-97.61,56.73a3.84,3.84,0,0,1-3.49,0L106,186.8a1.24,1.24,0,0,1-.73-1V189a1.27,1.27,0,0,0,.73,1L292.33,297.59a3.84,3.84,0,0,0,3.49,0l97.61-56.73a1.22,1.22,0,0,0,.72-1v-3.22A1.22,1.22,0,0,1,393.44,237.64Z" transform="translate(-61.9 -22.59)"/><path class="cls-9" d="M227.11,170.29l-11.81,2.28-11.81-2.28s-.05,1.38,4.43,11.17a3.1,3.1,0,0,0,.24.53l0,0h0a4.77,4.77,0,0,0,1.8,1.69,11.84,11.84,0,0,0,10.69,0,4,4,0,0,0,2.17-2.63C227.16,171.63,227.11,170.29,227.11,170.29Z" transform="translate(-61.9 -22.59)"/><ellipse class="cls-3" cx="153.44" cy="147.1" rx="11.9" ry="6.87"/><path class="cls-7" d="M215.34,175.78a15.67,15.67,0,0,1-8.2-2.09c-1.83-1.14-2.88-2.6-2.88-4s1.05-2.87,2.88-4a15.91,15.91,0,0,1,8.2-2.09,15.72,15.72,0,0,1,8.2,2.09c1.82,1.14,2.87,2.6,2.87,4s-1,2.86-2.87,4A15.91,15.91,0,0,1,215.34,175.78Z" transform="translate(-61.9 -22.59)"/><path class="cls-10" d="M224.89,174.79s1.52-3.16,4.2-2.8,2.54,4.45-1.14,6.21c-2.15,1-3.61,0-5.89,3" transform="translate(-61.9 -22.59)"/><polygon class="cls-11" points="205.63 200.62 180.01 185.72 180.01 185.13 205.63 200.02 205.63 200.62"/><path class="cls-12" d="M294.21,202.06l-25.62-14.89c.74.42,1,1.52.55,2.86a5.56,5.56,0,0,1-2.34,3.16l-25.18,14.53,25.63,14.89,25.17-14.53a5.54,5.54,0,0,0,2.35-3.16C295.16,203.58,295,202.48,294.21,202.06Z" transform="translate(-61.9 -22.59)"/><path class="cls-13" d="M281.24,191.08l-.05-17-25.63-14.9.05,17c0,2.28.79,4,2.19,4.78l25.63,14.9C282,195.06,281.24,193.36,281.24,191.08Z" transform="translate(-61.9 -22.59)"/><path class="cls-11" d="M282,173.75l.05,17c0,2.12.73,3.71,2,4.46l10.79,6.19c.89.51,1.14,1.83.67,3.45a6.64,6.64,0,0,1-2.82,3.79l-25.18,14.54v-.6l25.18-14.53a5.57,5.57,0,0,0,2.34-3.16c.4-1.34.18-2.44-.56-2.86l-10.78-6.19c-1.41-.81-2.18-2.51-2.19-4.79l0-17Z" transform="translate(-61.9 -22.59)"/><path class="cls-14" d="M319,133,225.92,79.23a1.07,1.07,0,0,0-1.1-.11l-2.31,1.34a1.09,1.09,0,0,1,1.11.11l93.09,53.74a3.43,3.43,0,0,1,1.55,2.69l-.19,67.24a1.1,1.1,0,0,1-.45,1l2.3-1.34a1.12,1.12,0,0,0,.46-1l.19-67.24A3.42,3.42,0,0,0,319,133Z" transform="translate(-61.9 -22.59)"/><path class="cls-7" d="M317,134.33a3.18,3.18,0,0,1,1.55,2.56l-.17,60.88-96.2-55.55.17-60.87c0-1,.7-1.26,1.56-.76Z" transform="translate(-61.9 -22.59)"/><path class="cls-15" d="M318.37,197.77l0,6.36c0,1-.7,1.53-1.56,1L223.7,151.42a3.71,3.71,0,0,1-1.55-2.84l0-6.36Z" transform="translate(-61.9 -22.59)"/><path class="cls-16" d="M304.7,192.21a1.25,1.25,0,0,1,.57,1c0,.36-.26.5-.57.32a1.24,1.24,0,0,1-.57-1C304.13,192.18,304.39,192,304.7,192.21Z" transform="translate(-61.9 -22.59)"/><path class="cls-16" d="M312,196.41a1.26,1.26,0,0,1,.57,1c0,.36-.26.51-.58.33a1.26,1.26,0,0,1-.56-1C311.4,196.37,311.65,196.23,312,196.41Z" transform="translate(-61.9 -22.59)"/><path class="cls-17" d="M247.57,127.82,227.13,116a2.32,2.32,0,0,1-1-1.85h0c0-.71.44-1,1-.73l20.44,11.81a2.29,2.29,0,0,1,1,1.84h0C248.54,127.8,248.11,128.13,247.57,127.82Z" transform="translate(-61.9 -22.59)"/><path class="cls-18" d="M235,125.44l-7.87-4.55a2.32,2.32,0,0,1-1-1.85h0c0-.71.44-1,1-.73l7.87,4.55a2.3,2.3,0,0,1,1,1.85h0C236,125.42,235.54,125.74,235,125.44Z" transform="translate(-61.9 -22.59)"/><path class="cls-19" d="M247.11,132.42l-7.88-4.54a2.33,2.33,0,0,1-1-1.85h0c0-.71.43-1,1-.73l7.88,4.55a2.31,2.31,0,0,1,1,1.84h0C248.07,132.4,247.64,132.73,247.11,132.42Z" transform="translate(-61.9 -22.59)"/><path class="cls-20" d="M231.09,128.05l-4-2.29a2.32,2.32,0,0,1-1-1.85h0c0-.71.44-1,1-.73l4,2.29a2.34,2.34,0,0,1,1,1.85h0C232.06,128,231.62,128.36,231.09,128.05Z" transform="translate(-61.9 -22.59)"/><path class="cls-21" d="M245.68,141.34l-18.55-10.71a2.32,2.32,0,0,1-1-1.84h0c0-.72.44-1,1-.73l18.55,10.71a2.29,2.29,0,0,1,1,1.84h0C246.65,141.32,246.22,141.65,245.68,141.34Z" transform="translate(-61.9 -22.59)"/><path class="cls-22" d="M236.39,140.85l-9.26-5.35a2.32,2.32,0,0,1-1-1.84h0c0-.72.44-1,1-.73l9.26,5.34a2.32,2.32,0,0,1,1,1.85h0C237.35,140.83,236.92,141.15,236.39,140.85Z" transform="translate(-61.9 -22.59)"/><path class="cls-23" d="M231.62,142.9l-4.49-2.6a2.32,2.32,0,0,1-1-1.84h0c0-.72.44-1,1-.73l4.49,2.59a2.31,2.31,0,0,1,1,1.85h0C232.59,142.88,232.16,143.21,231.62,142.9Z" transform="translate(-61.9 -22.59)"/><path class="cls-24" d="M239.94,147.7l-4.5-2.6a2.31,2.31,0,0,1-1-1.84h0c0-.72.43-1,1-.73l4.5,2.59a2.33,2.33,0,0,1,1,1.85h0C240.9,147.68,240.47,148,239.94,147.7Z" transform="translate(-61.9 -22.59)"/><path class="cls-25" d="M252.91,155.19l-9.48-5.48a2.31,2.31,0,0,1-1-1.84h0c0-.71.44-1,1-.73l9.48,5.47a2.31,2.31,0,0,1,1,1.85h0C253.88,155.17,253.45,155.5,252.91,155.19Z" transform="translate(-61.9 -22.59)"/><path class="cls-26" d="M282.67,239.69c.86.5,1,1.24.12,1.73L257.2,256.3a3.7,3.7,0,0,1-3.23.07l-93.09-53.75c-.86-.49-.74-1.37.12-1.87l25.59-14.87a3.17,3.17,0,0,1,3,.07Z" transform="translate(-61.9 -22.59)"/><path class="cls-27" d="M282.79,241.42,257.2,256.3a3.7,3.7,0,0,1-3.23.07l-93.09-53.75a1,1,0,0,1-.59-.86v2.07a1,1,0,0,0,.58.87L254,258.44a3.69,3.69,0,0,0,3.24-.07l25.59-14.87a1,1,0,0,0,.58-.8v-2.08A1,1,0,0,1,282.79,241.42Z" transform="translate(-61.9 -22.59)"/><polygon class="cls-28" points="142.7 177.19 138.69 179.52 131.12 175.15 135.14 172.82 142.7 177.19"/><polygon class="cls-29" points="190.71 210.84 186.69 213.17 179.13 208.8 183.14 206.47 190.71 210.84"/><g class="cls-30"><polygon class="cls-31" points="151.56 182.3 147.54 184.63 139.97 180.26 143.99 177.93 151.56 182.3"/><polygon class="cls-32" points="146.43 185.28 142.42 187.61 134.85 183.24 138.87 180.91 146.43 185.28"/><polygon class="cls-33" points="160.41 187.41 156.4 189.74 148.83 185.38 152.85 183.04 160.41 187.41"/><polygon class="cls-34" points="141.31 188.26 137.29 190.59 129.73 186.22 133.74 183.89 141.31 188.26"/><polygon class="cls-35" points="155.29 190.39 151.27 192.72 143.71 188.35 147.72 186.02 155.29 190.39"/><polygon class="cls-36" points="136.18 191.23 132.17 193.57 124.6 189.2 128.61 186.87 136.18 191.23"/><polygon class="cls-37" points="169.27 192.52 165.25 194.86 157.69 190.49 161.7 188.16 169.27 192.52"/><polygon class="cls-38" points="150.16 193.37 146.15 195.7 138.58 191.33 142.59 189 150.16 193.37"/><polygon class="cls-39" points="164.14 195.5 160.13 197.84 152.56 193.47 156.58 191.13 164.14 195.5"/><polygon class="cls-40" points="178.12 197.64 174.11 199.97 166.54 195.6 170.56 193.27 178.12 197.64"/><polygon class="cls-41" points="159.02 198.48 155 200.81 147.44 196.44 151.45 194.11 159.02 198.48"/><polygon class="cls-42" points="173 200.61 168.98 202.95 161.42 198.58 165.43 196.25 173 200.61"/><polygon class="cls-43" points="186.98 202.75 182.96 205.08 175.4 200.72 179.41 198.38 186.98 202.75"/><polygon class="cls-44" points="167.87 203.59 163.86 205.93 156.29 201.56 160.31 199.23 167.87 203.59"/><polygon class="cls-45" points="195.83 207.86 191.82 210.19 184.25 205.83 188.27 203.49 195.83 207.86"/><polygon class="cls-46" points="176.73 208.71 172.72 211.04 165.15 206.67 169.16 204.34 176.73 208.71"/><polygon class="cls-47" points="171.6 211.78 167.76 214.02 141.11 198.63 137.84 196.74 133.46 194.21 137.3 191.98 141.68 194.51 144.95 196.4 171.6 211.78"/><polygon class="cls-48" points="199.56 215.95 195.55 218.28 187.98 213.92 192 211.58 199.56 215.95"/><polygon class="cls-49" points="180.46 216.8 176.45 219.13 168.88 214.76 172.89 212.43 180.46 216.8"/><polygon class="cls-50" points="194.27 218.93 190.42 221.16 184.32 217.64 182.94 216.85 174.17 211.78 178.02 209.55 186.79 214.61 188.16 215.41 194.27 218.93"/><polygon class="cls-51" points="213.54 218.19 208.5 221.11 207.56 221.66 204.57 223.4 196.84 218.93 199.83 217.19 200.77 216.65 201.96 215.95 193.19 210.89 197.04 208.66 205.89 213.77 207.87 214.91 213.54 218.19"/><polygon class="cls-52" points="189.31 221.91 185.3 224.24 177.73 219.87 181.75 217.54 189.31 221.91"/><polygon class="cls-53" points="203.29 224.04 199.28 226.38 191.72 222.01 195.73 219.68 203.29 224.04"/><polygon class="cls-54" points="198.17 227.02 194.16 229.35 186.59 224.99 190.6 222.65 198.17 227.02"/></g><polygon class="cls-55" points="137.58 180.16 133.56 182.5 126 178.13 130.01 175.8 137.58 180.16"/><polygon class="cls-56" points="123.59 178.03 119.58 180.36 112.02 176 116.03 173.66 123.59 178.03"/><polygon class="cls-57" points="118.47 181.01 114.46 183.34 106.89 178.97 110.91 176.64 118.47 181.01"/><polygon class="cls-58" points="128.72 175.05 124.71 177.38 117.14 173.02 121.16 170.68 128.72 175.05"/><polygon class="cls-59" points="133.85 172.07 129.83 174.41 122.27 170.04 126.28 167.71 133.85 172.07"/><polygon class="cls-60" points="181.85 205.73 177.84 208.06 170.27 203.69 174.29 201.36 181.85 205.73"/><polygon class="cls-61" points="127.33 186.12 123.31 188.45 115.75 184.09 119.76 181.75 127.33 186.12"/><polygon class="cls-62" points="132.45 183.14 128.44 185.47 120.87 181.11 124.89 178.78 132.45 183.14"/><path class="cls-63" d="M317.8,242.5c.48-.27.95-.52,1.41-.73,6.35-2.9,7.28,1.26,7.33,1.48L302.78,257C304.22,254.68,311.62,246.07,317.8,242.5Z" transform="translate(-61.9 -22.59)"/><path class="cls-64" d="M312.09,233.69c-1.06-.62-2.85-.82-5.84.55a14.74,14.74,0,0,0-1.42.73c-6.17,3.56-13.57,12.18-15,14.47l13,7.53c1.44-2.29,8.84-10.9,15-14.47.48-.27.95-.52,1.41-.73,3-1.37,4.78-1.17,5.84-.55Z" transform="translate(-61.9 -22.59)"/><path class="cls-16" d="M310.32,239.72a23.3,23.3,0,0,1,2.88-1.43,1.54,1.54,0,0,0-2-1.32c-1.13.25-2.19,2.21-2.27,3.56l.74.19.92-.56-.39-.4Z" transform="translate(-61.9 -22.59)"/><path class="cls-65" d="M309.71,240.72a25.58,25.58,0,0,1,3.84-2s-.44-1.8-1.56-1.52S309.79,239.37,309.71,240.72Z" transform="translate(-61.9 -22.59)"/><path class="cls-3" d="M205.69,135.78l-15.79,3.05-15.79-3.05s-.05,1.84,5.93,14.92a3.45,3.45,0,0,0,.32.71l0,.06h0a6.54,6.54,0,0,0,2.41,2.26,15.84,15.84,0,0,0,14.29,0,5.42,5.42,0,0,0,2.89-3.52C205.75,137.56,205.69,135.78,205.69,135.78Z" transform="translate(-61.9 -22.59)"/><path class="cls-66" d="M205.69,135.78l-15.79,3.05-15.79-3.05s-.05,1.84,5.93,14.92a3.45,3.45,0,0,0,.32.71l0,.06h0a6.54,6.54,0,0,0,2.41,2.26,15.84,15.84,0,0,0,14.29,0,5.42,5.42,0,0,0,2.89-3.52C205.75,137.56,205.69,135.78,205.69,135.78Z" transform="translate(-61.9 -22.59)"/><ellipse class="cls-67" cx="128.06" cy="112.38" rx="15.9" ry="9.18"/><path class="cls-68" d="M190,143.23a22.17,22.17,0,0,1-11.38-2.84c-2.54-1.54-4-3.51-4-5.42s1.45-3.88,4-5.42a24.32,24.32,0,0,1,22.77,0c2.53,1.54,4,3.52,4,5.42s-1.46,3.88-4,5.43A22.66,22.66,0,0,1,190,143.23Z" transform="translate(-61.9 -22.59)"/><path class="cls-69" d="M190,137.66a3.62,3.62,0,0,1-1.77-.42c-.4-.23-.63-.52-.63-.8s.23-.57.63-.8a4,4,0,0,1,3.55,0,.83.83,0,0,1,0,1.6A3.63,3.63,0,0,1,190,137.66Z" transform="translate(-61.9 -22.59)"/><path class="cls-69" d="M199.58,114.05l-4.12,1.14,3.28.86a36.76,36.76,0,0,1-5.12,7.84c-2.87,3.46-3.08,11.76-3.08,11.76l-1.37.85s-.29-4.74-.4-12.58,12.16-19.25,12.16-19.25A21.51,21.51,0,0,1,199.58,114.05Z" transform="translate(-61.9 -22.59)"/><path class="cls-69" d="M189.72,136.33h-2.45s-6.88-10.49-13.34-12.67a55.19,55.19,0,0,1-12.68-5.91l3.81-3.32-6.71,1.27a32.28,32.28,0,0,1-9.13-11s24.92,4.91,31,15.11S189.72,136.33,189.72,136.33Z" transform="translate(-61.9 -22.59)"/><path class="cls-69" d="M189.5,137.33s-7.36-1.36-10.47.37-9.44,4.73-17.15,2.48c0,0,10.34-8,17.27-6.48s11.13,2.65,11.13,2.65Z" transform="translate(-61.9 -22.59)"/><path class="cls-7" d="M199.32,345.1a55,55,0,0,0-2.44,6.95s-1.13,3.57,4.63,5.77,10.65-1.86,11.7-3.53c0,0,15.33-.44,21.1-7.35s.19-9.29-4.55-8.06-19.26,3.32-22.17,2.84S199.32,345.1,199.32,345.1Z" transform="translate(-61.9 -22.59)"/><path class="cls-70" d="M149.11,301.1s3.44,9.95,20,5.64c11.42-3,20-5.91,23.68-6.95,8.21-2.29,13.82-5.42,15.51-2.39,1.15,2.05-6.73,37.09-8,40.7,0,0-1.58,7.1-1.26,8.24,2.41,8.42,18.93,6.12,18.29.05s9.23-55.71,9.28-59.78c.07-5.79-3.77-12.14-15.37-11.07s-24.75,2.63-33.2,3.78S130,274.8,149.11,301.1Z" transform="translate(-61.9 -22.59)"/><rect class="cls-7" x="109.17" y="310.79" width="2.35" height="62.75" rx="1.12"/><rect class="cls-7" x="147.09" y="291.16" width="2.35" height="62.75" rx="1.12"/><rect class="cls-7" x="65.91" y="285.09" width="2.35" height="62.75" rx="1.12"/><path class="cls-71" d="M170.05,288.24l-34.43,19.87c-2.61,1.51-5.09,1.75-6.92.68l43.7,25.4c1.83,1.06,4.32.83,6.93-.68l34.42-19.87Z" transform="translate(-61.9 -22.59)"/><path class="cls-7" d="M223,357.81a55,55,0,0,0-2.44,6.95s-1.13,3.57,4.62,5.77,10.66-1.86,11.7-3.53c0,0,15.34-.44,21.11-7.35s.19-9.29-4.55-8.06-19.26,3.32-22.17,2.85S223,357.81,223,357.81Z" transform="translate(-61.9 -22.59)"/><path class="cls-72" d="M241.53,294c-.65-5.76-5.25-11.58-16.63-9.06s-24.22,5.69-32.47,7.89-48.23,1.51-26,25.22c0,0,4.65,9.45,20.6,3.09,11-4.37,19.05-8.35,22.62-9.84,7.86-3.3,13-7.11,15.1-4.31a1.42,1.42,0,0,1,.17.55,79,79,0,0,0-1.37,15.18c0,.52,0,1,.06,1.52a71.57,71.57,0,0,1-.17,10.66c-.63,6.59-1.27,12.12-1.57,13.47,0,0-.68,7.24-.21,8.33,3.43,8.05,19.54,3.71,18.15-2.23S242,298,241.53,294Z" transform="translate(-61.9 -22.59)"/><path class="cls-73" d="M148.2,284.87A10.86,10.86,0,0,0,153,294.1c7.21,4.86,19.21,11.2,25.82,12.12,16,2.27,17.32-8.21,17.32-8.21s-.46-62.75-2.72-75.76c-1.21-6.93-6.6-10.44-12.26-14.16-.72-.46-1.4-.91-2-1.3a26.81,26.81,0,0,0-14.18-4.2,19.62,19.62,0,0,0-3.68.36c-5.66,1.06-8.12,4.47-10,7.2A10.58,10.58,0,0,0,149.4,216Z" transform="translate(-61.9 -22.59)"/><path class="cls-74" d="M182.45,216.11S174,219,176.2,229.17c0,0,12.06,34.54,30.52,36.6s39.26-8.43,41.6-11.2c0,0-2.73-6.82-5.16-6.91s-21.88,5.93-30.63,5.44-10.37-5.58-12.6-10.37S192.88,212.43,182.45,216.11Z" transform="translate(-61.9 -22.59)"/><path class="cls-75" d="M246.09,254.14s2.86,1.63,6.7-1a10.91,10.91,0,0,0,4.47-6.57s5.85-.79,6.47-1.89c.86-1.55.8-4.63-5.9-4.87-1.1,0-7.22,1.38-8.88,2.41s-5.94,4.61-6,6.88S244.15,253.66,246.09,254.14Z" transform="translate(-61.9 -22.59)"/><path class="cls-76" d="M166.41,241.92l7,38.78a50.79,50.79,0,0,1,.29,16L170,326.1c-.44,3.5.37,6.33,2.23,7.76s4.56,1.3,7.42-.35L214,313.64v.82l-34.42,19.87c-3.06,1.77-6,1.91-8,.38s-2.87-4.57-2.4-8.33L173,297a50,50,0,0,0-.28-15.73l-7-38.78Z" transform="translate(-61.9 -22.59)"/><polygon class="cls-26" points="103.81 219.88 60.1 194.48 60.81 193.93 104.51 219.32 103.81 219.88"/><path class="cls-77" d="M172.69,297a50,50,0,0,0-.29-15.73l-7-38.78-43.7-25.39,7,38.78a50.21,50.21,0,0,1,.29,15.72L125.27,301c-.48,3.76.39,6.8,2.39,8.33a6.18,6.18,0,0,0,.53.36l43.7,25.39a4.41,4.41,0,0,1-.53-.35c-2-1.54-2.87-4.57-2.39-8.33Z" transform="translate(-61.9 -22.59)"/><line class="cls-78" x1="109.26" y1="170.45" x2="109.26" y2="182.44"/><path class="cls-75" d="M191.45,174.53c3.63,10.39.43,22.3-7.64,25.13a10.76,10.76,0,0,1-3.63.6c-5.73,0-11.75-4.18-15.56-10.36a27.07,27.07,0,0,1-2.44-5.15c-.09-.25-.17-.5-.24-.74-.17-.55-.33-1.1-.46-1.64-1.58-6.52-.15-12.51,3.36-16.44a14.23,14.23,0,0,1,4-3.11,15,15,0,0,1,1.84-.79c6.24-2.18,13.09.27,17.54,6.3A22.9,22.9,0,0,1,191.45,174.53Z" transform="translate(-61.9 -22.59)"/><path class="cls-7" d="M189.73,168.94a10.83,10.83,0,0,0,1.78-5.84s-.24-1.31-1.65,1.37a4.27,4.27,0,0,1-1.65,1.58h0c-4.21-8.55-20.68-16.28-27.46.39-.55-.39-1.33-.8-1.27.06,0,.24,0,.46,0,.66-.88-.46-2.77-1.3-2.17.37.28.79.49,1.48.74,2a14.78,14.78,0,0,0-3.72,11.22c.54,4.53,3.4,10,6.89,13.78l0,0h0c.46.5.93,1,1.4,1.4a1.15,1.15,0,0,1,0,1.3c-.62.87-.21,1.94,1.4,2.4,2.42.68,5.6.65,7.5-.75a3.62,3.62,0,0,0,.19.4c1.07,1.93,2.75,1.25,2.05,0h0a2.4,2.4,0,0,1,.43-2.84c2.26-2.27,4-5.31,5.76-6.23,3.44-1.78-3.37-5.81-.42-8.4,2.22-2,4.47,3.51,6.23,1.76,1.35-1.32-2.08-4.93-2.55-7.26,1.57-.18,5.74-1.23,7.44-7.36C190.68,169,190.72,168.12,189.73,168.94Z" transform="translate(-61.9 -22.59)"/><path class="cls-75" d="M186,183.82c1,2.49.35,5.43-1.59,6.21s-4.44-.9-5.44-3.39-.12-4.87,1.82-5.64S185,181.32,186,183.82Z" transform="translate(-61.9 -22.59)"/><path class="cls-79" d="M248.19,81.16a4.29,4.29,0,0,1,1.95,3.37L250,122c0,1.25-.88,1.75-2,1.12l-32.63-18.84a4.26,4.26,0,0,1-1.95-3.37l.1-37.51c0-1.23.89-1.73,2-1.11Z" transform="translate(-61.9 -22.59)"/><path class="cls-69" d="M250.91,79.42,218.27,60.58a1.36,1.36,0,0,0-1.39-.14l-3,1.74a1.4,1.4,0,0,1,1.39.14l32.64,18.84a4.29,4.29,0,0,1,2,3.37l-.11,37.5a1.37,1.37,0,0,1-.57,1.26l3-1.74a1.4,1.4,0,0,0,.57-1.26l.1-37.5A4.28,4.28,0,0,0,250.91,79.42Z" transform="translate(-61.9 -22.59)"/><text class="cls-80" transform="matrix(0.87, 0.5, 0, 1, 163.04, 70.76)">JS</text><path class="cls-81" d="M300.07,50.54A4.31,4.31,0,0,1,302,53.91l-.11,37.51c0,1.24-.88,1.74-2,1.11L267.32,73.69a4.29,4.29,0,0,1-1.95-3.37l.11-37.5c0-1.24.88-1.74,2-1.12Z" transform="translate(-61.9 -22.59)"/><path class="cls-82" d="M302.79,48.8,270.15,30a1.38,1.38,0,0,0-1.39-.14l-3,1.74a1.42,1.42,0,0,1,1.4.14l32.63,18.84a4.31,4.31,0,0,1,1.95,3.37l-.11,37.51a1.36,1.36,0,0,1-.57,1.25l3-1.74a1.38,1.38,0,0,0,.57-1.26l.1-37.5A4.25,4.25,0,0,0,302.79,48.8Z" transform="translate(-61.9 -22.59)"/><text class="cls-80" transform="matrix(0.87, 0.5, 0, 1, 211.14, 38.97)">CSS</text><path class="cls-16" d="M306.45,138.57a4.31,4.31,0,0,1,1.95,3.37l-.11,37.51c0,1.24-.88,1.74-2,1.11L273.7,161.72a4.29,4.29,0,0,1-1.95-3.37l.11-37.5c0-1.24.88-1.74,2-1.12Z" transform="translate(-61.9 -22.59)"/><path class="cls-83" d="M309.17,136.83,276.53,118a1.38,1.38,0,0,0-1.39-.14l-3,1.74a1.4,1.4,0,0,1,1.39.14l32.64,18.84a4.31,4.31,0,0,1,1.95,3.37L308,179.45a1.36,1.36,0,0,1-.57,1.25l3-1.74a1.38,1.38,0,0,0,.57-1.26l.1-37.5A4.25,4.25,0,0,0,309.17,136.83Z" transform="translate(-61.9 -22.59)"/><text class="cls-80" transform="matrix(0.87, 0.5, 0, 1, 216.53, 127.25)">PHP</text><path class="cls-74" d="M374.92,174.72a4.29,4.29,0,0,1,1.95,3.37l-.11,37.5c0,1.24-.88,1.74-2,1.12l-32.63-18.84a4.27,4.27,0,0,1-1.95-3.38l.1-37.5c0-1.24.88-1.74,2-1.11Z" transform="translate(-61.9 -22.59)"/><path class="cls-84" d="M377.64,173,345,154.14a1.36,1.36,0,0,0-1.39-.14l-3,1.74a1.36,1.36,0,0,1,1.39.14l32.64,18.84a4.25,4.25,0,0,1,1.94,3.37l-.1,37.5a1.38,1.38,0,0,1-.57,1.26l3-1.74a1.4,1.4,0,0,0,.57-1.26l.1-37.5A4.28,4.28,0,0,0,377.64,173Z" transform="translate(-61.9 -22.59)"/><text class="cls-80" transform="matrix(0.87, 0.5, 0, 1, 284.61, 161.58)">C++</text></svg>