<?xml version="1.0" encoding="utf-8"?>
<!-- Generator: Adobe Illustrator 26.0.1, SVG Export Plug-In . SVG Version: 6.00 Build 0)  -->
<svg version="1.1" id="Speech_Bubble" xmlns="http://www.w3.org/2000/svg" xmlns:xlink="http://www.w3.org/1999/xlink" x="0px"
	 y="0px" viewBox="0 0 308.77 340.45" style="enable-background:new 0 0 308.77 340.45;" xml:space="preserve">
<style type="text/css">
	.st0{fill:#27DEBF;}
	.st1{opacity:0.2;enable-background:new    ;}
	.st2{opacity:0.5;fill:#FFFFFF;enable-background:new    ;}
	.st3{fill:#FFFFFF;}
	.st4{display:none;fill:#27DEBF;}
	.st5{display:none;fill:#FFFFFF;}
</style>
<g id="Speech_Bubble-2">
	<path class="st0" d="M308.77,28.32c0-7.39-8-16.39-17.85-20.09l-14.53-5.45c-9.85-3.7-25.84-3.7-35.69,0L17.85,86.55
		C7.99,90.25,0,99.25,0,106.64v159.37c0,7.4,8,16.39,17.85,20.09l14.53,5.45c9.85,3.7,25.84,3.7,35.69,0l71.7-26.91l10-2
		c7.08-1.5,13.84-4.2,20-8l29.41-12.31l91.74-34.54c9.85-3.66,17.85-12.66,17.85-20.1V28.32z"/>
	<path class="st1" d="M0,266.01c0,7.4,8,16.39,17.85,20.09l14.53,5.45c8.91,3.35,22.77,3.64,32.64,0.94
		c-8.4,2.06-14.79-1-14.79-7.63V125.49c0-3.7,2-7.8,5.23-11.43L5.23,95.21C2,98.85,0,102.94,0,106.64L0,266.01z"/>
	<path class="st2" d="M308.18,25.03c-2.08-4.93-9-6.5-17.23-3.41L68.06,105.41c-4.84,1.81-9.16,4.78-12.57,8.66L5.28,95.24
		c3.43-3.86,7.74-6.83,12.57-8.66L240.66,2.79c9.91-3.68,25.89-3.68,35.72,0l14.57,5.46C299.36,11.39,306.44,18.42,308.18,25.03z"/>
	<g id="_">
		<path class="st3" d="M82.99,188.06c-0.03-1.17,0.29-2.31,0.91-3.3c0.77-1.11,1.64-2.15,2.6-3.1l48.46-50.91
			c0.24-0.22,0.5-0.42,0.78-0.6c0.17-0.1,0.36-0.19,0.55-0.26c0.57-0.29,1.24-0.29,1.81,0c0.51,0.34,0.79,0.94,0.73,1.55v19.69
			c0.05,1.49-0.45,2.95-1.39,4.1c-0.77,0.95-1.6,1.85-2.48,2.69l-25,24.77l25,7.46c0.85,0.17,1.68,0.43,2.48,0.77
			c0.93,0.38,1.39,1.38,1.39,3v13.95c-0.01,0.76-0.27,1.49-0.73,2.09c-0.45,0.64-1.08,1.13-1.81,1.41
			c-0.18,0.07-0.36,0.11-0.55,0.14c-0.26,0.04-0.52,0.04-0.78,0L86.5,196.93c-0.93-0.21-1.81-0.61-2.6-1.15
			c-0.69-0.68-1.03-1.65-0.91-2.62L82.99,188.06z"/>
		<path class="st3" d="M188.61,109.42c0.46-1.13,1.07-2.2,1.82-3.17c0.91-1.14,2.13-2,3.52-2.46l16.23-6.1
			c0.6-0.28,1.3-0.25,1.87,0.09c0.54,0.34,0.84,0.95,0.79,1.58c-0.01,0.4-0.1,0.8-0.24,1.18l-40.95,113.42
			c-0.41,1.1-0.98,2.13-1.69,3.06c-0.93,1.2-2.19,2.09-3.63,2.58l-15.88,5.95c-0.6,0.28-1.3,0.25-1.87-0.08
			c-0.53-0.35-0.84-0.96-0.79-1.59c0.02-0.4,0.1-0.8,0.25-1.18L188.61,109.42z"/>
		<path class="st3" d="M277.64,127.77c0.05,1.18-0.25,2.35-0.87,3.36c-0.77,1.11-1.65,2.15-2.61,3.1l-48.48,50.9
			c-0.24,0.23-0.51,0.43-0.79,0.6c-0.17,0.11-0.35,0.2-0.54,0.27c-0.57,0.29-1.25,0.29-1.82,0c-0.51-0.34-0.79-0.93-0.73-1.54
			v-19.74c-0.04-1.46,0.46-2.88,1.39-4c0.78-0.92,1.62-1.8,2.49-2.64l21.19-21.28l-21.19-5.26c-0.86-0.17-1.7-0.45-2.49-0.82
			c-0.92-0.43-1.39-1.44-1.39-3.06V108c0.01-0.76,0.26-1.49,0.73-2.09c0.45-0.65,1.08-1.14,1.82-1.41c0.18-0.06,0.36-0.11,0.54-0.15
			c0.26-0.03,0.53-0.03,0.79,0l48.45,14.55c0.93,0.21,1.82,0.6,2.61,1.14c0.69,0.69,1.02,1.66,0.9,2.63V127.77z"/>
	</g>
	<path class="st4" d="M161.77,253.63"/>
	<path class="st5" d="M178.77,328.63"/>
	<path class="st5" d="M205.17,312.69H186.1c-5.29,0-11.74-1-16.86,0.48c-11,3.22-5.87,18.83,0.12,24.29
		c9.73,8.88,16.19-3.9,16.27-12.91c0.1-11.77-7.27-21.42-9.83-32.54c-1.73-7.52-13.3-4.34-11.57,3.19c1.46,6.35,4.45,12,6.82,18.07
		c1.62,4.14,5,13.23,1,17.09l4.24-1.76c2.87,0.15,0.55-0.27-0.37-1.85c-0.12-0.21-1.24-4.14-1.14-4.07c-2.57,1.55-2.95,2.22-1.12,2
		h31.51c7.73,0,7.74-12,0-12V312.69z"/>
	<path class="st5" d="M166.56,269.53c7.72,0,7.74-12,0-12C158.82,257.53,158.83,269.53,166.56,269.53z"/>
	<path class="st5" d="M166.56,257.53h-2.36c-1.59,0.02-3.1,0.65-4.24,1.75c-2.34,2.34-2.35,6.14,0,8.49c0,0,0,0,0,0
		c1.14,1.11,2.65,1.74,4.24,1.76h2.36c1.59-0.02,3.11-0.65,4.25-1.76c2.34-2.34,2.35-6.14,0-8.49c0,0,0,0,0,0
		C169.67,258.18,168.15,257.56,166.56,257.53L166.56,257.53z"/>
	<path class="st5" d="M148.14,274.07l0.78,0.79c2.38,2.25,6.11,2.25,8.49,0l0.94-1.21c0.53-0.91,0.81-1.95,0.82-3l-0.22-1.6
		c-0.28-1-0.81-1.91-1.54-2.64l-0.79-0.79c-1.7-1.76-4.32-2.25-6.55-1.24c-0.74,0.23-1.41,0.66-1.93,1.24l-0.94,1.21
		c-0.53,0.91-0.82,1.95-0.82,3l0.21,1.6C146.87,272.43,147.4,273.34,148.14,274.07L148.14,274.07z"/>
	<path class="st5" d="M161.05,271.89c7.72,0,7.73-12,0-12C153.32,259.89,153.31,271.89,161.05,271.89z"/>
	<path class="st5" d="M161.05,271.89c7.72,0,7.73-12,0-12C153.32,259.89,153.31,271.89,161.05,271.89z"/>
	<path class="st5" d="M158.68,271.13c7.72,0,7.74-12,0-12C150.94,259.13,150.95,271.13,158.68,271.13z"/>
	<path class="st5" d="M155.53,271.89c7.72,0,7.74-12,0-12C147.79,259.89,147.8,271.89,155.53,271.89z"/>
	<path class="st5" d="M152.38,272.68c7.72,0,7.73-12,0-12C144.65,260.68,144.64,272.68,152.38,272.68z"/>
	<path class="st5" d="M149.23,268.74c7.72,0,7.73-12,0-12C141.5,256.74,141.49,268.74,149.23,268.74z"/>
	<path class="st5" d="M161.05,264.01c7.72,0,7.73-12,0-12C153.32,252.01,153.31,264.01,161.05,264.01z"/>
	<path class="st5" d="M173.65,260.86c7.73,0,7.74-12,0-12S165.92,260.86,173.65,260.86z"/>
	<path class="st5" d="M185.47,254.56c7.73,0,7.74-12,0-12S177.74,254.56,185.47,254.56z"/>
	<path class="st5" d="M198.87,249.83c7.72,0,7.73-12,0-12S191.14,249.83,198.87,249.83z"/>
	<path class="st5" d="M209.9,245.13c7.72,0,7.74-12,0-12S202.17,245.13,209.9,245.13z"/>
	<path class="st5" d="M221.77,241.13c7.72,0,7.73-12,0-12S214.04,241.13,221.77,241.13z"/>
</g>
</svg>
