<?xml version="1.0" standalone="no"?>
<!DOCTYPE svg PUBLIC "-//W3C//DTD SVG 20010904//EN"
 "http://www.w3.org/TR/2001/REC-SVG-20010904/DTD/svg10.dtd">
<svg version="1.0" xmlns="http://www.w3.org/2000/svg"
 width="225.000000pt" height="225.000000pt" viewBox="0 0 225.000000 225.000000"
 preserveAspectRatio="xMidYMid meet">

<g transform="translate(0.000000,225.000000) scale(0.100000,-0.100000)"
fill="white" stroke="none" >
<path d="M760 1359 l0 -301 28 24 c15 12 64 45 109 72 44 27 88 62 97 77 13
22 16 61 16 228 l0 201 -125 0 -125 0 0 -301z"/>
<path d="M1268 1514 l-3 -146 -46 -42 c-26 -22 -120 -86 -209 -140 -257 -157
-250 -148 -250 -340 l0 -136 81 -64 c45 -35 101 -78 125 -96 l44 -31 0 181 c0
155 3 186 18 212 11 20 76 66 197 141 201 125 267 181 284 242 6 22 11 113 11
203 l0 162 -124 0 -125 0 -3 -146z"/>
<path d="M1477 1189 c-21 -21 -76 -62 -123 -91 l-84 -53 0 -263 c0 -252 1
-263 18 -250 115 83 223 174 227 192 3 11 4 130 3 262 l-3 242 -38 -39z"/>
</g>
</svg>
