<?xml version="1.0" standalone="no"?>
<svg xmlns:xlink="http://www.w3.org/1999/xlink" id="wave" style="transform:rotateY(180deg); transition: 0.3s;" viewBox="0 0 1440 400" version="1.1" xmlns="http://www.w3.org/2000/svg"><defs><linearGradient id="sw-gradient-0" x1="0" x2="0" y1="1" y2="0"><stop stop-color="white" offset="0%"/><stop stop-color="white" offset="100%"/></linearGradient></defs><path style="transform:translate(0, 0px); opacity:1; " fill="url(#sw-gradient-0)" d="M0,240L48,220C96,200,192,160,288,126.7C384,93,480,67,576,100C672,133,768,227,864,280C960,333,1056,347,1152,293.3C1248,240,1344,120,1440,86.7C1536,53,1632,107,1728,120C1824,133,1920,107,2016,80C2112,53,2208,27,2304,13.3C2400,0,2496,0,2592,0C2688,0,2784,0,2880,26.7C2976,53,3072,107,3168,160C3264,213,3360,267,3456,300C3552,333,3648,347,3744,300C3840,253,3936,147,4032,100C4128,53,4224,67,4320,106.7C4416,147,4512,213,4608,206.7C4704,200,4800,120,4896,106.7C4992,93,5088,147,5184,186.7C5280,227,5376,253,5472,280C5568,307,5664,333,5760,306.7C5856,280,5952,200,6048,166.7C6144,133,6240,147,6336,126.7C6432,107,6528,53,6624,33.3C6720,13,6816,27,6864,33.3L6912,40L6912,400L6864,400C6816,400,6720,400,6624,400C6528,400,6432,400,6336,400C6240,400,6144,400,6048,400C5952,400,5856,400,5760,400C5664,400,5568,400,5472,400C5376,400,5280,400,5184,400C5088,400,4992,400,4896,400C4800,400,4704,400,4608,400C4512,400,4416,400,4320,400C4224,400,4128,400,4032,400C3936,400,3840,400,3744,400C3648,400,3552,400,3456,400C3360,400,3264,400,3168,400C3072,400,2976,400,2880,400C2784,400,2688,400,2592,400C2496,400,2400,400,2304,400C2208,400,2112,400,2016,400C1920,400,1824,400,1728,400C1632,400,1536,400,1440,400C1344,400,1248,400,1152,400C1056,400,960,400,864,400C768,400,672,400,576,400C480,400,384,400,288,400C192,400,96,400,48,400L0,400Z"/></svg>