<?xml version="1.0" standalone="no"?>
<svg xmlns:xlink="http://www.w3.org/1999/xlink" id="wave" style="transform:rotate(0deg); transition: 0.3s" viewBox="0 0 1440 490" version="1.1" xmlns="http://www.w3.org/2000/svg"><defs><linearGradient id="sw-gradient-0" x1="0" x2="0" y1="1" y2="0"><stop stop-color="white" offset="0%"/><stop stop-color="white" offset="100%"/></linearGradient></defs><path style="transform:translate(0, 0px); opacity:1" fill="url(#sw-gradient-0)" d="M0,441L120,375.7C240,310,480,180,720,106.2C960,33,1200,16,1440,32.7C1680,49,1920,98,2160,106.2C2400,114,2640,82,2880,114.3C3120,147,3360,245,3600,310.3C3840,376,4080,408,4320,367.5C4560,327,4800,212,5040,204.2C5280,196,5520,294,5760,285.8C6000,278,6240,163,6480,106.2C6720,49,6960,49,7200,73.5C7440,98,7680,147,7920,147C8160,147,8400,98,8640,81.7C8880,65,9120,82,9360,147C9600,212,9840,327,10080,334.8C10320,343,10560,245,10800,212.3C11040,180,11280,212,11520,196C11760,180,12000,114,12240,147C12480,180,12720,310,12960,318.5C13200,327,13440,212,13680,155.2C13920,98,14160,98,14400,122.5C14640,147,14880,196,15120,187.8C15360,180,15600,114,15840,147C16080,180,16320,310,16560,318.5C16800,327,17040,212,17160,155.2L17280,98L17280,490L17160,490C17040,490,16800,490,16560,490C16320,490,16080,490,15840,490C15600,490,15360,490,15120,490C14880,490,14640,490,14400,490C14160,490,13920,490,13680,490C13440,490,13200,490,12960,490C12720,490,12480,490,12240,490C12000,490,11760,490,11520,490C11280,490,11040,490,10800,490C10560,490,10320,490,10080,490C9840,490,9600,490,9360,490C9120,490,8880,490,8640,490C8400,490,8160,490,7920,490C7680,490,7440,490,7200,490C6960,490,6720,490,6480,490C6240,490,6000,490,5760,490C5520,490,5280,490,5040,490C4800,490,4560,490,4320,490C4080,490,3840,490,3600,490C3360,490,3120,490,2880,490C2640,490,2400,490,2160,490C1920,490,1680,490,1440,490C1200,490,960,490,720,490C480,490,240,490,120,490L0,490Z"/></svg>